<svg width="80" height="78" viewBox="0 0 80 78" fill="none" xmlns="http://www.w3.org/2000/svg">
<path fill-rule="evenodd" clip-rule="evenodd" d="M6.89206 61.2515L12.955 53.323L16.6862 52.8566C16.6862 52.2348 16.6862 51.7684 16.6862 51.4575C16.9972 50.2138 17.3079 48.8147 17.6188 47.2601L12.4887 46.3273C12.4887 46.3273 12.3333 46.1718 12.0224 45.8609C11.556 46.7937 11.0896 47.7264 11.0896 47.7264L3.16107 35.1341L8.29115 28.6048L14.8206 30.4703C14.8206 30.4703 14.8206 34.2014 14.8206 37.466L19.4844 30.4703C19.7953 29.8485 20.2617 29.3821 20.8835 29.0712L19.4844 25.3401L37.2068 6.68487L47.4673 1.55469L54.463 11.3487C54.7739 11.3487 54.9293 11.3487 54.9293 11.3487L63.7906 5.75213L72.1854 16.0125L77.7821 24.4074C78.7148 25.8065 77.7821 27.672 76.383 29.0712L70.7863 32.8022C70.7863 33.735 70.7863 34.6678 70.7863 35.6005L75.9164 42.1298C76.8492 43.0626 76.3828 43.9954 75.9164 44.9282L68.4544 57.0541C67.5217 58.9196 65.1898 59.8523 63.7906 59.386L59.1268 57.9868C56.6394 60.1632 54.1522 62.0288 51.6648 63.5834L51.1983 68.7136C50.7319 70.5791 49.3328 72.4446 47.4673 72.911L34.4087 76.1757C33.4759 76.4866 32.6986 76.3311 32.0768 75.7093L25.081 67.3144L19.9507 71.5119C18.5515 72.4446 16.6862 72.4446 15.7534 71.9782L6.89206 61.2515ZM43.2697 46.3273L56.7949 34.6677C54.9294 31.4031 50.2656 30.0039 45.1354 31.4031C37.2069 33.735 30.6775 40.7307 30.2111 47.7264C29.7447 50.9911 30.6777 53.323 33.0096 55.1885L43.2697 46.3273Z" fill="#FFE2A9"/>
<path d="M49.3347 28.1385L52.1328 31.4032C54.3093 32.025 55.8639 33.1132 56.7966 34.6678L55.8638 35.6006L63.7924 44.4618L73.5862 49.1256L75.9182 44.9282C76.8509 43.9955 76.8511 43.0627 76.3847 42.1299L70.7881 35.6006C71.099 34.6679 71.099 33.7351 70.7881 32.8023L72.1872 32.3359L69.389 29.5377L60.9942 19.7437L49.3347 28.1385Z" fill="#FFE2A9"/>
<path d="M66.5962 31.4033L54.9367 39.7982L69.3947 56.1215L75.9239 45.3948C76.8566 44.462 76.8568 43.5292 76.3904 42.5965L74.9913 41.1973L66.5962 31.4033Z" fill="#FFB727"/>
<path d="M21.3501 23.9409L20.4173 27.6719L20.8835 29.0711C20.5726 29.382 20.2616 29.6929 19.9507 30.0039L17.1525 44.4617L28.3458 54.2557L30.6777 51.9238C30.0559 50.6801 29.9002 49.281 30.2111 47.7264C30.2111 44.9281 31.6103 42.1298 33.4759 39.3315L21.3501 23.9409Z" fill="#FFB727"/>
<path d="M39.0779 49.1255L34.4141 52.8566L49.3383 71.0454C50.2711 70.4236 50.7374 69.6463 50.7374 68.7135L51.2037 63.5833L42.3426 52.8566L39.0779 49.1255Z" fill="#FFB727"/>
<path fill-rule="evenodd" clip-rule="evenodd" d="M33.4786 77.1081C32.5459 77.1081 31.7685 76.9526 31.1467 76.6417C31.1467 76.6417 31.1468 76.1753 25.0838 68.7132L20.42 71.9779C18.5545 73.377 16.2224 73.377 15.2896 72.4443L6.42856 61.7175C6.11764 61.4066 6.11764 60.9402 6.42856 60.3184L12.4915 52.8563C12.4915 52.8563 12.6468 52.8563 12.9577 52.8563L15.7562 51.9235C15.7562 51.6126 15.9115 51.3016 16.2225 50.9907C16.2225 50.058 16.3781 49.1252 16.689 48.1924L12.4915 47.2597C12.0251 47.7261 11.5586 48.1924 11.5586 48.1924C11.5586 48.5034 11.4033 48.6588 11.0924 48.6588C10.7815 48.6588 10.4705 48.5034 10.1596 48.1924L2.23102 35.6002C2.23102 35.2892 2.23102 34.9783 2.23102 34.6674L7.36138 28.138C7.6723 27.8271 7.983 27.6717 8.29392 27.6717L15.2896 29.5372C15.6006 29.8481 15.7562 30.159 15.7562 30.4699V34.6674L18.5544 30.0036C18.8653 29.6927 19.3316 29.2263 19.9534 28.6045L19.0209 25.8061C18.71 25.1843 18.71 24.8734 19.0209 24.8734L36.7433 6.21814L47.0038 0.621582C47.4702 0.621582 47.9363 0.621575 47.9363 1.08796L54.932 9.94921L63.3271 4.81898C63.3271 4.81898 63.7933 4.81901 64.2597 5.28539L72.6547 15.5458L78.7176 23.9406C79.6504 25.8062 78.7175 28.1381 76.852 29.5372L71.7219 33.2683C71.7219 33.8901 71.7219 34.6674 71.7219 35.6002L76.852 41.6631C77.7848 42.5959 77.3185 43.995 76.3857 45.3942L68.9235 57.5201C67.9907 59.3856 65.6589 60.7847 63.7934 60.3184L59.1296 58.9192C56.9531 61.0957 54.7766 62.8057 52.6001 64.0494L52.1339 69.1796C51.6675 71.0451 49.8018 72.9107 47.9363 73.377L34.8777 77.1081C34.2559 77.1081 33.7895 77.1081 33.4786 77.1081ZM25.0838 66.3813C25.3947 66.3813 25.5501 66.5368 25.5501 66.8477L32.5458 75.2426C32.8567 75.5535 33.4787 75.7089 34.4114 75.7089L47.47 71.9779C48.8692 71.5115 50.2682 70.1124 50.2682 68.7132L50.7348 63.583C50.7348 63.2721 50.8901 63.1166 51.201 63.1166C53.6884 61.562 56.1759 59.6965 58.6633 57.5201C58.6633 57.2091 58.8187 57.0537 59.1296 57.0537L63.7934 58.4528C65.1925 58.9192 66.5916 57.9865 67.5244 56.5873L74.9866 44.4614C75.453 43.995 75.9193 43.0623 75.4529 42.5959L70.3228 36.5329C70.0119 36.222 69.8563 35.9111 69.8563 35.6002C70.1672 34.6674 70.1672 33.7346 69.8563 32.8019C69.8563 32.4909 70.0119 32.3355 70.3228 32.3355L75.9192 28.138C76.852 27.2053 77.3186 25.8062 77.3186 24.8734L71.7219 16.4785L63.3271 6.68452L55.3986 11.8147C55.0877 12.1256 54.7767 12.2811 54.4658 12.2811C54.1548 11.9702 53.9995 11.8147 53.9995 11.8147L47.0038 2.48708L37.6762 7.6173L20.42 25.3398L21.8191 29.0708C21.8191 29.3817 21.6637 29.6927 21.3528 30.0036C20.731 30.3145 20.2644 30.6254 19.9534 30.9364L15.7562 37.9321C15.4453 38.243 15.1343 38.3984 14.8234 38.3984C14.5124 38.3984 14.2015 38.0875 13.8905 37.4657V31.4027L8.76047 29.5372L4.09666 35.1338L11.0924 46.3269C11.0924 46.016 11.2477 45.7051 11.5586 45.3942C11.5586 44.9278 12.0251 44.9278 12.4915 45.3942C12.8024 45.3942 12.9577 45.3942 12.9577 45.3942L17.6215 46.7933C18.0879 46.7933 18.5544 47.2597 18.5544 47.7261C18.2434 48.9698 17.9325 50.2134 17.6215 51.4571C17.6215 51.768 17.6215 52.2344 17.6215 52.8563C17.6215 53.3226 17.1553 53.789 17.1553 53.789L13.4243 54.2554L7.82765 60.7847L16.2225 71.0451C17.1552 71.5115 18.088 71.5115 19.4872 70.5788L24.6173 66.8477C24.6173 66.5368 24.7729 66.3813 25.0838 66.3813ZM33.0123 56.1209C32.7014 56.1209 32.3904 55.9655 32.0795 55.6545C29.7476 53.789 28.8147 50.9907 29.2811 47.7261C29.7474 40.264 36.7434 32.8019 44.6719 30.4699C50.2684 29.0708 55.3984 30.47 57.2639 34.201C57.7303 34.6674 57.7303 35.1338 57.2639 35.6002L33.4786 55.6545C33.1677 55.9655 33.0123 56.1209 33.0123 56.1209ZM48.8691 31.8691C47.9364 31.8691 46.6927 32.0246 45.1381 32.3355C38.1424 34.201 31.6132 41.1967 30.6804 47.7261C30.6804 50.5244 31.1468 52.3899 33.0123 53.789L55.3986 34.6674C53.9994 32.8019 51.6674 31.8691 48.8691 31.8691Z" fill="#000C2C"/>
<path d="M34.8716 52.8563L32.5397 54.7218C30.6741 53.3227 29.2751 50.5244 29.7415 47.2597L17.6154 32.8019L14.8172 37.4657C14.8172 34.201 14.8172 30.47 14.8172 30.47L7.82151 28.6045L6.42242 30.47L31.1406 60.3184L36.7372 55.6546L34.8716 52.8563Z" fill="#000C2C"/>
<path fill-rule="evenodd" clip-rule="evenodd" d="M31.1443 61.2513C30.8333 61.2513 30.678 61.0959 30.678 60.7849L5.49329 31.4029C5.49329 30.7811 5.49329 30.3147 5.49329 30.0038L7.35892 28.1382C7.66985 27.8273 7.98054 27.6719 8.29146 27.6719L14.8209 29.5374C15.1318 29.5374 15.4428 29.8483 15.7537 30.4702V34.6676L17.1528 32.3357C17.1528 32.0248 17.3082 31.8693 17.6191 31.8693C17.93 31.8693 18.241 32.0248 18.5519 32.3357L30.678 46.7935C30.678 46.7935 30.678 46.949 30.678 47.2599C30.678 47.2599 30.678 47.2599 30.678 47.7263C30.2116 50.0582 31.1442 52.3901 32.5433 53.7892L34.409 52.3901C34.409 52.3901 34.5643 52.3901 34.8752 52.3901C35.1862 52.3901 35.3418 52.3901 35.3418 52.3901L37.6737 55.1884C38.1401 55.6548 37.6737 56.1211 37.6737 56.1211L31.6105 61.2513C31.6105 61.2513 31.4552 61.2513 31.1443 61.2513ZM7.35892 30.4702L31.1443 59.3858L35.8081 55.6547L34.8752 54.2556L33.0099 55.6547C32.699 55.9657 32.388 55.9657 32.0771 55.6547C29.7452 53.7892 28.8123 50.991 28.8123 47.2599L17.6191 34.2012L15.2872 37.9323C15.2872 38.2432 14.9765 38.3987 14.3546 38.3987C14.0437 38.0877 13.8881 37.7768 13.8881 37.4659V30.9366L8.29146 29.5374L7.35892 30.4702Z" fill="#000C2C"/>
<path d="M39.5486 5.28564L37.6833 6.68477L31.1538 13.2141L46.5443 30.9366C51.2081 30.0038 55.4055 31.403 57.271 34.6676L52.6072 38.3987L57.7376 44.4616L61.4686 32.8021L39.5486 5.28564Z" fill="#000C2C"/>
<path fill-rule="evenodd" clip-rule="evenodd" d="M57.7338 45.3943C57.4229 45.3943 57.1119 45.2389 56.801 44.9279L51.6709 38.865C51.6709 38.3986 51.6708 37.9322 52.1372 37.9322L55.8682 34.2012C54.0027 31.8693 50.738 30.9365 46.5406 31.8693C46.2296 31.8693 45.9187 31.7138 45.6077 31.4029L30.6838 13.6804C30.2174 13.214 30.2174 12.7476 30.6838 12.7476L37.2129 5.75191L39.0786 4.81913C39.7004 4.50821 40.1667 4.50821 40.4777 4.81913L61.9311 32.3356C62.242 32.3356 62.3976 32.4911 62.3976 32.802L58.6666 44.9279C58.3557 45.2389 58.0447 45.3943 57.7338 45.3943ZM53.5363 38.3986L57.2673 42.596L60.532 32.802L39.5448 6.68466L38.1458 7.15103L32.5491 13.214L46.5406 30.0037C51.6708 29.071 55.8683 30.4701 57.7338 34.2012C58.2002 34.2012 58.2002 34.6675 57.7338 35.1339L53.5363 38.3986Z" fill="#000C2C"/>
<path d="M59.6026 8.54992L54.9388 11.3482L47.4769 1.5542L37.2164 7.15076L35.8173 8.54992L46.0778 21.1422L60.5355 9.48266L59.6026 8.54992Z" fill="#000C2C"/>
<path fill-rule="evenodd" clip-rule="evenodd" d="M46.074 22.0753C45.7631 22.0753 45.6074 21.9198 45.6074 21.6089L35.3473 9.48298C34.8809 9.0166 34.8809 8.55024 35.3473 8.08386L36.7464 6.21833C36.7464 6.21833 36.9017 6.21833 37.2126 6.21833L47.0068 1.08814C47.4732 0.621759 47.9395 1.08814 48.4059 1.08814L54.9351 10.4158L59.1326 7.61748C59.599 7.61748 60.0653 7.61748 60.5317 8.08386L60.9982 9.01661C61.3092 9.01661 61.3092 9.17206 60.9982 9.48298C60.9982 9.7939 60.9982 9.94939 60.9982 9.94939L47.0068 22.0753C46.6959 22.0753 46.3849 22.0753 46.074 22.0753ZM36.7464 9.01661L46.5403 20.2098L55.8679 11.8149L55.4016 12.2813C55.0907 12.2813 54.9351 12.2813 54.9351 12.2813C54.6241 12.2813 54.3134 12.1258 54.0025 11.8149L47.4731 2.95367L38.1455 7.61748L36.7464 9.01661Z" fill="#000C2C"/>
<path d="M62.8617 13.2142L76.3869 29.0711C77.786 27.672 78.7187 25.8065 77.7859 24.4073L72.1893 16.0124L68.4583 11.3486C65.66 12.2814 64.7272 11.3486 62.8617 13.2142Z" fill="#000C2C"/>
<path fill-rule="evenodd" clip-rule="evenodd" d="M76.3829 29.5376C76.072 29.5376 75.761 29.5376 75.4501 29.5376L62.3915 13.6807C61.9251 13.2143 61.9251 12.7479 62.3915 12.7479C63.7906 11.3488 64.7233 10.8824 66.1225 10.8824C66.7443 10.8824 67.3663 10.7269 67.9881 10.416C68.299 10.416 68.6097 10.5715 68.9206 10.8824L72.6519 15.5462L78.7148 23.9411C79.6476 25.8066 78.7147 28.1385 76.8492 29.5376C76.5383 29.5376 76.3829 29.5376 76.3829 29.5376ZM64.2568 13.2143L76.3829 27.6721C77.3157 26.7393 77.3157 25.8066 77.3157 24.8738L71.7191 16.4789L67.9881 12.2815C67.3663 12.5925 66.7443 12.7479 66.1225 12.7479C65.1897 12.7479 64.7232 12.7479 64.2568 13.2143Z" fill="#000C2C"/>
<path d="M10.161 57.0537L6.8963 60.7847L15.7577 71.5115C16.6904 72.4443 18.5558 72.4443 19.9549 71.0451L11.0938 60.7847L10.161 57.0537Z" fill="#000C2C"/>
<path fill-rule="evenodd" clip-rule="evenodd" d="M17.1548 72.9108C16.5329 72.9108 15.911 72.7554 15.2891 72.4444L6.42808 61.2513C6.11716 60.9404 6.11716 60.6295 6.42808 60.3185L9.6928 56.1211C9.6928 56.1211 9.84815 56.1211 10.1591 56.1211C10.7809 56.1211 11.0919 56.2766 11.0919 56.5875L12.0247 60.3185L20.4195 70.5789C20.7304 70.8899 20.8858 71.2008 20.8858 71.5117C20.8858 71.5117 20.7304 71.6671 20.4195 71.9781C19.4867 72.5999 18.3985 72.9108 17.1548 72.9108ZM8.29343 60.7849L16.6885 71.0453C16.6885 71.5117 17.6211 71.5117 18.5539 71.0453L10.6253 61.2513C10.6253 61.2513 10.6253 61.0958 10.6253 60.7849L9.6928 58.9194L8.29343 60.7849Z" fill="#000C2C"/>
<path d="M63.7906 5.75244L72.1855 16.4792L77.7821 24.8741C78.093 25.185 78.2483 25.4959 78.2483 25.8068L69.3873 15.5464L64.7235 13.6809C64.7235 13.6809 62.8579 9.94985 61.4587 7.15156L63.7906 5.75244Z" fill="#000C2C"/>
<path fill-rule="evenodd" clip-rule="evenodd" d="M2.69508 48.1931L8.29143 44.4621C8.29143 43.2184 8.29143 41.9747 8.29143 40.731C8.29143 39.4874 8.44706 38.2437 8.75798 37L4.09417 35.6009C2.69502 35.6009 2.22859 33.7353 3.16135 31.8698L10.6233 20.2103C12.0225 18.3447 13.888 17.412 15.2871 17.8784L20.4175 19.2775C22.594 17.1011 24.9259 15.2355 27.4132 13.6809L27.8795 8.08436C28.3459 6.68522 29.745 4.81968 31.6105 4.3533L44.6694 0.622268C46.5349 0.155887 47.9339 1.08865 47.4676 2.95417L47.0013 8.08436C49.4887 8.39528 51.8206 9.01713 53.997 9.94989L59.1271 5.75245C60.9926 4.81969 62.8581 4.35331 63.7909 5.75245L69.3875 14.1473C69.8539 15.0801 69.3874 16.9456 67.5219 18.3447L62.3918 22.5422C62.3918 23.7859 62.3918 25.0296 62.3918 26.2732C62.0809 27.206 61.7699 28.2942 61.459 29.5379L66.5891 30.937C67.9882 31.4034 68.4548 32.8025 67.0556 34.6681L59.5934 46.794C58.6606 48.1931 56.7952 49.1259 55.3961 48.6595L50.2657 47.7268C48.0893 49.9032 45.602 51.7687 42.8037 53.3233L42.3375 58.4535C42.3375 60.319 40.9383 61.7182 39.0728 62.1846L26.0141 65.9156C24.1486 66.382 22.7494 65.4492 22.7494 64.0501L23.2157 58.4535C20.7283 58.4535 18.552 57.9871 16.6865 57.0544L11.0899 60.7854C9.69074 62.1846 7.8251 62.1846 6.89234 61.2518L1.29571 52.8569C0.362948 51.4578 1.29594 49.5923 2.69508 48.1931ZM33.9424 45.8612C41.8709 43.9957 48.4004 36.5336 49.3332 29.5379C49.7996 23.0086 44.2028 18.8111 36.2743 21.143C28.8122 23.0085 21.8167 30.4706 21.3503 37.4664C20.8839 43.9957 26.4803 48.1931 33.9424 45.8612Z" fill="#FFE2A9"/>
<path d="M59.5985 46.794L67.0608 34.6681C68.4599 32.8025 67.9934 31.4034 66.5942 30.937L61.4642 29.5379C61.7751 28.2942 62.0861 27.206 62.397 26.2732C62.397 25.0296 62.397 23.7859 62.397 22.5422L67.5271 18.3447C69.3926 16.9456 69.8591 15.0801 69.3927 14.1473L63.7961 5.75245C62.8633 4.35331 60.9978 4.81969 59.1322 5.75245L54.0022 9.94989C51.8257 9.01713 49.4938 8.39528 47.0065 8.08436L47.4727 2.95417C47.9391 1.08865 46.5401 0.155887 44.6745 0.622268L31.6156 4.3533C29.7501 4.81968 28.351 6.68522 27.8847 8.08436L27.4184 13.6809C24.931 15.2355 22.5991 16.9456 20.4227 18.8111L23.2208 31.4034C26.0191 26.7396 31.1493 22.5422 36.2795 21.143C44.2079 18.8111 49.8047 23.0086 49.3384 29.5379C48.4056 36.5336 41.876 43.9957 33.9476 45.8612C31.1493 46.4831 28.8174 46.4831 26.9518 45.8612L31.1494 64.5165L39.0779 62.1846C40.4771 61.7182 42.3426 60.319 42.3426 58.4535L42.8089 53.3233C45.6072 51.7687 48.0944 49.9032 50.2709 47.7268L55.4013 48.6595C56.8004 49.1259 58.6658 48.1931 59.5985 46.794Z" fill="white"/>
<path fill-rule="evenodd" clip-rule="evenodd" d="M25.0841 66.848C24.1513 66.848 23.374 66.6925 22.7522 66.3816C22.1304 65.7598 21.8194 64.827 21.8194 63.5833L22.2856 59.3859C20.1092 59.075 18.2439 58.6086 16.6893 57.9867L11.5589 61.7178C10.6262 62.6506 9.22709 62.6505 7.82794 62.6505C7.2061 62.6505 6.58414 62.3396 5.9623 61.7178L0.365957 53.3229C-0.566805 51.4574 0.365787 49.1255 2.23131 47.7264L7.36167 43.9953C7.36167 42.7516 7.36167 41.6634 7.36167 40.7306C7.36167 39.7979 7.51702 38.7096 7.82794 37.4659L3.6304 36.5332C3.00856 36.2223 2.54223 35.7559 2.23131 35.134C1.76493 34.2013 1.7651 32.8022 2.69786 31.403L10.1598 19.7435C11.0926 17.878 13.891 16.4788 15.7565 16.9452L19.9537 18.3443C22.1302 16.1679 24.4621 14.4578 26.9495 13.2141L27.416 8.08395C27.416 6.21843 29.2815 4.3529 31.147 3.42014L44.6722 0.155453C45.9158 -0.155468 46.8485 2.10574e-05 47.4703 0.621863C48.4031 1.2437 48.7141 2.02101 48.4032 2.95377L47.9366 7.61758C50.113 7.61758 51.9786 8.08394 53.5332 9.0167L58.6636 5.28567C60.0627 4.35291 61.4618 3.88652 62.3946 3.88652C63.3274 4.19744 63.949 4.66383 64.2599 5.28567L69.8566 13.6805C70.7893 15.0797 70.3231 17.4116 67.9912 19.2771L63.3274 23.0081C63.3274 23.9409 63.3274 25.0291 63.3274 26.2728C63.0165 27.2056 62.7055 28.1383 62.3946 29.0711L66.5919 30.0039C67.5246 30.3148 68.1466 30.9366 68.4575 31.8694C68.9239 32.8022 68.924 33.7349 67.9912 35.134L60.5289 47.26C59.1298 49.1255 56.7978 50.0583 54.9323 49.5919L50.7351 48.6591C48.5586 50.5246 46.2267 52.2347 43.7393 53.7893L43.2728 58.4531C43.2728 60.3186 41.4074 62.6505 39.0755 63.1169L26.0169 66.848C25.706 66.848 25.395 66.848 25.0841 66.848ZM16.6893 56.1212C18.8657 57.054 21.042 57.6758 23.2185 57.9867C23.5294 57.9867 23.8404 57.9867 24.1513 57.9867C24.1513 58.2976 24.1513 58.6086 24.1513 58.9195L23.685 64.0497C23.685 64.0497 23.6849 64.5161 24.1513 64.9824C24.4622 65.2934 24.9285 65.2934 25.5504 64.9824L38.609 61.2514C40.0081 61.2514 41.4074 59.8522 41.4074 58.4531L41.8737 53.3229C42.1846 53.012 42.3403 52.7011 42.3403 52.3902C45.1385 50.8356 47.6258 49.1255 49.8022 47.26C50.1132 46.9491 50.4241 46.7936 50.7351 46.7936L55.3989 48.1927C56.3316 48.1927 58.1971 47.26 59.1299 46.3272L66.5919 34.2013C66.9028 33.5795 67.0584 32.9576 67.0584 32.3358C66.7475 32.0248 66.4365 31.8694 66.1256 31.8694L61.4618 30.4702C60.9954 30.4702 60.5289 30.0039 60.5289 29.5375C61.1508 28.2938 61.4618 27.0501 61.4618 25.8064C61.4618 24.8737 61.4618 23.7854 61.4618 22.5418C61.4618 22.2308 61.6171 21.9199 61.928 21.609L67.0584 17.878C68.4575 16.4788 68.9239 15.0797 68.4575 14.6133L62.8609 6.21842C62.8609 5.9075 62.5499 5.75205 61.928 5.75205C61.4617 5.75205 60.5289 5.75203 59.5961 6.6848L54.4661 10.4159C54.1551 10.7268 53.8442 10.8822 53.5332 10.8822C51.6677 9.94947 49.4914 9.32762 47.0041 9.0167C46.6931 9.0167 46.5375 9.0167 46.5375 9.0167C46.2266 8.70578 46.2266 8.39487 46.5375 8.08395L47.0041 2.95377C47.0041 2.48739 47.0039 2.02098 46.5375 2.02098C46.2266 1.71006 45.7603 1.55461 45.1384 1.55461L31.6133 5.28567C30.2141 5.75206 28.8151 7.15118 28.8151 8.55033L28.3488 13.6805C28.3488 13.9914 28.1932 14.1469 27.8823 14.1469C25.3949 15.7015 23.063 17.567 20.8866 19.7435C20.5756 20.0544 20.2647 20.0544 19.9537 19.7435L15.2899 18.8107C13.8908 18.3443 12.4917 19.2771 11.5589 20.6762L4.09695 32.3358C3.47511 33.2685 3.31948 33.8904 3.6304 34.2013C3.6304 34.5122 3.78603 34.8231 4.09695 35.134L9.22703 36.0668C9.69341 36.0668 9.69358 36.5332 9.69358 36.9996C9.38266 38.5542 9.22703 39.7979 9.22703 40.7306C8.91611 41.9743 8.91611 43.218 9.22703 44.4617C9.22703 44.7726 9.07168 44.9281 8.76076 44.9281L3.6304 49.1255C2.23125 50.0582 1.76493 51.4574 2.23131 52.3902L7.82794 60.3186C7.82794 60.6296 7.98329 60.785 8.29421 60.785C9.22697 61.2514 10.1597 60.785 10.6261 60.3186L16.2227 56.1212C16.2227 56.1212 16.3784 56.1212 16.6893 56.1212ZM30.2142 47.26C27.4159 47.26 25.084 46.7936 23.2185 44.9281C21.3529 43.0625 19.9539 40.2642 20.4203 36.9996C21.3531 30.0039 28.3486 22.5418 36.2771 20.2099C40.4745 18.8107 44.6722 19.7435 47.0041 21.609C49.336 23.4745 50.2686 26.2728 49.8022 29.5375C49.3359 36.9996 42.3402 44.4617 34.4117 46.7936C32.8571 47.1045 31.4579 47.26 30.2142 47.26ZM22.2856 37.4659C21.8193 40.2642 22.752 42.1298 24.6175 43.9953C26.4831 45.8608 30.2141 45.8608 33.9452 44.9281C41.4073 43.0625 47.4704 36.0668 48.4032 29.5375C48.4032 26.7392 47.4704 24.4073 46.0713 23.0081C43.7393 21.1426 40.4747 20.6762 36.7436 22.0754C29.2815 23.9409 22.752 30.9366 22.2856 37.4659Z" fill="#000C2C"/>
<path d="M75.4503 42.5962C75.4503 42.5962 75.295 42.4407 74.9841 42.1298L67.0555 32.8021C66.5892 32.3357 66.5892 31.8694 67.0555 31.403C67.5219 30.9366 67.9882 30.9366 68.4546 31.403L76.3832 41.197C76.3832 41.197 76.3832 41.6634 76.3832 42.1298C76.0722 42.4407 75.7613 42.5962 75.4503 42.5962Z" fill="#000C2C"/>
</svg>
