<svg width="110" height="79" viewBox="0 0 110 79" fill="none" xmlns="http://www.w3.org/2000/svg">
<path d="M107.59 55.5028L56.1546 47.6301L61.6656 78.3337C46.1826 79.1209 30.1748 76.2342 18.3658 69.4112C-2.36565 57.3398 -2.36565 37.9205 18.3658 25.849C39.0972 13.7775 72.9497 13.7775 93.6811 25.849C107.59 33.7217 112.313 45.2683 107.59 55.5028Z" fill="#000C2C"/>
<path d="M0.522507 35.8208H1.57226C3.67165 30.3099 8.39527 24.799 16.0055 20.3378C36.9994 8.26631 70.5895 8.26631 91.5834 20.3378C99.1937 24.799 103.917 30.3099 106.017 35.8208H107.066V42.1189C107.066 44.7431 106.454 47.3674 105.229 49.9916L53.7946 42.1189L57.9933 65.737L59.3054 66.5243V72.8224C43.8224 73.6097 27.8146 70.7231 16.0055 63.9001C5.77104 57.8643 0.522507 49.9916 0.522507 42.1189V35.8208Z" fill="#FFB727"/>
<path fill-rule="evenodd" clip-rule="evenodd" d="M53.7968 73.347C39.6259 73.347 25.9799 70.1979 15.7454 64.4246C5.77331 58.3889 0 50.7786 0 42.3811C0 42.3811 0 42.2936 0 42.1187V35.8205C0 35.5581 0.262295 35.2956 0.524718 35.2956H1.31212C3.4115 29.5223 8.39754 24.2739 15.7454 20.0751C36.7393 7.74123 70.8543 7.74123 91.8481 20.0751C99.196 24.2739 104.182 29.5223 106.281 35.5581L107.069 35.2956C107.244 35.2956 107.331 35.3831 107.331 35.5581C107.506 35.5581 107.594 35.6456 107.594 35.8205V42.1187C107.594 44.9178 106.981 47.6296 105.757 50.2538C105.582 50.4287 105.407 50.5162 105.232 50.5162L54.3215 42.6435L58.5203 65.4743L59.5699 65.9992C59.7449 66.1741 59.8325 66.3491 59.8325 66.524V72.8222C59.8325 73.0846 59.57 73.347 59.3076 73.347C57.3831 73.347 55.5462 73.347 53.7968 73.347ZM1.0496 42.1187C1.0496 50.2538 6.56045 57.864 16.2701 63.6374C27.5543 69.9355 43.0373 73.0846 58.7827 72.2973V66.7864L57.7331 66.2616C57.7331 66.0866 57.6455 65.9992 57.4706 65.9992L53.2719 42.1187C53.2719 42.1187 53.3593 42.0312 53.5342 41.8562C53.5342 41.6813 53.6218 41.5938 53.7968 41.5938L104.969 49.4665C106.019 47.0172 106.544 44.5679 106.544 42.1187V36.3454H106.019C105.844 36.3454 105.669 36.2579 105.494 36.0829C103.395 30.3096 98.6711 25.0611 91.3232 20.8624C70.5918 8.79089 37.0015 8.79089 16.2701 20.8624C9.18468 25.0611 4.19874 30.3096 2.09935 36.0829C1.9244 36.2579 1.74942 36.3454 1.57448 36.3454H1.0496V42.1187Z" fill="#000C2C"/>
<path d="M105.231 33.7217V49.4671C106.455 46.8428 107.068 44.2186 107.068 41.5944V35.2962H106.018C105.843 34.7713 105.581 34.2465 105.231 33.7217Z" fill="#000C2C"/>
<path fill-rule="evenodd" clip-rule="evenodd" d="M105.233 49.9918C104.971 49.9918 104.708 49.7294 104.708 49.467V33.7216C104.708 33.3717 104.883 33.1968 105.233 33.1968C105.496 33.1968 105.496 33.1968 105.758 33.4592C105.933 33.984 106.108 34.4214 106.283 34.7713H107.07C107.245 34.7713 107.333 34.8588 107.333 35.0337C107.507 35.0337 107.595 35.1212 107.595 35.2961V41.5943C107.595 44.3935 106.983 47.1052 105.758 49.7294C105.758 49.9044 105.583 49.9918 105.233 49.9918ZM105.758 35.821V46.8428C106.283 45.0933 106.545 43.3438 106.545 41.5943V35.821H106.02C105.845 35.821 105.758 35.821 105.758 35.821Z" fill="#000C2C"/>
<path d="M56.4192 56.8149V72.8227C57.2939 72.8227 58.256 72.8227 59.3057 72.8227V66.5246L57.9936 65.7373L56.4192 56.8149Z" fill="#000C2C"/>
<path fill-rule="evenodd" clip-rule="evenodd" d="M56.4214 73.3475C56.2465 73.3475 56.1589 73.2601 56.1589 73.0851C55.984 73.0851 55.8966 72.9977 55.8966 72.8227V56.8149C55.8966 56.5525 56.159 56.29 56.4214 56.29C56.6839 56.29 56.9462 56.5525 56.9462 56.8149L58.5208 65.4749L59.5704 65.9997C59.7453 66.1747 59.8329 66.3496 59.8329 66.5246V72.8227C59.8329 73.0851 59.5705 73.0851 59.308 73.0851C58.6082 73.2601 57.9959 73.3475 57.471 73.3475H56.4214ZM56.9462 62.3258V72.2979H57.471C57.8209 72.2979 58.2583 72.2979 58.7832 72.2979V66.787L57.7336 66.2621C57.5586 66.0872 57.471 65.9122 57.471 65.7373L56.9462 62.3258Z" fill="#000C2C"/>
<path d="M2.09714 34.771C1.92219 35.1209 1.74721 35.4708 1.57226 35.8207H0.522507V42.1189C0.522507 44.5681 1.04745 47.0174 2.09714 49.4667V34.771Z" fill="#000C2C"/>
<path fill-rule="evenodd" clip-rule="evenodd" d="M2.09935 49.9918C1.74946 49.9918 1.57448 49.9043 1.57448 49.7294C0.524782 47.1052 0 44.6559 0 42.3816C0 42.3816 0 42.2941 0 42.1191V35.821C0 35.5586 0.262295 35.2961 0.524718 35.2961H1.31212C1.31212 35.2961 1.31212 35.2087 1.31212 35.0337L1.57448 34.7713C1.74942 34.4214 1.9244 34.3339 2.09935 34.5089C2.2743 34.5089 2.44928 34.5963 2.62423 34.7713V49.467C2.44928 49.6419 2.2743 49.8169 2.09935 49.9918ZM1.0496 42.1191C1.0496 43.5187 1.22458 44.9183 1.57448 46.3179V36.3458H1.0496V42.1191Z" fill="#000C2C"/>
<path d="M105.233 43.6933L53.7985 35.8206L59.3093 66.5241C43.8264 67.3114 27.8186 64.4247 16.0095 57.6017C-4.72192 45.5302 -4.72192 26.1109 16.0095 14.0394C37.0034 1.96797 70.5935 1.96797 91.5874 14.0394C105.496 22.1746 109.957 33.4588 105.233 43.6933Z" fill="#FFB727"/>
<path d="M105.496 43.6933L53.7985 35.8206L59.3093 66.5241C43.8264 67.3114 27.8186 64.4247 16.0095 57.6017C-4.72192 45.5302 -4.72192 26.1109 16.0095 14.0394C37.0034 1.96797 70.5935 1.96797 91.5874 14.0394C105.496 22.1746 109.957 33.4588 105.496 43.6933Z" fill="white"/>
<path fill-rule="evenodd" clip-rule="evenodd" d="M53.7968 67.0492C39.6259 67.0492 25.9799 63.9001 15.7454 58.1268C5.51089 52.091 0 44.2183 0 35.8208C0 27.4233 5.51089 19.5505 15.7454 13.7772C36.7393 1.70577 70.8543 1.70577 91.8481 13.7772C105.232 21.6499 110.743 33.1966 105.757 43.9559C105.582 44.1309 105.407 44.2183 105.232 44.2183L54.3215 36.608L59.8325 66.5243C59.8325 66.5243 59.8325 66.6118 59.8325 66.7867C59.6575 66.9617 59.4825 67.0492 59.3076 67.0492C57.3832 67.0492 55.5463 67.0492 53.7968 67.0492ZM53.7968 5.64214C40.1508 5.64214 26.767 8.52878 16.2701 14.5645C6.29803 20.3378 1.0496 27.9481 1.0496 35.8208C1.0496 43.9559 6.29803 51.5662 16.2701 57.3395C27.5543 63.6377 43.0373 66.7867 58.7827 65.9995L53.2719 36.0832C53.2719 35.9083 53.3593 35.7333 53.5342 35.5584C53.5342 35.3834 53.6218 35.2959 53.7968 35.2959L104.969 43.1686C109.43 32.9341 104.182 21.9124 91.3233 14.5645C80.8263 8.52878 67.4428 5.64214 53.7968 5.64214Z" fill="#000C2C"/>
<path d="M11.8042 35.5582V15.8765L27.5496 18.2383L27.0247 21.6498L53.7919 35.8206L19.9393 50.2539C14.4284 46.0551 11.5418 40.8067 11.8042 35.5582Z" fill="#FFE2A9"/>
<path fill-rule="evenodd" clip-rule="evenodd" d="M19.9405 50.7787C19.7656 50.7787 19.6782 50.7787 19.6782 50.7787C14.1673 46.3175 11.0182 41.069 11.2806 35.5581V15.8764C11.2806 15.7015 11.368 15.614 11.543 15.614C11.543 15.439 11.6305 15.3516 11.8055 15.3516L27.5509 17.7134C27.8133 17.7134 28.0757 17.9758 27.8132 18.2382L27.5509 21.3873L54.0556 35.5581C54.2305 35.5581 54.3179 35.6456 54.3179 35.8206C54.3179 36.1705 54.2305 36.3454 54.0556 36.3454L20.2029 50.7787C20.0279 50.7787 19.9405 50.7787 19.9405 50.7787ZM12.3302 16.4012V35.5581C12.0678 40.8066 14.6921 45.5302 19.9405 49.729L52.7434 35.8206L26.7635 21.9121C26.5885 21.9121 26.5011 21.8247 26.5011 21.6497L26.7635 18.5006L12.3302 16.4012Z" fill="#000C2C"/>
<path d="M12.8572 16.1389L11.8076 15.8765V35.5582C11.6326 37.4826 11.9824 39.4946 12.8572 41.5939V16.1389Z" fill="#000C2C"/>
<path fill-rule="evenodd" clip-rule="evenodd" d="M12.8574 41.8563C12.6825 41.8563 12.5075 41.7688 12.3325 41.5939C11.6327 39.6694 11.2829 37.6575 11.2829 35.5581V15.8764C11.2829 15.7015 11.3703 15.614 11.5453 15.614C11.5453 15.439 11.6329 15.3516 11.8078 15.3516L12.8574 15.614C13.1198 15.614 13.3823 15.8764 13.3823 16.1388V41.5939C13.3823 41.7688 13.2073 41.8563 12.8574 41.8563ZM12.3325 16.4012V35.5581C12.3325 36.2579 12.3325 37.0452 12.3325 37.9199V16.4012Z" fill="#000C2C"/>
<path d="M53.794 16.9262L19.9414 31.3595C8.13233 22.1747 8.91953 9.05352 22.828 0.393555L53.794 16.9262Z" fill="#FFB727"/>
<path d="M53.794 16.9262L19.9414 31.3595C8.13233 22.1747 8.91953 9.05352 22.828 0.393555L53.794 16.9262Z" fill="white"/>
<path fill-rule="evenodd" clip-rule="evenodd" d="M19.9419 31.8844C19.7669 31.8844 19.6795 31.8844 19.6795 31.8844C13.9062 27.4232 11.0195 21.6499 11.2819 16.139C11.5444 10.1033 15.7431 4.32998 22.5661 0.131212C22.741 -0.0437372 22.916 -0.0437372 23.091 0.131212L54.0569 16.4014C54.2318 16.5764 54.3192 16.7513 54.3192 16.9263C54.3192 17.1012 54.2318 17.2762 54.0569 17.4512L20.2042 31.8844C20.0293 31.8844 19.9419 31.8844 19.9419 31.8844ZM22.8285 0.918489C16.2679 5.11726 12.594 10.6282 12.3315 16.139C12.0691 21.3875 14.6934 26.636 19.9419 30.8347L52.7448 16.9263L22.8285 0.918489Z" fill="#000C2C"/>
<path d="M53.7896 16.9263V35.8208L19.9369 50.2541V31.3595L53.7896 16.9263Z" fill="#FFE2A9"/>
<path fill-rule="evenodd" clip-rule="evenodd" d="M19.939 50.7788C19.7641 50.7788 19.6767 50.7788 19.6767 50.7788C19.5017 50.6039 19.4142 50.4289 19.4142 50.254V31.3595C19.4142 31.1845 19.5017 31.0096 19.6767 30.8346L53.5292 16.4014C53.7041 16.4014 53.8791 16.4889 54.0541 16.6638C54.229 16.6638 54.3164 16.7513 54.3164 16.9262V35.8207C54.3164 35.9957 54.229 36.1706 54.0541 36.3455L20.2014 50.7788C20.0265 50.7788 19.939 50.7788 19.939 50.7788ZM20.4639 31.6219V49.4667L53.2668 35.5583V17.7135L20.4639 31.6219Z" fill="#000C2C"/>
<path d="M51.6948 36.8704L53.7943 35.8208V16.9263L51.6948 17.7135V36.8704Z" fill="#000C2C"/>
<path d="M53.7896 29.5225V35.8206H52.4775L51.6901 36.8703L53.7896 35.8206L44.0799 53.1406C39.6187 52.3533 35.1576 50.7788 31.4837 48.6794C30.434 47.9796 29.4717 47.2798 28.5969 46.58V40.2818L53.7896 29.5225Z" fill="#FFE2A9"/>
<path fill-rule="evenodd" clip-rule="evenodd" d="M44.0823 53.6654C39.1837 52.7907 34.985 51.3036 31.486 49.2043C30.4363 48.5045 29.3866 47.8047 28.3369 47.1049C28.162 46.9299 28.0744 46.755 28.0744 46.58V40.2819C28.0744 40.1069 28.162 40.0194 28.3369 40.0194L53.5295 29.2601C53.7044 29.0852 53.8794 29.0852 54.0544 29.2601C54.2293 29.2601 54.3167 29.3476 54.3167 29.5225V35.8207C54.3167 35.9956 54.3167 36.0831 54.3167 36.0831L44.6072 53.403C44.6072 53.578 44.4322 53.6654 44.0823 53.6654ZM29.1242 46.3176C29.9989 47.0174 30.8736 47.6297 31.7484 48.1546C35.2474 50.254 39.2711 51.741 43.8198 52.6158L52.7422 36.8704L51.955 37.1328C51.7801 37.3078 51.6051 37.3078 51.4301 37.1328C51.2552 36.9579 51.2552 36.6954 51.4301 36.3455L51.955 35.5583C52.13 35.3833 52.3049 35.2958 52.4799 35.2958H53.2671V30.3098L29.1242 40.8067V46.3176Z" fill="#000C2C"/>
<path d="M29.909 39.7568L28.5969 40.2817V46.5798C28.9468 46.9297 29.3842 47.2796 29.909 47.6295V39.7568Z" fill="#000C2C"/>
<path fill-rule="evenodd" clip-rule="evenodd" d="M29.9114 48.1543C29.7364 48.1543 29.649 48.0669 29.649 47.8919C29.1242 47.717 28.6868 47.4545 28.3369 47.1046C28.162 46.9297 28.0744 46.7547 28.0744 46.5798V40.2817C28.0744 40.1067 28.162 40.0192 28.3369 40.0192L29.649 39.2319C29.824 39.2319 29.999 39.3194 30.1739 39.4944C30.3489 39.4944 30.4363 39.5819 30.4363 39.7568V47.6295C30.4363 47.8045 30.3489 47.9794 30.1739 48.1543C29.999 48.1543 29.9114 48.1543 29.9114 48.1543ZM29.1242 46.3174C29.1242 46.4923 29.2116 46.5798 29.3865 46.5798V40.544L29.1242 40.8065V46.3174Z" fill="#000C2C"/>
<path d="M44.0805 46.8424C39.6193 46.0551 35.1582 44.4806 31.4842 42.3812C30.4346 41.6814 29.4722 40.9816 28.5975 40.2818L53.7902 29.5225L44.0805 46.8424Z" fill="#FFB727"/>
<path d="M44.0805 46.8424C39.6193 46.0551 35.1582 44.4806 31.4842 42.3812C30.4346 41.6814 29.4722 40.9816 28.5975 40.2818L53.7902 29.5225L44.0805 46.8424Z" fill="white"/>
<path fill-rule="evenodd" clip-rule="evenodd" d="M44.0823 47.3673C39.1837 46.4926 34.985 45.0055 31.486 42.9061C30.4363 42.3813 29.3866 41.594 28.3369 40.8067C28.162 40.6318 28.0744 40.4568 28.0744 40.2819C28.0744 40.1069 28.162 40.0194 28.3369 40.0194L53.5295 29.2601C53.7044 29.0852 53.8794 29.0852 54.0544 29.2601C54.2293 29.4351 54.3167 29.61 54.3167 29.785L44.6072 47.1049C44.6072 47.2798 44.4322 47.3673 44.0823 47.3673ZM29.649 40.5443C30.3488 41.0691 31.0486 41.594 31.7484 42.1188C35.2474 44.0433 39.2711 45.4429 43.8198 46.3176L52.7422 30.5722L29.649 40.5443Z" fill="#000C2C"/>
<path d="M53.7914 29.5225V35.8206L44.0817 53.1406V46.8424L53.7914 29.5225Z" fill="#FFE2A9"/>
<path fill-rule="evenodd" clip-rule="evenodd" d="M44.083 53.6654C43.908 53.4905 43.8204 53.3156 43.8204 53.1406V46.8425C43.8204 46.8425 43.8204 46.755 43.8204 46.58L53.2678 29.2601C53.4427 29.0852 53.6177 29.0852 53.7927 29.2601C54.1426 29.2601 54.3174 29.3476 54.3174 29.5225V35.8207C54.3174 35.9956 54.3174 36.0831 54.3174 36.0831L44.6078 53.403C44.6078 53.578 44.4329 53.6654 44.083 53.6654ZM44.6078 47.1049V51.3037L53.2678 35.8207V31.6219L44.6078 47.1049Z" fill="#000C2C"/>
<path d="M52.2164 38.7073L53.791 35.8206V29.5225L52.2164 32.4091V38.7073Z" fill="#000C2C"/>
<path fill-rule="evenodd" clip-rule="evenodd" d="M52.2187 39.2322C52.2187 39.2322 52.1313 39.2322 51.9564 39.2322C51.7814 39.2322 51.6939 39.0572 51.6939 38.7073V32.4092C51.6939 32.4092 51.6939 32.3217 51.6939 32.1467L53.2685 29.2601C53.4434 29.0852 53.6184 29.0852 53.7934 29.2601C54.1433 29.2601 54.3181 29.3476 54.3181 29.5225V35.8207C54.3181 35.9956 54.3181 36.0831 54.3181 36.0831L52.7436 38.9698C52.5687 39.1447 52.3937 39.2322 52.2187 39.2322ZM52.7436 32.6716V36.8704L53.2685 35.8207V31.6219L52.7436 32.6716Z" fill="#000C2C"/>
</svg>
