<svg width="86" height="87" viewBox="0 0 86 87" fill="none" xmlns="http://www.w3.org/2000/svg">
<path d="M79.5556 20.273L74.0947 13.72L73.3668 14.8122C69.9689 12.3851 66.0856 10.6862 61.7169 9.71535C41.6937 4.25448 18.3941 14.4481 9.65669 31.9229C6.38017 38.84 5.65192 45.7571 7.47221 52.3101L6.01611 53.7663L12.5691 61.7756C15.4816 65.4162 19.4862 68.6927 24.583 70.8771C24.3403 71.3625 24.219 71.8479 24.219 72.3333L22.3987 70.513L20.2142 73.0614L26.4033 80.7066C28.2236 82.891 31.5001 85.0753 37.325 86.1675C37.325 86.1675 37.2037 86.1675 36.961 86.1675H37.325L34.0484 82.1629C33.3203 79.9785 33.3203 77.4301 35.8687 74.1536C54.4356 76.3379 74.459 66.8724 82.4683 50.8539C87.5651 39.9321 86.1087 28.6464 79.5556 20.273Z" fill="#FFE2A9"/>
<path d="M60.258 70.5126L48.2441 57.0425L26.7646 62.8674L36.2302 74.1532C44.2395 74.8813 52.6127 73.7891 60.258 70.5126Z" fill="#FFB727"/>
<path fill-rule="evenodd" clip-rule="evenodd" d="M37.3179 86.8952C37.3179 86.8952 37.1966 86.7738 36.9539 86.5311C31.8571 85.5603 28.2165 83.74 26.0321 81.0703L19.8431 73.061C19.6004 72.8183 19.6004 72.6969 19.8431 72.6969L22.0274 70.5126C18.1441 68.3282 14.8675 65.5371 12.1978 62.1393L5.64478 54.13C5.64478 53.8873 5.64478 53.6446 5.64478 53.4019L7.1011 51.9456C5.28081 45.3926 6.00883 38.4755 9.28535 31.5584C18.0227 14.0836 41.3225 3.88999 61.7098 8.9868C65.8358 10.2003 69.5976 11.8993 72.9955 14.0836L73.7236 13.3555C73.7236 13.1128 73.8449 12.9915 74.0876 12.9915C74.3303 12.9915 74.4518 13.1128 74.4518 13.3555L79.9127 20.2726C86.8298 29.01 87.9219 40.2958 82.8251 50.8535C75.1799 66.872 55.1566 76.7016 35.8615 74.5172C33.9199 76.9443 33.4346 79.3713 34.4054 81.7984L37.6818 85.803C37.6818 86.0457 37.6818 86.2884 37.6818 86.5311C37.4391 86.7738 37.3179 86.8952 37.3179 86.8952ZM20.9352 73.061L26.7601 80.3422C28.7017 82.5265 31.7355 84.2254 35.8615 85.4389L33.6773 82.5265C33.6773 82.2838 33.556 82.1624 33.3133 82.1624C32.3425 79.4927 33.0705 76.7016 35.4976 73.7891C35.4976 73.5464 35.6188 73.425 35.8615 73.425C54.4285 75.9735 74.4517 66.1439 82.0969 50.4894C86.8297 40.2958 85.7375 29.3741 79.1845 20.6367L74.0876 14.4477L73.7236 15.1758C73.4809 15.4185 73.2382 15.4185 72.9955 15.1758C69.5976 12.7487 65.7143 11.0498 61.3456 10.079C41.6865 4.98217 18.7509 14.8117 10.0135 32.2865C7.10105 38.8395 6.37302 45.7567 7.82926 51.9456C8.07196 52.1883 8.07196 52.3097 7.82926 52.3097L6.7369 53.7659L12.9259 61.4111C15.8384 65.2944 19.7217 68.3282 24.5758 70.5126C24.8185 70.5126 24.9398 70.6339 24.9398 70.8766C24.9398 71.362 24.8185 71.8475 24.5758 72.3329C24.5758 72.5756 24.4546 72.6969 24.2119 72.6969C24.2119 72.6969 24.0904 72.6969 23.8477 72.6969L22.3916 71.2407L20.9352 73.061Z" fill="#000C2C"/>
<path d="M66.811 11.5352L85.3781 34.1067C84.65 29.374 82.4655 24.6412 79.5531 20.6366L74.0922 13.7195L73.3643 15.1757C71.4226 13.7195 69.2381 12.506 66.811 11.5352Z" fill="#000C2C"/>
<path fill-rule="evenodd" clip-rule="evenodd" d="M85.3792 34.8351C85.1365 34.8351 85.015 34.7138 85.015 34.4711L66.4482 11.8995C66.4482 11.6568 66.4482 11.4141 66.4482 11.1714C66.6909 11.1714 66.9336 11.1714 67.1763 11.1714C69.3607 12.1422 71.3022 13.2344 73.0012 14.4479L73.7293 13.7198C73.7293 13.4771 73.8506 13.3557 74.0933 13.3557C74.336 13.3557 74.4575 13.4771 74.4575 13.7198L79.9184 20.2728C83.1949 24.2775 85.0151 29.0102 85.7432 34.107C85.7432 34.3497 85.6219 34.5924 85.3792 34.8351ZM68.6324 12.9917L84.6511 32.6508C83.5589 28.2821 81.7386 24.2775 79.1902 21.0009L74.0933 14.812L73.7293 15.176C73.4866 15.4187 73.2439 15.5401 73.0012 15.5401C71.5449 14.5692 70.0887 13.7198 68.6324 12.9917Z" fill="#000C2C"/>
<path d="M6.73557 48.6689C6.97827 49.8825 7.22102 50.9747 7.46373 51.9455L6.00763 53.7658L12.5606 61.775C15.4731 65.4156 19.4777 68.6921 24.5745 70.8765C24.3318 71.3619 24.2105 71.8473 24.2105 72.3327L22.3902 70.5124L20.2058 72.6968L26.3948 80.706C28.2151 82.8904 31.4916 85.0747 37.3165 86.1669L6.73557 48.6689Z" fill="#000C2C"/>
<path fill-rule="evenodd" clip-rule="evenodd" d="M37.3179 86.5312C37.0751 86.5312 36.9539 86.5312 36.9539 86.5312C31.8571 85.5604 28.2165 83.7401 26.0321 81.0704L19.8431 73.0611C19.6004 72.8184 19.6004 72.697 19.8431 72.697L22.0274 70.1486C18.1441 68.207 14.8675 65.5373 12.1978 62.1394L5.64478 54.1301C5.64478 53.8874 5.64478 53.6447 5.64478 53.402L7.1011 51.9458C6.85839 50.9749 6.61564 49.8828 6.37294 48.6692C6.37294 48.4265 6.4942 48.3052 6.7369 48.3052C6.97961 48.3052 7.1011 48.3052 7.1011 48.3052L37.6818 85.8031C37.6818 86.0459 37.6818 86.2885 37.6818 86.5312C37.4391 86.5312 37.3179 86.5312 37.3179 86.5312ZM20.9352 73.0611L26.7601 80.3423C28.7017 82.5266 31.7355 84.2255 35.8615 85.4391L24.9398 71.6049C24.6971 71.8476 24.5758 72.0903 24.5758 72.333C24.5758 72.5757 24.4546 72.697 24.2119 72.697C24.2119 72.697 24.0904 72.697 23.8477 72.697L22.3916 71.2408L20.9352 73.0611ZM12.9259 61.7753C15.8384 65.1732 19.3577 67.9643 23.4837 70.1486L7.82926 50.4895C7.82926 51.2176 7.95052 51.8244 8.19322 52.3098C8.19322 52.3098 8.19322 52.4312 8.19322 52.6739L6.7369 54.1301L12.9259 61.7753Z" fill="#000C2C"/>
<path d="M76.2757 42.8442C84.6491 25.3695 75.5476 6.8025 55.5244 1.70569C35.5012 -3.39112 12.2016 6.43846 3.46417 24.2773C-4.18104 39.9318 2.37191 55.9503 18.3905 63.2315C17.2983 67.6002 17.2983 74.8813 30.0404 78.1578C30.4044 78.1578 30.4043 78.1579 30.4043 77.7938C28.584 76.3376 24.9436 72.3329 29.6764 66.144C48.2433 68.6924 68.2665 58.8628 76.2757 42.8442Z" fill="#FFB727"/>
<path d="M55.162 1.70615C43.1481 -1.20631 29.6779 0.978054 19.1202 7.5311L32.5904 66.5085C50.4292 67.6006 68.632 58.1351 75.9131 42.8447C84.6505 25.3699 75.1852 6.80296 55.162 1.70615Z" fill="white"/>
<path fill-rule="evenodd" clip-rule="evenodd" d="M30.0396 78.5222C24.4574 77.3087 20.6955 75.003 18.7539 71.6051C16.9336 68.6926 17.2975 65.7802 17.6616 63.2318C10.0163 59.9552 4.19155 53.7663 1.64314 46.4851C-0.905262 39.568 -0.541338 31.1947 3.09924 23.9135C11.8366 6.07469 35.1364 -3.75488 55.5237 1.34192C65.7173 3.89033 73.7266 10.0793 77.3671 18.4527C81.0077 26.0979 80.6436 34.8352 76.639 43.2086C68.9938 58.8631 48.9707 69.0567 29.6756 66.8723C25.671 72.3332 28.9475 75.9738 30.7678 77.43C31.0105 77.6727 31.0105 77.9154 30.7678 78.1581C30.5251 78.4008 30.2823 78.5222 30.0396 78.5222ZM44.6019 0.977872C27.8553 0.977872 11.1086 10.0793 3.8274 24.2776C0.55088 31.5587 -0.177102 39.2039 2.3713 46.121C4.91971 53.4022 10.7445 59.2271 18.3897 62.5037C18.6324 62.7464 18.7539 62.9891 18.7539 63.2318C18.3898 65.4161 18.0256 68.3286 19.4818 71.241C21.1808 74.1535 24.4573 76.2165 29.3114 77.43C27.4912 75.6097 24.9428 71.241 29.3114 65.7802C29.3114 65.7802 29.4329 65.7802 29.6756 65.7802C48.2426 67.9645 68.2656 58.1349 75.9108 42.8445C79.5514 34.8353 79.9155 26.0979 76.639 18.8167C72.9984 10.8074 65.3533 4.98252 55.1597 2.07006C51.7618 1.34194 48.2425 0.977872 44.6019 0.977872Z" fill="#000C2C"/>
<path d="M63.1665 37.0197L60.6183 33.7432L59.162 34.8353C56.6136 34.4713 54.0651 35.9275 52.9729 38.1118C52.7302 38.3546 52.609 38.5973 52.609 38.84L51.5168 39.5681L53.3371 42.1165C53.8225 42.8446 54.6718 43.4514 55.8854 43.9368C58.7978 44.6649 62.0743 43.2087 63.1665 40.6603C63.8946 39.204 63.5306 38.1119 63.1665 37.0197Z" fill="#FFB727"/>
<path d="M55.8854 43.9368C56.6135 43.9368 57.463 43.9368 58.4338 43.9368L53.3371 37.3838C53.0944 37.6265 52.9729 37.8692 52.9729 38.1119C52.7302 38.3546 52.609 38.5973 52.609 38.84L51.5168 39.5681L53.3371 42.1166C53.8225 42.8447 54.6718 43.4514 55.8854 43.9368Z" fill="white"/>
<path fill-rule="evenodd" clip-rule="evenodd" d="M57.3429 44.3011C56.8575 44.3011 56.372 44.3011 55.8866 44.3011C54.6731 44.0584 53.7023 43.4517 52.9742 42.4808L50.7899 39.9324C50.7899 39.6897 50.7899 39.5684 50.7899 39.5684C50.7899 39.3257 50.9112 39.2043 51.1539 39.2043L52.246 38.4762C52.246 38.2335 52.3675 37.9908 52.6102 37.7481C53.7024 35.5637 56.2507 34.1075 59.1632 34.1075L60.6195 33.3794C60.8622 33.3794 61.1048 33.3794 61.3475 33.3794L63.5319 36.6559C64.2601 38.1122 64.2601 39.5684 63.5319 41.0246C62.4398 43.209 59.8913 44.3011 57.3429 44.3011ZM51.882 39.9324L53.7023 41.7527C54.1877 42.4808 54.9158 42.9662 55.8866 43.2089C58.435 43.9371 61.7116 42.8449 62.8038 40.2965C63.2892 39.3257 63.1679 38.3548 62.4398 37.384L60.6195 34.4716L59.5272 35.1997C59.5272 35.1997 59.4059 35.1997 59.1632 35.1997C56.6148 34.8356 54.4305 36.2918 53.3384 38.1121C53.3384 38.3548 53.2169 38.5976 52.9742 38.8403C52.9742 39.083 52.9742 39.2043 52.9742 39.2043L51.882 39.9324Z" fill="#000C2C"/>
<path d="M58.7982 34.8353L63.1667 40.6603C63.8948 39.204 63.5308 38.1119 63.1667 37.0197L60.9825 33.7432L59.1622 34.8353C59.1622 34.8353 59.1623 34.8353 58.7982 34.8353Z" fill="#000C2C"/>
<path fill-rule="evenodd" clip-rule="evenodd" d="M63.1683 41.0246C63.1683 41.0246 63.047 40.9033 62.8043 40.6606L58.4355 35.1997C58.4355 34.957 58.4355 34.7143 58.4355 34.4716C58.4355 34.4716 58.7996 34.1075 59.1637 34.1075L60.62 33.3794C60.8627 33.3794 61.1053 33.5007 61.348 33.7434L63.5324 36.6559C64.2606 38.1122 64.2606 39.5684 63.5324 40.6606C63.5324 40.9033 63.411 41.0246 63.1683 41.0246ZM59.5277 35.1997L63.1683 39.5684C63.1683 38.5975 62.9257 37.8694 62.4403 37.384L60.62 34.4716L59.5277 35.1997Z" fill="#000C2C"/>
<path d="M61.3426 38.1115C59.8863 40.6599 56.6098 42.1161 54.0614 41.388C51.1489 40.6599 49.6928 37.7474 51.149 35.5631C52.2412 33.0147 55.5177 31.5584 58.4301 32.2866C60.9786 33.0147 62.4347 35.5631 61.3426 38.1115Z" fill="#FFE2A9"/>
<path d="M58.4339 32.2869C56.6136 31.9228 54.7935 32.2869 53.3372 33.015L55.1575 41.3883C57.7059 41.3883 60.2541 40.2961 61.3463 38.1118C62.4385 35.5634 60.9823 33.015 58.4339 32.2869Z" fill="white"/>
<path fill-rule="evenodd" clip-rule="evenodd" d="M55.5205 41.7523C54.7924 41.7523 54.1856 41.7523 53.7002 41.7523C52.244 41.3883 51.1517 40.2961 50.4236 39.2039C50.0596 37.7477 50.0596 36.6555 50.4236 35.1993C51.8798 32.6509 55.5205 31.1947 58.4329 31.9228C59.8892 32.2868 61.3455 33.0149 61.7095 34.4712C62.4377 35.5633 62.4377 37.0196 61.7095 38.1118C60.6174 40.2961 58.0689 41.7523 55.5205 41.7523ZM56.6126 32.6509C54.4283 32.6509 52.2441 33.7431 51.516 35.5634C51.0306 36.7769 50.9091 37.7477 51.1518 38.4758C51.8799 39.6894 52.8507 40.4175 54.0642 40.6602C56.6126 41.3883 59.5252 40.2961 60.6174 37.7477C61.1028 36.7769 61.2241 35.8061 60.9814 34.8353C60.496 33.8644 59.5252 33.1363 58.069 32.6509C57.5836 32.6509 57.0981 32.6509 56.6126 32.6509Z" fill="#000C2C"/>
<path d="M26.3974 27.1898L24.2131 24.2773L22.7568 25.0054C20.2084 25.0054 17.296 26.0976 16.2038 28.282C16.2038 28.5247 16.2038 28.8887 16.2038 29.3742L14.7475 30.1023L16.5678 32.6507C17.2959 33.3788 18.1454 33.8642 19.1162 34.1069C22.0287 34.835 25.3052 33.3788 26.3974 31.1944C27.1255 29.7382 27.1255 28.282 26.3974 27.1898Z" fill="#FFB727"/>
<path d="M19.1162 34.1067C20.0871 34.3494 20.9366 34.4708 21.6647 34.4708L16.932 27.5537C16.6893 27.7964 16.4465 28.0391 16.2038 28.2818C16.2038 28.7672 16.2038 29.1313 16.2038 29.374L14.7475 30.1021L16.5678 32.6505C17.2959 33.3786 18.1454 33.864 19.1162 34.1067Z" fill="white"/>
<path fill-rule="evenodd" clip-rule="evenodd" d="M20.9376 34.8347C20.2095 34.8347 19.6028 34.8347 19.1174 34.8347C17.9038 34.3493 16.933 33.7425 16.2049 33.0144L14.3846 30.466C14.3846 30.2233 14.3846 30.102 14.3846 30.102C14.3846 29.8593 14.3846 29.7379 14.3846 29.7379L15.4768 29.0098C15.7195 28.7671 15.8407 28.5244 15.8407 28.2817C16.9329 25.7333 19.8455 24.277 22.7579 24.6411L23.8501 23.913C24.0928 23.6703 24.3355 23.6703 24.5782 23.913L26.7625 27.1895C27.4906 28.2817 27.4907 30.102 27.1267 31.1941C26.0345 33.3785 23.486 34.8347 20.9376 34.8347ZM15.4768 30.102L16.9331 32.2863C17.6612 33.0144 18.5105 33.4998 19.4813 33.7425C22.0297 34.4707 24.9424 33.0144 26.0345 30.8301C26.5199 29.8592 26.5199 28.7671 26.0345 27.5536L24.2142 25.0051L23.1219 25.3692C22.8792 25.6119 22.7579 25.7333 22.7579 25.7333C20.2095 25.3692 17.6612 26.4614 16.9331 28.6457C16.6904 28.8884 16.5689 29.1311 16.5689 29.3739C16.5689 29.3739 16.4476 29.4952 16.2049 29.7379L15.4768 30.102Z" fill="#000C2C"/>
<path d="M22.3911 25.0054L26.7596 30.8304C27.1236 29.7382 27.1237 28.282 26.3956 27.1898L24.2113 24.2773L22.755 25.0054C22.391 25.0054 22.3911 25.0054 22.3911 25.0054Z" fill="#000C2C"/>
<path fill-rule="evenodd" clip-rule="evenodd" d="M26.762 31.1941C26.5193 31.1941 26.3981 31.1941 26.3981 31.1941L22.0293 25.3692C21.7866 25.1265 21.6653 25.0051 21.6653 25.0051C22.0294 24.6411 22.3935 24.6411 22.3935 24.6411C22.3935 24.6411 22.5148 24.6411 22.7575 24.6411L23.8496 23.913C24.0923 23.6703 24.3351 23.6703 24.5778 23.913L26.762 27.1895C27.4901 28.2817 27.4903 29.7379 27.1262 31.1941C27.1262 31.1941 27.0047 31.1941 26.762 31.1941ZM23.1214 25.3692L26.3981 29.7379C26.6408 29.0098 26.5195 28.2817 26.0341 27.5536L24.2138 25.0051L23.1214 25.3692Z" fill="#000C2C"/>
<path d="M24.5805 28.646C23.4883 30.8303 20.2118 32.2866 17.2994 31.5584C14.3869 30.8303 13.2948 28.2819 14.3869 25.7335C15.4791 23.1851 18.7556 22.0929 21.6681 22.821C24.5806 23.5492 25.6727 26.0976 24.5805 28.646Z" fill="#FFE2A9"/>
<path d="M21.6648 22.8212C19.8445 22.0931 18.0241 22.4571 16.5679 23.5493L18.3882 31.9226C20.9366 31.9226 23.485 30.4664 24.5772 28.6461C25.6694 26.0977 24.5772 23.5493 21.6648 22.8212Z" fill="white"/>
<path fill-rule="evenodd" clip-rule="evenodd" d="M18.7536 32.2864C18.2682 32.2864 17.7827 32.165 17.2972 31.9223C15.841 31.5583 14.3847 30.8302 14.0206 29.3739C13.2925 28.2818 13.2925 26.8255 14.0206 25.7334C15.1128 22.8209 18.7535 21.3647 21.666 22.0928C23.4863 22.4568 24.5784 23.549 25.3066 25.0052C25.6706 26.0974 25.6705 27.5536 24.9424 28.6458C23.8502 30.8301 21.302 32.2864 18.7536 32.2864ZM20.2097 22.8209C18.0253 22.8209 15.841 24.2771 14.7488 26.0974C14.2634 27.0682 14.2634 28.039 14.7488 29.0099C15.2342 29.9807 16.0837 30.7088 17.2972 31.1942C20.2097 31.9223 23.1223 30.4661 24.2144 28.2817C24.6998 27.3109 24.6998 26.3401 24.2144 25.3693C23.729 24.1557 22.8795 23.4276 21.666 23.1849C21.1806 22.9422 20.6951 22.8209 20.2097 22.8209Z" fill="#000C2C"/>
<path d="M44.6072 31.923L42.423 28.6465L40.9667 29.7387C38.4182 29.3746 35.8698 30.8308 34.7776 33.0152C34.5349 33.2579 34.4137 33.5006 34.4137 33.7433L32.9573 34.4714L35.1418 37.0198C35.6272 37.9906 36.4765 38.5974 37.69 38.8401C40.6025 39.5682 43.515 38.112 44.9712 35.5636C45.6993 34.4714 45.3353 33.0152 44.6072 31.923Z" fill="#FFB727"/>
<path d="M37.69 38.8402C38.4182 39.0829 39.1464 39.0829 39.8745 38.8402L35.1418 32.2871C34.8991 32.5298 34.7776 32.7725 34.7776 33.0152C34.5349 33.2579 34.4137 33.5006 34.4137 33.7433L32.9573 34.4715L35.1418 37.0199C35.6272 37.9907 36.4765 38.5975 37.69 38.8402Z" fill="white"/>
<path fill-rule="evenodd" clip-rule="evenodd" d="M39.1421 39.5685C38.6567 39.5685 38.0499 39.4472 37.3218 39.2045C36.1083 38.9617 35.2588 38.355 34.7734 37.3842L32.5891 34.8358C32.5891 34.8358 32.5891 34.7144 32.5891 34.4717C32.5891 34.4717 32.7104 34.3503 32.9531 34.1076L34.0452 33.3795C34.0452 33.1368 34.1667 32.8941 34.4094 32.6514C35.5016 30.4671 38.0499 29.0108 40.9624 29.3749L42.4187 28.2827C42.6614 28.2827 42.7827 28.4041 42.7827 28.6468L45.3311 31.5592C46.0593 33.0155 46.0593 34.4717 45.3311 35.9279C44.239 38.1123 41.6905 39.5685 39.1421 39.5685ZM33.6812 34.8358L35.5015 37.0201C35.9869 37.7482 36.715 38.2336 37.6858 38.4763C40.2342 38.8404 43.5108 37.7482 44.603 35.5639C45.0884 34.3503 44.9671 33.2582 44.239 32.2873L42.4187 29.3749L41.3264 30.103C41.3264 30.103 41.2051 30.103 40.9624 30.103C38.414 30.103 36.2297 31.1952 35.1376 33.3795C34.8949 33.3795 34.7734 33.6222 34.7734 34.1076L33.6812 34.8358Z" fill="#000C2C"/>
<path d="M40.6017 29.7389L44.9702 35.5638C45.6983 34.1076 45.3343 33.0154 44.9702 31.9232L42.422 29.0107L40.9657 29.7389C40.9657 29.7389 40.9657 29.7389 40.6017 29.7389Z" fill="#000C2C"/>
<path fill-rule="evenodd" clip-rule="evenodd" d="M44.9692 35.9279C44.7265 35.9279 44.6052 35.9279 44.6052 35.9279L40.2365 30.103C39.9938 29.8603 39.9938 29.6176 40.2365 29.3749H40.6007C40.8434 29.3749 40.9646 29.3749 40.9646 29.3749L42.421 28.2827C42.6637 28.2827 42.7849 28.4041 42.7849 28.6468L45.3334 31.5592C46.0615 33.0155 46.0615 34.4717 45.3334 35.5639C45.3334 35.8066 45.2119 35.9279 44.9692 35.9279ZM41.3286 30.103L44.9692 34.4717C44.9692 33.7436 44.7267 33.0155 44.2412 32.2873L42.421 29.3749L41.3286 30.103Z" fill="#000C2C"/>
<path d="M42.786 33.0148C41.6938 35.5632 38.4173 37.0194 35.5048 36.2913C32.9564 35.5632 31.5002 33.0148 32.5924 30.4664C34.0487 27.918 37.3252 26.4618 39.8736 27.1899C42.786 27.918 44.2422 30.4664 42.786 33.0148Z" fill="#FFE2A9"/>
<path d="M39.8733 27.1902C38.4171 26.8261 36.5969 27.1902 35.1406 27.9183L36.9609 36.2916C39.5093 36.6557 42.0576 35.1995 42.7858 33.0151C44.242 30.4667 42.7858 27.9183 39.8733 27.1902Z" fill="white"/>
<path fill-rule="evenodd" clip-rule="evenodd" d="M37.3237 37.0197C36.5956 37.0197 35.9889 36.8984 35.5034 36.6557C34.0472 36.2916 32.955 35.1994 32.2268 34.1073C31.4987 33.0151 31.8628 31.5589 32.2268 30.1026C33.6831 27.5542 36.9596 26.098 40.2362 26.8261C41.6924 27.1902 42.7846 28.2823 43.5128 29.3745C43.8768 30.4667 43.8768 31.9229 43.5128 33.3792C42.4206 35.5635 39.8721 37.0197 37.3237 37.0197ZM38.4159 27.5542C36.2315 27.5542 34.0473 28.6464 33.3192 30.4667C32.8338 31.6802 32.7123 32.7724 32.955 33.7432C33.4404 34.714 34.4112 35.3208 35.8674 35.5635C38.4158 36.2916 41.3285 35.1994 42.4206 33.0151C42.906 31.8016 43.0273 30.7094 42.7846 29.7386C42.2992 28.7678 41.3284 28.161 39.8722 27.9183C39.3868 27.6756 38.9013 27.5542 38.4159 27.5542Z" fill="#000C2C"/>
</svg>
