<svg width="16" height="17" viewBox="0 0 16 17" fill="none" xmlns="http://www.w3.org/2000/svg">
<path d="M9.846 15.9638L13.9923 13.3723L6.21784 0.933105L2.0715 3.5246C1.03491 4.21567 0.51659 5.42502 0.51659 7.15269C0.51659 10.2625 3.10804 14.4089 6.21784 15.9638C7.59997 16.6549 8.8094 16.6549 9.846 15.9638Z" fill="#FFE2A9"/>
<path d="M9.846 15.9638L13.9923 13.3723L6.21784 0.933105L2.0715 3.5246C1.03491 4.21567 0.51659 5.42502 0.51659 7.15269C0.51659 10.2625 3.10809 14.4089 5.69959 15.9638C7.42725 16.6549 8.8094 16.6549 9.846 15.9638Z" fill="white"/>
<path d="M2.07505 11.299C2.59335 13.3722 4.14818 14.9271 6.22138 15.9637C7.60351 16.6548 8.81294 16.6548 9.84954 15.9637L13.9959 13.3722L9.84954 6.63428L2.07505 11.299Z" fill="#FFB727"/>
<path fill-rule="evenodd" clip-rule="evenodd" d="M8.29283 17.0001C7.60176 17.0001 6.73793 16.8274 5.70133 16.4818C2.59153 14.9269 0 10.7805 0 7.15242C0 5.07922 0.518347 3.52435 2.07325 3.00605L6.21958 0.414551C6.21958 0.414551 6.39238 0.414551 6.73791 0.414551C6.73791 0.414551 6.73791 0.587309 6.73791 0.932843L14.5124 12.8537C14.5124 13.1992 14.5124 13.5448 14.5124 13.8903L9.84774 16.4818C9.50221 16.8274 8.98389 17.0001 8.29283 17.0001ZM6.21958 1.96943L2.5915 4.04263C1.5549 4.7337 1.03658 5.77029 1.03658 7.15242C1.03658 10.2622 3.62808 13.8903 6.21958 15.4452C7.60171 16.1363 8.63834 16.1363 9.32941 15.4452L13.4758 13.372L6.21958 1.96943Z" fill="#000C2C"/>
<path d="M5.69955 15.963C6.04508 15.963 6.2178 15.963 6.2178 15.963C7.59993 16.6541 8.80936 16.6541 9.84596 15.963L13.9923 13.3715L12.9557 11.2983L5.69955 15.963Z" fill="#000C2C"/>
<path fill-rule="evenodd" clip-rule="evenodd" d="M8.29279 16.9999C7.60172 16.9999 6.73789 16.8271 5.70129 16.4816C5.35575 16.136 5.18296 15.9633 5.18296 15.9633C5.18296 15.6177 5.35575 15.4449 5.70129 15.4449L12.4392 10.7803C12.7847 10.7803 13.1303 10.953 13.4758 11.2986L14.5124 12.8534C14.5124 13.199 14.5124 13.3718 14.5124 13.3718C14.5124 13.7173 14.5124 13.8901 14.5124 13.8901L9.8477 16.4816C9.50217 16.8271 8.98385 16.9999 8.29279 16.9999ZM7.2562 15.9633C7.94727 15.9633 8.6383 15.7905 9.32937 15.4449L13.4758 13.3718L12.9575 12.3351L7.2562 15.9633Z" fill="#000C2C"/>
<path d="M7.2545 1.9692L6.21784 0.932617L2.0715 3.52412C1.38044 3.86965 0.862123 4.73348 0.51659 6.11561L7.2545 1.9692Z" fill="#000C2C"/>
<path fill-rule="evenodd" clip-rule="evenodd" d="M0.518331 6.63413C0.172798 6.2886 0 6.11584 0 6.11584C0.345533 4.73371 1.03665 3.69712 2.07325 3.00605L6.21958 0.414551C6.56511 0.414551 6.73791 0.587309 6.73791 0.932842L7.7745 1.96943C7.7745 2.31496 7.60178 2.48772 7.25624 2.48772L1.03658 6.63413C1.03658 6.63413 0.863864 6.63413 0.518331 6.63413ZM6.21958 1.96943L2.5915 4.04263C2.24597 4.38817 2.07325 4.56092 2.07325 4.56092L6.21958 1.96943Z" fill="#000C2C"/>
<path d="M10.3679 13.3722C7.25813 11.8173 4.66668 7.67089 4.66668 4.56109C4.66668 1.4513 6.73988 -0.103595 9.84968 1.4513C12.9595 3.0062 15.0327 6.63428 15.0327 10.2624C15.551 13.3722 12.9594 14.9271 10.3679 13.3722Z" fill="#FFE2A9"/>
<path d="M10.3679 13.3722C7.25813 11.8173 4.66668 7.67089 4.66668 4.56109C4.66668 1.4513 6.73988 -0.103595 9.84968 1.4513C12.9595 3.0062 15.0327 6.63428 15.0327 10.2624C15.551 13.3722 12.9594 14.9271 10.3679 13.3722Z" fill="white"/>
<g opacity="0.9">
<path fill-rule="evenodd" clip-rule="evenodd" d="M12.4426 14.4087C11.7516 14.4087 10.8877 14.236 9.85112 13.8904C6.74133 12.3355 4.1498 8.18911 4.1498 4.56102C4.1498 2.83335 4.66811 1.45124 5.70471 0.414643C7.08684 -0.276424 8.64171 -0.103665 10.3694 0.932934C12.9609 2.48783 15.5524 6.63421 15.5524 10.2623C15.8979 11.99 15.3796 13.1994 13.9975 13.8904C13.6519 14.236 13.1337 14.4087 12.4426 14.4087ZM10.3694 12.8538C11.7515 13.5449 12.7881 13.5449 13.4792 12.8538C14.1703 12.5083 14.5158 11.6444 14.5158 10.2623C14.5158 7.15251 12.4426 3.52442 9.33279 1.96952C8.29619 1.27845 7.43236 1.10569 6.74129 1.45123C5.70469 2.14229 5.18638 3.17888 5.18638 4.56102C5.70468 7.67081 7.77788 11.2989 10.3694 12.8538Z" fill="#000C2C"/>
</g>
</svg>
