<svg width="30" height="45" viewBox="0 0 30 45" fill="none" xmlns="http://www.w3.org/2000/svg">
<path d="M28.3314 32.3724L14.7022 3.33609C13.9121 1.75589 12.9245 0.96582 11.7393 0.96582H5.22113C6.40628 0.96582 7.39391 1.75589 8.18402 3.33609L22.4057 32.3724C23.5908 35.3353 22.9982 39.4833 21.2204 41.8536C20.4303 43.0388 19.6404 43.6314 18.8503 43.6314L24.7761 44.224C25.9613 44.224 26.9489 43.6314 27.739 42.4462C29.5167 39.4833 29.5166 35.3353 28.3314 32.3724Z" fill="#FFE2A9"/>
<path fill-rule="evenodd" clip-rule="evenodd" d="M24.7784 44.8168H18.8527C18.4576 44.8168 18.2599 44.4218 18.2599 43.6317C18.2599 43.2366 18.4576 43.0392 18.8527 43.0392C19.6428 43.0392 20.2353 42.644 20.6303 41.8539C22.4081 39.4836 22.4079 35.3356 21.2228 32.3728L7.59356 3.33642C6.80346 2.54632 6.01357 2.15128 5.22347 2.15128C5.22347 1.55871 4.63068 1.55873 4.63068 0.966149C4.63068 0.373571 5.22347 0.373535 5.22347 0.373535C5.61852 0.373535 5.8159 0.373535 5.8159 0.373535H11.7417C12.9268 0.373535 14.1118 1.55869 15.297 3.33642L28.9266 31.7801C30.7043 35.3356 30.1115 40.0763 28.3338 43.0392C27.5437 44.2243 26.3587 44.8168 24.7784 44.8168ZM21.8156 43.0392H24.7784C25.371 43.6317 26.556 43.0391 27.1485 41.8539C28.3337 39.4836 28.9265 35.3356 27.7413 32.9653L13.5193 3.92903C13.1243 2.74388 12.5318 2.15128 11.7417 2.15128H8.18636C8.58141 2.15128 8.77879 2.34885 8.77879 2.7439L23.0008 31.7801C24.1859 34.743 24.1857 39.4837 22.408 42.4466C22.0129 42.8416 21.8156 43.0392 21.8156 43.0392Z" fill="#000C2C"/>
<path d="M24.7786 43.6314C25.9637 43.6314 26.9513 43.0388 27.7414 41.8537C28.5315 41.0636 28.9267 40.2735 28.9267 39.4834H23.0009C22.6058 40.2735 22.2107 41.0636 21.8157 41.8537C21.0256 43.0388 20.0379 43.6314 18.8528 43.6314H24.7786Z" fill="#000C2C"/>
<path d="M22.4123 32.3729L8.1907 3.33657C7.00555 0.373686 4.04267 0.373741 2.26493 2.74405C0.487203 5.70694 0.486986 9.85496 1.67214 12.8178L15.8941 41.8541C17.0793 44.817 19.4494 44.817 21.2271 41.8541C23.0048 39.4838 23.5975 35.3358 22.4123 32.3729Z" fill="#FFB727"/>
<path d="M22.4123 32.3729L8.1907 3.33657C7.00555 0.373686 4.04267 0.373741 2.26493 2.74405C0.487203 5.70694 0.486986 9.85496 1.67214 12.8178L15.8941 41.8541C17.0793 44.817 19.4494 44.817 21.2271 41.8541C23.0048 39.4838 23.5975 35.3358 22.4123 32.3729Z" fill="white"/>
<path fill-rule="evenodd" clip-rule="evenodd" d="M18.8508 44.8167C18.4557 44.8167 18.258 44.8167 18.258 44.8167C17.0728 44.8167 15.8878 43.8291 14.7026 41.8538L1.07344 12.8176C-0.704289 9.85467 -0.111857 5.11403 1.66587 2.15115C2.85103 0.57094 4.23378 -0.0216551 5.81399 0.373396C6.99914 0.373396 7.98677 1.16355 8.77687 2.74376L22.9989 31.78C24.184 34.7429 24.1838 39.4835 22.4061 42.4464C21.2209 44.0266 20.0359 44.8167 18.8508 44.8167ZM5.22155 2.15115C4.43145 2.15115 3.83859 2.54618 3.44353 3.33628C1.6658 5.70659 1.07351 9.85463 2.25867 12.2249L16.4803 41.2613C16.8754 42.4464 17.4679 43.039 18.258 43.039C19.0481 43.039 19.8383 42.6439 20.6284 41.8538C22.4061 39.4835 22.406 35.3355 21.2208 32.3726L7.59165 3.33628C6.80154 2.54618 6.01166 2.15115 5.22155 2.15115Z" fill="#000C2C"/>
</svg>
