<svg width="37" height="39" viewBox="0 0 37 39" fill="none" xmlns="http://www.w3.org/2000/svg">
<path d="M21.4543 3.73086L20.988 11.6594L25.6518 9.32749V6.06277C25.6518 4.81908 25.3409 4.04178 24.719 3.73086L20.5215 0.932617C21.4542 1.55446 21.7652 2.48718 21.4543 3.73086Z" fill="#FFE2A9"/>
<path fill-rule="evenodd" clip-rule="evenodd" d="M20.9897 12.1261C20.6788 12.1261 20.5232 12.1261 20.5232 12.1261C20.2123 12.1261 20.0569 11.9707 20.0569 11.6597L20.9897 3.26487C20.9897 2.33211 20.8341 1.71023 20.5232 1.39931C20.0568 1.39931 20.0569 0.932939 20.0569 0.466558C20.5233 0.466558 20.9897 0.000176698 20.9897 0.466558L25.187 2.79846C26.1198 3.73123 26.5864 4.66397 26.5864 6.06312L26.1198 9.79418C26.1198 9.79418 25.9645 9.94967 25.6536 10.2606L20.9897 12.1261ZM22.3888 2.79846C22.3888 3.10938 22.3888 3.42029 22.3888 3.73121L21.456 10.7269L24.7207 8.86143L25.187 6.06312C25.187 5.13036 24.8763 4.50854 24.2545 4.19762L22.3888 2.79846Z" fill="#000C2C"/>
<path d="M23.3176 31.2477L24.2504 23.3193L31.7124 20.0545C34.0443 18.6554 35.91 15.8571 35.91 13.5252C36.2209 11.9706 35.9099 11.0378 34.9771 10.7269L31.2461 8.39502C31.868 8.70594 32.1787 9.48324 32.1787 10.7269C31.7123 13.0588 29.8468 16.3235 27.5149 17.2563L20.0529 20.521L19.5866 28.9158C19.1202 31.2477 17.2547 34.046 14.9228 34.9788C13.6791 35.6006 12.7462 35.6006 12.1243 34.9788L16.3219 37.777C16.9437 38.3989 17.8764 38.3989 19.1201 37.777C21.452 36.8443 23.3176 34.046 23.3176 31.2477Z" fill="#FFE2A9"/>
<path fill-rule="evenodd" clip-rule="evenodd" d="M17.7205 38.7099C17.0986 38.7099 16.4767 38.5545 15.8548 38.2436L11.6576 35.9117C11.6576 35.4453 11.1912 34.9789 11.6576 34.9789C11.6576 34.5126 12.124 34.5125 12.5904 34.5125C13.2122 34.8234 13.8339 34.8234 14.4557 34.5125C16.7876 33.5798 18.6533 30.7815 18.6533 28.4496L19.5861 20.5211C19.5861 20.2102 19.5861 20.0547 19.5861 20.0547L27.0481 16.79C29.38 15.3909 31.2456 13.059 31.2456 10.7271C31.2456 9.79429 31.09 9.17248 30.7791 8.86156C30.3127 8.39518 30.3128 7.92881 30.3128 7.92881C30.7792 7.46243 31.2456 7.4624 31.2456 7.4624L35.4429 10.2607C36.3756 10.7271 36.842 12.1262 36.842 13.5254C36.3756 16.3237 34.5102 19.1219 31.7119 20.5211L24.7162 23.7857L24.2499 31.2479C23.7835 34.0462 21.9178 37.3108 19.1195 38.2436C18.4977 38.5545 18.0314 38.7099 17.7205 38.7099ZM14.4557 35.9117L16.7876 37.3108C17.0986 37.6218 17.7205 37.6218 18.6533 37.3108C20.9852 36.3781 22.8505 33.5798 22.8505 31.2479L23.3171 23.3194C23.628 23.0085 23.7834 22.853 23.7834 22.853L31.2456 19.1219C33.1111 18.1892 35.4429 15.3909 35.4429 13.5254C35.4429 12.2817 35.1319 11.5044 34.5101 11.1935L32.6447 10.2607C32.6447 10.2607 32.6447 10.4161 32.6447 10.7271C32.1783 13.5253 30.3128 16.79 27.9809 17.7228L20.5186 20.9875L20.0524 28.916C20.0524 31.7143 17.7205 34.5125 15.3885 35.9117C15.0776 35.9117 14.7666 35.9117 14.4557 35.9117Z" fill="#000C2C"/>
<path d="M12.1272 24.252L4.66519 27.983C3.42151 28.2939 2.48858 28.2939 1.86673 27.983L6.06428 30.7813C6.68612 31.0922 7.61877 30.9368 8.86245 30.3149L11.6609 29.3821L12.1272 24.252Z" fill="white"/>
<path fill-rule="evenodd" clip-rule="evenodd" d="M6.99539 31.2478C6.68447 31.2478 6.21814 31.2478 5.5963 31.2478L1.39876 28.4495C1.08784 28.1385 1.08784 27.8276 1.39876 27.5167C1.70968 27.2058 2.02065 27.2058 2.33158 27.5167C2.6425 27.8276 3.26417 27.8276 4.19693 27.5167L11.6592 23.7856C11.9701 23.7856 12.1255 23.7856 12.1255 23.7856C12.4364 24.0966 12.592 24.2521 12.592 24.2521L12.1255 29.3822C12.1255 29.3822 11.9701 29.5377 11.6592 29.8486L8.86074 31.2478C8.2389 31.2478 7.61723 31.2478 6.99539 31.2478ZM4.19693 28.4495L6.52883 30.315C6.83976 30.6259 7.46171 30.4705 8.39447 29.8486L11.1926 28.9159V25.1848L4.66348 28.4495C4.35256 28.4495 4.19693 28.4495 4.19693 28.4495Z" fill="#000C2C"/>
<path d="M19.5833 28.916L20.0495 20.5211L27.5115 17.2565C29.8434 16.3237 31.709 13.059 32.1753 10.7271C32.1753 8.39518 30.7763 6.99608 28.4443 7.92884L20.9824 11.6599L21.4486 3.26503C21.915 0.933121 20.0495 0.000358999 17.7176 0.933121C15.8521 1.86588 13.5201 4.66414 13.5201 7.46243L12.5876 15.3909L5.12529 18.6556C3.25977 20.0548 0.928031 22.853 0.928031 25.1849C0.46165 27.5168 2.32712 28.916 4.65902 27.9832L12.121 24.2522L11.1882 32.6471C11.1882 34.979 12.5876 36.3781 14.9195 34.979C17.2514 34.0462 19.1169 31.2479 19.5833 28.916Z" fill="#FFB727"/>
<path d="M19.5833 28.916L20.0495 20.5211L27.5115 17.2565C29.8434 16.3237 31.709 13.059 32.1753 10.7271C32.1753 8.39518 30.7763 6.99608 28.4443 7.92884L20.9824 11.6599L21.4486 3.26503C21.915 0.933121 20.0495 0.000358999 17.7176 0.933121C15.8521 1.86588 13.5201 4.66414 13.5201 7.46243L12.5876 15.3909L5.12529 18.6556C3.25977 20.0548 0.928031 22.853 0.928031 25.1849C0.46165 27.5168 2.32712 28.916 4.65902 27.9832L12.121 24.2522L11.1882 32.6471C11.1882 34.979 12.5876 36.3781 14.9195 34.979C17.2514 34.0462 19.1169 31.2479 19.5833 28.916Z" fill="white"/>
<path fill-rule="evenodd" clip-rule="evenodd" d="M13.5249 36.3777C12.903 36.3777 12.2814 36.2223 11.6595 35.9114C10.7268 34.9786 10.4158 33.8904 10.7267 32.6467L11.193 25.651L4.66381 28.4493C3.42013 29.0711 2.33185 29.0711 1.39909 28.4493C0.466324 27.8274 0 26.7392 0 25.1846C0.466381 22.3863 2.79817 19.588 5.13008 18.1889L12.1258 14.9242L12.5923 7.4621C13.0587 4.66381 14.9241 1.39914 17.7224 0.466381C18.9661 -0.15546 20.0544 -0.15546 20.9872 0.466381C21.9199 1.08822 22.3862 2.17643 22.3862 3.73104L21.92 10.2604L27.9829 7.4621C29.2266 6.84026 30.3148 6.84026 31.2476 7.4621C32.1804 8.08394 32.6467 9.17215 32.6467 10.7268C32.6467 13.525 30.3148 16.7897 27.9829 17.7225L20.9872 20.9872L20.0543 28.9157C20.0543 31.7139 17.7224 34.5122 15.3905 35.9114C14.7687 36.2223 14.1467 36.3777 13.5249 36.3777ZM12.1258 23.7854C12.4367 24.0964 12.5923 24.2518 12.5923 24.2518L12.1258 32.6467C11.8149 33.5795 11.9705 34.2013 12.5923 34.5122C13.2142 34.8231 13.8359 34.8231 14.4577 34.5122C16.7896 33.5795 18.6552 30.7812 18.6552 28.4493L19.5881 20.5208C19.5881 20.2099 19.7434 20.0544 20.0543 20.0544L27.0501 16.3234C29.382 15.3906 31.2476 13.0587 31.2476 10.7268C31.2476 9.79399 31.092 9.17218 30.781 8.86126C30.1592 8.55034 29.3819 8.55034 28.4491 8.86126L20.9872 12.1259C20.9872 12.4368 20.8315 12.4368 20.5206 12.1259C20.2097 12.1259 20.0543 11.9705 20.0543 11.6596L20.9872 3.2647C20.9872 2.33193 20.8315 1.71005 20.5206 1.39913C19.8988 1.08821 19.1215 1.08821 18.1887 1.39913C16.3232 2.33189 14.4578 5.13019 13.9914 7.4621L13.5249 15.3906C13.5249 15.7015 13.3695 15.857 13.0586 15.857L5.59663 19.588C3.73111 20.5208 1.86547 23.3191 1.39909 25.1846C1.39909 26.1174 1.71006 26.8947 2.33191 27.5165C2.64283 27.8274 3.2645 27.6719 4.19726 27.0501L11.6595 23.7854C11.6595 23.7854 11.8149 23.7854 12.1258 23.7854Z" fill="#000C2C"/>
<path d="M16.7859 37.7765C17.4077 38.0874 18.185 38.0874 19.1178 37.7765C19.7397 37.4656 20.3616 36.9992 20.9834 36.3773L16.7859 33.5791C16.475 34.2009 16.0087 34.6673 15.3868 34.9783C14.1431 35.2892 13.2105 35.2892 12.5886 34.9783L16.7859 37.7765Z" fill="#000C2C"/>
<path d="M2.79646 28.4489L6.99401 30.7808H7.92683L11.6578 29.3816L12.1241 24.2515L4.6621 27.9825L2.79646 28.4489Z" fill="#000C2C"/>
<path d="M20.058 20.5205L24.2556 23.3188L31.2513 20.0541L27.0538 17.2559L20.058 20.5205Z" fill="#000C2C"/>
</svg>
