<svg width="74" height="73" viewBox="0 0 74 73" fill="none" xmlns="http://www.w3.org/2000/svg">
<path d="M3.56477 18.9842C6.39817 13.8841 11.4982 13.3174 14.6149 13.3174C14.8983 13.3174 16.8816 13.6008 16.8816 13.6008L23.1151 13.8841C23.9651 10.7674 25.6652 7.36729 27.9319 4.5339C33.8821 -2.5496 40.1155 3.1172 40.1155 3.1172C40.6822 3.68388 41.1544 4.25055 41.5322 4.81723L50.0324 16.7175C50.8824 18.1342 52.5825 19.2676 53.9992 19.8343L67.3162 24.0844C69.2996 24.651 70.9996 26.3511 71.8496 27.7678C71.8496 27.7678 72.4163 28.6178 72.4163 29.7511H72.6996C72.6996 29.7511 74.683 35.4179 69.5829 40.518C68.4496 41.6514 66.7495 43.3515 65.3328 44.4848L69.2995 54.1184C69.2995 54.1184 71.5662 58.3685 68.4495 62.6186C65.3328 67.152 60.2326 73.3855 55.6992 70.8354C51.1658 68.2853 49.1824 62.9019 49.1824 62.9019L48.3324 48.4516C47.7658 48.4516 47.1046 48.4516 46.349 48.4516L36.4321 51.8516C33.3154 52.7017 28.782 49.3016 28.4986 45.9015L27.6487 34.5679C27.6487 33.4346 26.7985 32.0179 25.9485 30.8845L12.6315 31.1678L3.28132 31.7345C3.28132 31.7345 -0.96867 26.6344 3.56477 18.9842Z" fill="#FFE2A9"/>
<path d="M3.56477 18.9841C6.39817 14.1673 11.4982 13.6006 14.6149 13.6006C14.8983 13.6006 16.8816 13.884 16.8816 13.884L23.1151 14.1673C23.9651 11.0506 25.6652 7.36716 27.9319 4.8171C33.8821 -2.2664 40.1155 3.4004 40.1155 3.4004C40.6822 3.77819 41.1544 4.34486 41.5322 5.10044L50.0324 17.0007C50.8824 18.4174 52.5825 19.5508 53.9992 20.1175L67.3162 24.3676C69.2996 24.9342 70.9996 26.6343 71.8496 28.051C71.8496 28.051 72.133 28.901 72.4163 29.751C72.4163 29.751 74.683 35.7012 69.5829 40.8013C68.1662 41.9346 66.7495 43.6347 65.3328 44.768L69.2995 54.4016C69.2995 54.4016 71.5662 58.6517 68.4495 62.9018C65.3328 67.1519 60.2326 73.6687 55.6992 71.1186C51.1658 68.5686 48.8991 63.1851 48.8991 63.1851L48.3324 48.7348C47.5769 48.5459 46.9157 48.5459 46.349 48.7348L36.4321 52.1349C33.3154 52.9849 28.782 49.5848 28.4986 46.1847L27.6487 34.8511C27.6487 33.4344 26.7986 32.3011 25.6652 31.1677L12.6315 31.4511L3.28132 31.7344C3.28132 31.7344 -0.96867 26.9176 3.56477 18.9841Z" fill="white"/>
<path fill-rule="evenodd" clip-rule="evenodd" d="M57.6848 72.535C56.9292 72.535 56.0791 72.2516 55.1347 71.685C50.3179 69.1349 48.3345 63.4681 48.0512 63.1848C48.0512 63.1848 48.0512 63.0904 48.0512 62.9015L47.4846 49.3011C47.2957 49.3011 47.0122 49.3956 46.6345 49.5845L36.7176 52.7012C35.0175 53.2679 33.0342 52.7012 31.3342 51.5678C29.0675 50.1511 27.6508 47.8844 27.6508 45.901L26.8007 34.5675C26.8007 33.7174 26.234 32.8674 25.384 31.7341L12.6337 32.0174L3.2835 32.5841C3.00016 32.5841 2.71685 32.5841 2.43351 32.3007C2.43351 32.0174 -2.1 26.6339 2.71678 18.4171C5.17239 14.4503 9.04481 12.467 14.3338 12.467C14.5227 12.467 14.6171 12.467 14.6171 12.467C14.9004 12.467 16.0338 12.467 16.6005 12.7503L22.5506 13.0336C23.6839 9.25576 25.2896 6.23348 27.3674 3.96676C29.2563 1.51115 31.4286 0.188893 33.8842 0C37.8509 0 40.6844 2.26672 40.6844 2.55006C41.44 3.11674 42.0066 3.68342 42.3844 4.2501L50.8846 16.1504C51.7346 17.2837 53.1513 18.4171 54.2847 18.9838L67.6017 23.2339C69.5851 23.8005 71.5684 25.5006 72.7018 27.484C72.7018 27.484 73.2684 28.334 73.5517 29.4673C73.5517 29.7507 75.5353 35.9842 70.1518 41.0843L69.3017 42.2176C68.3572 42.9732 67.4127 43.8232 66.4682 44.7677L70.1518 53.8345C70.1518 53.8345 72.7017 58.6513 69.3017 63.1848C67.3183 65.7348 62.7849 72.535 57.6848 72.535ZM50.0346 62.6181C50.3179 63.4681 52.3014 68.0015 55.9848 70.2683C58.8182 71.7794 62.6905 69.1349 67.6017 62.3347C70.4351 58.368 68.4517 54.6846 68.4517 54.6846L64.485 45.051C64.2017 44.4844 64.4849 44.201 64.7683 43.9177C65.9016 42.7843 67.0349 41.651 67.8849 40.8009L68.7351 39.9509C73.2685 35.7008 71.8518 30.6007 71.8518 30.034C71.6629 30.034 71.5685 29.9396 71.5685 29.7507C71.5685 29.184 71.2851 28.6173 71.0018 28.334C70.1518 26.9173 68.735 25.5006 67.035 24.9339L53.718 20.6838C52.0179 20.1171 50.3179 18.7004 49.1846 17.2837L40.9677 5.38346C40.5899 4.81678 40.1176 4.34455 39.551 3.96676C39.3621 3.77787 39.2677 3.6834 39.2677 3.6834C38.701 3.11673 36.4343 1.70003 34.1676 1.98337C32.0898 2.17226 30.2952 3.21117 28.7841 5.1001C26.7063 7.36682 25.1006 10.3891 23.9673 14.167C23.9673 14.7337 23.4006 15.017 23.1173 15.017L16.3172 14.4503C16.0339 14.4503 14.9004 14.4503 14.6171 14.4503C14.6171 14.4503 14.5227 14.4503 14.3338 14.4503C9.61149 14.4503 6.30586 16.0559 4.41692 19.2671C0.733507 25.2172 3.00019 29.4673 3.85021 30.6007L12.6337 30.3174L25.6674 30.034C26.0452 30.034 26.3285 30.1285 26.5174 30.3174C27.9341 31.4507 28.5007 33.1508 28.7841 34.5675L29.3508 45.901C29.6341 47.3177 30.7675 48.7344 32.1842 49.8678C33.6009 51.0012 35.0177 51.2845 36.151 51.0012L46.0679 47.6011C46.8235 47.4122 47.6734 47.4122 48.6179 47.6011C48.9012 47.6011 49.4679 48.1678 49.4679 48.4511L50.0346 62.6181Z" fill="#000C2C"/>
<path d="M58.5335 71.4019C62.2169 70.8352 65.9003 66.0184 68.4504 62.6183C70.7171 59.7849 70.1505 56.6682 69.5838 55.2515C69.0172 58.0849 59.6669 67.1518 59.6669 67.1518L58.5335 71.4019Z" fill="#000C2C"/>
<path fill-rule="evenodd" clip-rule="evenodd" d="M58.5315 72.2514C58.3426 72.2514 58.1537 72.157 57.9648 71.9681C57.7759 71.7792 57.6815 71.4959 57.6815 71.1181L58.815 66.868C58.815 66.6791 58.9093 66.4902 59.0982 66.3013C62.4983 62.9012 68.1652 56.9511 68.7319 54.9677C68.7319 54.6844 69.2985 54.401 69.5818 54.1177C69.8652 54.401 70.4318 54.401 70.4318 54.9677C70.9985 56.6677 71.5651 59.7845 69.2984 63.1845C65.3316 68.8513 61.9317 71.6847 58.815 72.2514C58.815 72.2514 58.7204 72.2514 58.5315 72.2514ZM60.5149 67.4346L59.9482 69.9847C62.2149 68.8514 64.765 66.3013 67.5984 62.3345C68.7318 60.6345 69.0151 59.2178 69.0151 58.0844C66.4651 61.4845 61.6483 66.3013 60.5149 67.4346Z" fill="#000C2C"/>
<path d="M48.0525 48.7347C48.2414 48.7347 48.4304 48.7347 48.6193 48.7347V51.5681L54.286 52.9849L65.3364 44.768C67.0364 43.3513 68.4531 41.9346 69.5865 40.8012C74.6866 35.7011 72.7031 29.751 72.7031 29.751L61.3695 39.3845L48.0525 48.7347Z" fill="#000C2C"/>
<path fill-rule="evenodd" clip-rule="evenodd" d="M54.2851 53.8343C54.0962 53.8343 54.0019 53.8343 54.0019 53.8343L48.3351 52.4176C48.0517 52.1343 47.7683 51.8509 47.7683 51.5676L47.4851 49.5842C47.2962 49.3953 47.2016 49.2064 47.2016 49.0175C46.9183 48.4508 47.2017 48.1675 47.4851 47.8842L60.8019 38.5339C67.8854 32.5838 70.7188 30.0338 72.1355 29.4671L71.8522 29.1837C72.23 28.9948 72.5133 28.9004 72.7022 28.9004C72.8911 28.9004 72.9857 28.9004 72.9857 28.9004C72.9857 28.9004 73.08 28.9948 73.2689 29.1837C73.2689 29.1837 73.3633 29.2782 73.5522 29.4671C73.5522 29.7504 75.8191 35.9839 70.1523 41.3673L69.3021 42.2174C68.1687 43.3507 67.0355 44.4841 65.9022 45.6174L54.8518 53.8343C54.6629 53.8343 54.474 53.8343 54.2851 53.8343ZM49.4683 50.7176L54.0019 51.8509L64.7687 43.9174C65.9021 43.0674 67.0354 41.934 67.8854 41.084L69.0188 40.234C72.1356 36.8339 72.4188 33.4338 72.1355 31.4505C69.0188 34.0005 61.9353 39.9506 61.9353 39.9506L49.4683 48.7342V50.7176Z" fill="#000C2C"/>
<path d="M3.56342 18.7002C1.01337 22.9503 1.2966 26.3504 1.86328 28.3338L5.26339 26.0671C5.26339 26.0671 5.26339 19.5502 12.3469 13.6001C9.23015 13.8834 5.83014 15.0168 3.56342 18.7002Z" fill="#000C2C"/>
<path fill-rule="evenodd" clip-rule="evenodd" d="M1.86462 29.4674C1.67573 29.4674 1.4868 29.3729 1.2979 29.184C1.10901 29.184 1.01463 28.9951 1.01463 28.6173C0.0701678 25.4062 0.636778 22.0061 2.7146 18.4171C4.69798 15.017 7.81486 13.0337 12.065 12.7503C12.6316 12.467 12.9149 12.7503 13.1982 13.317C13.1982 13.6003 13.1983 13.8837 12.9149 14.167C6.39813 20.1172 6.11472 26.0673 6.11472 26.0673C6.11472 26.4451 6.02034 26.7284 5.83145 26.9173L2.14806 29.184C2.14806 29.3729 2.05351 29.4674 1.86462 29.4674ZM4.41475 19.2671C2.71471 21.9116 2.05355 24.4617 2.43133 26.9173L4.41475 25.7839C4.41475 24.0839 5.2648 19.8338 9.23156 15.017C7.15373 15.9615 5.54811 17.3782 4.41475 19.2671Z" fill="#000C2C"/>
<path d="M23.6813 15.8666L20.5646 25.5002C20.2813 26.6336 19.1479 27.2002 17.7312 27.2002L5.26421 26.3502C1.58079 26.0669 1.29742 30.0336 4.6975 33.1504L15.7478 43.3506C17.1645 44.484 18.0144 46.184 18.2978 47.3174L18.8645 58.651C19.1478 62.051 23.6812 65.7344 26.798 64.6011L36.9983 61.4844C38.1317 60.9177 39.8317 61.4843 41.2484 62.3344L53.9987 70.2679C57.9655 72.5346 61.0822 70.5512 59.6655 67.1512L54.5654 54.9675C53.9987 53.2675 53.9987 52.1341 54.8487 51.2841L62.2155 44.7673C64.1988 42.7839 61.6488 38.2505 57.6821 36.8338L44.6485 32.5837C42.9485 32.017 41.5318 30.8837 40.3984 29.467L32.1815 17.5667C29.6314 14.1666 24.5313 13.0332 23.6813 15.8666Z" fill="#FFB727"/>
<path d="M57.6833 36.8338L44.6497 32.5837C42.9497 32.017 41.533 30.8837 40.3996 29.467L32.1827 17.5667C29.6326 14.1666 24.5325 13.0332 23.6825 15.8666L21.9825 20.9668L31.616 63.1844L36.9995 61.4844C38.1329 60.9177 39.8329 61.4843 41.2496 62.3344L53.9999 70.2679C57.9667 72.5346 61.0834 70.5512 59.6667 67.1512L54.5666 54.9675C53.9999 53.2675 53.9999 52.1341 54.8499 51.2841L62.2167 44.7673C64.2 42.7839 61.65 38.2505 57.6833 36.8338Z" fill="white"/>
<path fill-rule="evenodd" clip-rule="evenodd" d="M57.4001 72.2516C56.0779 72.2516 54.7555 71.8738 53.4333 71.1183L40.683 63.1847C39.5496 62.3347 38.1329 62.0514 37.2829 62.3347L27.0827 65.4515C25.666 66.0181 23.3992 65.7348 21.6992 64.3181C19.4325 62.9014 18.0158 60.918 18.0158 58.9346L17.1658 47.601C17.1658 46.4677 16.3158 45.051 15.1824 43.9176L3.8488 33.7174C1.86542 31.734 0.732098 29.1839 1.58212 27.4839C2.1488 26.0672 3.56546 25.2172 5.2655 25.5005L17.7325 26.3505C18.2992 26.3505 19.4324 26.3506 19.7158 25.2172L22.8326 15.5836C23.1159 14.4503 24.2493 13.6003 25.666 13.3169C27.9327 13.0336 31.0495 14.7336 32.7495 17.2837L41.2497 28.9006C42.0997 30.3173 43.5164 31.1673 44.9331 31.734L57.9666 35.9841C60.8 36.8341 63.0668 39.3842 63.6334 41.9342C63.9168 43.3509 63.6335 44.7676 62.7835 45.6177L55.7 51.8511C55.1333 52.4178 54.85 53.2679 55.4167 54.4012L60.5168 66.5848C61.3668 68.5682 61.0834 70.2682 59.9501 71.4016C59.1945 71.9683 58.3446 72.2516 57.4001 72.2516ZM37.8496 60.3513C38.9829 60.3513 40.3997 60.6347 41.8164 61.4847L54.5667 69.4182C56.2667 70.5516 57.9667 70.5516 58.5334 69.9849C59.1 69.4182 59.3835 68.5682 58.8168 67.4348L53.7165 55.2512C52.8665 53.2678 53.1499 51.5678 54.2833 50.7178L61.6502 44.201C62.028 43.8232 62.1224 43.2565 61.9335 42.5009C61.6501 40.8009 59.9502 38.5342 57.4001 37.9675L44.3664 33.434C42.383 32.8674 40.6829 31.734 39.5496 30.034L31.3328 18.1337C29.9161 16.1503 27.366 15.017 25.9493 15.3003C25.1937 15.3003 24.7215 15.5836 24.5326 16.1503L21.4159 25.7839C21.1326 27.4839 19.4326 28.0506 17.7325 28.0506L5.2655 27.2006C4.41548 27.2006 3.56543 27.2006 3.28209 28.0506C2.99875 28.9006 3.56546 30.884 5.2655 32.3007L16.5991 42.5009C18.0158 43.9176 18.8659 45.901 19.1492 47.3177L19.7158 58.6513C19.9991 60.068 21.1325 61.7681 22.5492 62.9014C23.9659 63.7514 25.3826 64.0347 26.516 63.7514L36.7162 60.6347C37.0939 60.4458 37.4718 60.3513 37.8496 60.3513Z" fill="#000C2C"/>
</svg>
