<svg width="181" height="38" viewBox="0 0 181 38" fill="none" xmlns="http://www.w3.org/2000/svg"><g clip-path="url(#clip0)"><path d="M30.6845 0H15.7891C12.2142 0 9.32025 2.89396 9.32025 6.46885V8.12862H22.5559C26.1307 8.12862 29.0247 11.0226 29.0247 14.5975V27.8756H30.6845C34.2594 27.8756 37.1533 24.9817 37.1533 21.4068V6.46885C37.1533 2.89396 34.2594 0 30.6845 0Z" fill="#9B6AFA"/><path d="M15.7891 27.8758C14.6826 27.8758 13.6186 27.5778 12.6823 27.0672H12.7249H12.6823C12.1716 26.7692 11.7035 26.4288 11.2779 26.0458L11.1077 25.8755C10.7247 25.4499 10.3416 24.9818 10.0863 24.4711C9.57559 23.5348 9.27769 22.4709 9.27769 21.3644V13.9592H6.46885C2.89396 13.9592 0 16.8532 0 20.4281V30.6846C0 34.2595 2.89396 37.1534 6.46885 37.1534H16.7254C20.3003 37.1534 23.1942 34.2595 23.1942 30.6846V27.8758H15.7891Z" fill="#28D9EC"/><path d="M18.7256 13.9592H9.27771V21.4069C9.27771 22.5134 9.57562 23.5774 10.0863 24.5137C9.66073 23.7476 9.83097 22.8113 10.4268 22.2155L18.7256 13.9592Z" fill="#3D6AFF"/><path d="M14.9379 26.7265C14.3421 27.3223 13.4058 27.4926 12.6398 27.067C13.5761 27.5777 14.64 27.8756 15.7465 27.8756H23.1942V18.4702L14.9379 26.7265Z" fill="#3D6AFF"/><path d="M46.4736 27.8757L56.1768 4.63892H59.7092L69.4124 27.8757H65.0289L63.1138 23.2368H52.7722L50.8571 27.8757H46.4736ZM54.0489 19.8322H61.7945L57.9217 10.3843L54.0489 19.8322Z" fill="#202A44"/><path d="M76.6047 34.3019H72.6042V11.0651H76.6047V13.4909C76.9026 12.6823 77.4984 12.0014 78.4773 11.4907C79.4136 10.98 80.6052 10.7246 81.9671 10.7246C84.3503 10.7246 86.3505 11.5758 87.9678 13.2355C89.585 14.8953 90.3936 16.9807 90.3936 19.4916C90.3936 22.0025 89.585 24.0453 87.9678 25.7477C86.3505 27.4074 84.3503 28.2586 81.9671 28.2586C80.6052 28.2586 79.4136 28.0032 78.4773 27.4925C77.541 26.9818 76.9026 26.3009 76.6047 25.4923V34.3019ZM81.4563 14.3421C80.0094 14.3421 78.7752 14.8528 77.7963 15.789C76.8175 16.7679 76.3068 18.0021 76.3068 19.449C76.3068 20.896 76.8175 22.1302 77.7963 23.109C78.7752 24.0879 80.0094 24.556 81.4563 24.556C82.8608 24.556 84.0524 24.0453 84.9887 23.109C85.925 22.1302 86.3931 20.896 86.3931 19.449C86.3931 18.0021 85.925 16.7679 84.9887 15.789C84.0524 14.8528 82.8608 14.3421 81.4563 14.3421Z" fill="#202A44"/><path d="M97.5434 34.3019H93.5429V11.0651H97.5434V13.4909C97.8413 12.6823 98.4371 12.0014 99.4159 11.4907C100.352 10.98 101.544 10.7246 102.906 10.7246C105.289 10.7246 107.289 11.5758 108.906 13.2355C110.524 14.8953 111.332 16.9807 111.332 19.4916C111.332 22.0025 110.524 24.0453 108.906 25.7477C107.289 27.4074 105.289 28.2586 102.906 28.2586C101.544 28.2586 100.352 28.0032 99.4159 27.4925C98.4797 26.9818 97.8413 26.3009 97.5434 25.4923V34.3019ZM102.395 14.3421C100.948 14.3421 99.7138 14.8528 98.735 15.789C97.7562 16.7679 97.2455 18.0021 97.2455 19.449C97.2455 20.896 97.7562 22.1302 98.735 23.109C99.7138 24.0879 100.948 24.556 102.395 24.556C103.799 24.556 104.991 24.0453 105.927 23.109C106.864 22.1302 107.332 20.896 107.332 19.449C107.332 18.0021 106.864 16.7679 105.927 15.789C104.991 14.8528 103.799 14.3421 102.395 14.3421Z" fill="#202A44"/><path d="M114.482 27.8756V11.0652H118.439V13.4484C118.78 12.6398 119.376 11.9589 120.142 11.4482C120.95 10.9375 121.844 10.6821 122.908 10.6821C125.206 10.6821 126.781 11.661 127.632 13.6186C128.568 11.661 130.398 10.6821 133.037 10.6821C134.867 10.6821 136.271 11.2779 137.25 12.4696C138.229 13.6612 138.74 15.321 138.74 17.4063V22.7261C138.74 23.3645 138.825 23.8326 138.953 24.088C139.123 24.3433 139.421 24.471 139.846 24.471C140.059 24.471 140.229 24.4284 140.399 24.3859V27.748C140.016 27.8756 139.421 27.9608 138.655 27.9608C136.016 27.9608 134.739 26.5138 134.739 23.5773V18.0447C134.739 16.8956 134.484 15.9593 133.973 15.321C133.463 14.64 132.739 14.3421 131.803 14.3421C130.866 14.3421 130.1 14.7252 129.505 15.4486C128.909 16.1721 128.568 17.1084 128.568 18.2575V27.9182H124.696V18.0447C124.696 16.8956 124.44 15.9593 123.929 15.321C123.419 14.64 122.653 14.3421 121.716 14.3421C120.78 14.3421 120.014 14.7252 119.376 15.4486C118.737 16.1721 118.439 17.1084 118.439 18.2575V27.9182H114.482V27.8756Z" fill="#202A44"/><path d="M144.868 25.7477C143.251 24.0453 142.442 21.96 142.442 19.4916C142.442 17.0232 143.251 14.9379 144.868 13.2355C146.485 11.5758 148.486 10.7246 150.869 10.7246C152.231 10.7246 153.38 10.98 154.316 11.5332C155.252 12.0865 155.891 12.7248 156.231 13.5334V11.0651H160.232V22.8111C160.232 23.5346 160.317 24.0453 160.529 24.3432C160.7 24.6411 161.04 24.8114 161.466 24.8114C161.721 24.8114 161.976 24.7688 162.317 24.7263V27.9607C161.891 28.1309 161.21 28.216 160.359 28.216C159.423 28.216 158.614 28.0458 158.019 27.6628C157.295 27.1521 156.827 26.5137 156.657 25.62C155.465 27.3649 153.55 28.2586 150.869 28.2586C148.443 28.3011 146.443 27.45 144.868 25.7477ZM147.805 15.8316C146.868 16.8104 146.4 18.0446 146.4 19.4916C146.4 20.9386 146.868 22.1728 147.805 23.1516C148.741 24.1304 149.933 24.5986 151.337 24.5986C152.784 24.5986 154.018 24.0879 154.997 23.1516C155.976 22.1728 156.486 20.9386 156.486 19.4916C156.486 18.0446 155.976 16.8104 154.997 15.8316C154.018 14.8528 152.784 14.3846 151.337 14.3846C149.933 14.3421 148.783 14.8528 147.805 15.8316Z" fill="#202A44"/><path d="M163.807 27.8757L170.19 19.0236L164.402 11.0652H168.743L172.403 16.0871L176.021 11.0652H180.404L174.616 18.981L181 27.8757H176.702L172.446 21.9601L168.19 27.8757H163.807Z" fill="#202A44"/></g><defs><clipPath id="clip0"><rect width="181" height="37.1533" fill="white"/></clipPath></defs></svg>