<svg width="64" height="64" viewBox="0 0 64 64" fill="none" xmlns="http://www.w3.org/2000/svg">
<path d="M31.837 15.1131C27.5001 15.1368 23.1868 16.7997 19.8987 20.102C13.3509 26.7113 13.3887 37.4354 19.998 43.988C26.612 50.5501 37.3361 50.5123 43.8982 43.8982C50.4649 37.289 50.413 26.5648 43.799 19.9981C40.5014 16.7241 36.1645 15.099 31.837 15.1131ZM26.5128 22.3271C27.6135 22.3271 28.7143 22.7381 29.5505 23.5649C31.1992 25.2231 31.1992 27.9632 29.5505 29.6262C27.8875 31.2749 25.1522 31.2749 23.4892 29.6262C21.8263 27.9632 21.8263 25.2231 23.4892 23.5649C24.3112 22.7381 25.412 22.3271 26.5128 22.3271ZM37.1755 25.19C37.3725 25.1891 37.5678 25.227 37.7502 25.3016C37.9326 25.3762 38.0985 25.486 38.2385 25.6247C38.3784 25.7641 38.4895 25.9297 38.5653 26.1121C38.6411 26.2945 38.6801 26.4901 38.6801 26.6876C38.6801 26.8852 38.6411 27.0808 38.5653 27.2632C38.4895 27.4456 38.3784 27.6112 38.2385 27.7506L27.8733 38.111C27.592 38.3923 27.2105 38.5503 26.8127 38.5503C26.415 38.5503 26.0334 38.3923 25.7521 38.111C25.4709 37.8297 25.3129 37.4482 25.3129 37.0504C25.3129 36.6526 25.4709 36.2711 25.7521 35.9898L36.1267 25.6247C36.4059 25.348 36.7824 25.1919 37.1755 25.19ZM26.5128 25.2987C26.1868 25.2987 25.8608 25.4263 25.6104 25.6861C25.086 26.201 25.086 26.99 25.6104 27.5002C26.1254 28.0104 26.9143 28.0104 27.4245 27.5002C27.9395 26.99 27.9395 26.201 27.4245 25.6861C27.1647 25.4263 26.8387 25.2987 26.5128 25.2987ZM37.2747 33.0749C38.3755 33.0749 39.4762 33.4859 40.2982 34.3268C41.9612 35.9756 41.9612 38.711 40.3124 40.3739C38.6495 42.0369 35.9141 42.0369 34.2511 40.3739C32.5882 38.711 32.5882 35.9756 34.2511 34.3127C35.0732 33.4859 36.1739 33.0749 37.2747 33.0749ZM37.2747 36.0512C36.9487 36.0512 36.6275 36.1882 36.3629 36.4386C35.848 36.9488 35.848 37.7378 36.3629 38.248C36.8873 38.7771 37.6763 38.7771 38.1865 38.248C38.7014 37.7378 38.7014 36.9488 38.1865 36.4386C37.9267 36.1882 37.6007 36.0512 37.2747 36.0512Z" fill="#000C2C"/>
<path d="M31.8087 7.04876C25.4215 7.0771 19.0342 9.52428 14.1871 14.4139C10.5966 18.0375 8.21085 22.6484 7.32268 27.6278L6.83609 26.9853C6.59511 26.6721 6.24028 26.4667 5.84871 26.4136C5.65304 26.3859 5.45383 26.397 5.26249 26.4465C5.07116 26.4959 4.89147 26.5827 4.73378 26.7018C4.41805 26.9422 4.21043 27.2979 4.15642 27.6911C4.10241 28.0842 4.2064 28.4828 4.4456 28.7994L7.13373 32.3379C7.37395 32.6509 7.7278 32.8566 8.11864 32.9106C8.50948 32.9645 8.90584 32.8623 9.22186 32.6261L12.7225 30.0277C12.8803 29.9093 13.0131 29.761 13.1135 29.5912C13.2138 29.4215 13.2797 29.2335 13.3073 29.0383C13.335 28.843 13.3239 28.6442 13.2746 28.4533C13.2253 28.2623 13.1388 28.0829 13.0202 27.9254C12.7833 27.606 12.4293 27.3938 12.0359 27.3353C11.6426 27.2768 11.2421 27.3769 10.9226 27.6136L10.299 28.086C11.0832 23.7255 13.1714 19.7004 16.3083 16.5257C24.8734 7.9133 38.7581 7.85188 47.3847 16.4123C49.5201 18.5241 51.1972 21.061 52.3074 23.8625C52.3805 24.0456 52.489 24.2125 52.6266 24.3537C52.7643 24.4948 52.9284 24.6074 53.1096 24.6851C53.2908 24.7628 53.4856 24.8039 53.6827 24.8063C53.8799 24.8086 54.0755 24.7721 54.2586 24.6987C54.628 24.552 54.9242 24.2645 55.0818 23.8996C55.2395 23.5346 55.2459 23.1219 55.0995 22.7523C53.8333 19.5776 51.92 16.6863 49.4965 14.2769C44.6115 9.42508 38.2101 7.02514 31.8087 7.04876Z" fill="#000C2C"/>
<path d="M55.0853 26.4515C54.8753 26.4471 54.6666 26.4869 54.4729 26.5683C54.2792 26.6497 54.1048 26.7708 53.9609 26.9239L51.0082 30.1364C50.7397 30.4272 50.5969 30.8123 50.6111 31.2079C50.6252 31.6035 50.7951 31.9774 51.0838 32.2482C51.2287 32.3828 51.3988 32.4873 51.5842 32.5559C51.7697 32.6245 51.9669 32.6557 52.1645 32.6478C52.3621 32.6399 52.5561 32.593 52.7355 32.5099C52.9149 32.4267 53.0761 32.3089 53.2097 32.1632L53.8712 31.4404C54.0223 37.426 51.7216 43.2133 47.5075 47.4604C38.9471 56.087 25.0577 56.139 16.4359 47.588C13.3367 44.4983 11.2108 40.563 10.3604 36.2733C10.3228 36.0796 10.2473 35.8953 10.1384 35.7308C10.0294 35.5663 9.88903 35.425 9.72535 35.3148C9.56166 35.2047 9.37784 35.1279 9.18443 35.0889C8.99103 35.0499 8.79184 35.0494 8.59825 35.0875C8.20882 35.1656 7.86628 35.395 7.64575 35.7254C7.42523 36.0557 7.34473 36.4601 7.42191 36.8497C8.38566 41.7393 10.7998 46.2132 14.3241 49.7139C24.0987 59.4129 39.9345 59.3515 49.6335 49.5769C54.3719 44.8007 56.9845 38.3237 56.8711 31.6152L57.3341 32.0356C57.4799 32.1693 57.6507 32.2728 57.8366 32.3402C58.0226 32.4076 58.2201 32.4376 58.4177 32.4283C58.6152 32.4191 58.8091 32.3709 58.9879 32.2865C59.1668 32.2021 59.3273 32.0831 59.46 31.9364C59.5921 31.7898 59.6939 31.6186 59.7597 31.4325C59.8255 31.2465 59.854 31.0493 59.8435 30.8523C59.8329 30.6552 59.7836 30.4622 59.6984 30.2842C59.6131 30.1063 59.4936 29.9469 59.3466 29.8152L56.0585 26.8389C55.7912 26.597 55.4457 26.4595 55.0853 26.4515Z" fill="#000C2C"/>
</svg>
