<svg width="64" height="64" viewBox="0 0 64 64" fill="none" xmlns="http://www.w3.org/2000/svg">
<path d="M52.1346 36.6163C51.516 28.5628 47.7664 23.516 44.4585 19.0625C41.3955 14.9395 38.75 11.3791 38.75 6.12693C38.75 5.70505 38.5138 5.31946 38.1391 5.12613C37.7633 4.93165 37.3118 4.9635 36.9702 5.21177C32.0022 8.7667 27.8571 14.7583 26.4091 20.4751C25.4039 24.4552 25.2709 28.9296 25.2522 31.8847C20.6643 30.9048 19.625 24.0422 19.6141 23.9674C19.5624 23.6114 19.3449 23.3017 19.0285 23.1325C18.7088 22.9655 18.333 22.9534 18.0089 23.1138C17.7684 23.2303 12.1037 26.1085 11.7742 37.6005C11.7511 37.9828 11.75 38.3663 11.75 38.7497C11.75 49.9143 20.8346 58.9983 32 58.9983C32.0154 58.9994 32.0319 59.0016 32.045 58.9983C32.0495 58.9983 32.0538 58.9983 32.0593 58.9983C43.1973 58.9664 52.25 49.8946 52.25 38.7497C52.25 38.1883 52.1346 36.6163 52.1346 36.6163ZM32 56.7485C28.2778 56.7485 25.25 53.5231 25.25 49.5584C25.25 49.4233 25.2489 49.2871 25.2588 49.1201C25.3038 47.4481 25.6214 46.3067 25.9696 45.5476C26.6223 46.9493 27.789 48.238 29.6841 48.238C30.306 48.238 30.8092 47.7348 30.8092 47.113C30.8092 45.5114 30.8422 43.6636 31.2409 41.9959C31.5958 40.5172 32.4439 38.9441 33.5184 37.683C33.9963 39.3198 34.928 40.6446 35.8377 41.9377C37.1396 43.7876 38.4854 45.7003 38.7216 48.9619C38.7359 49.1552 38.7502 49.3497 38.7502 49.5584C38.75 53.523 35.7222 56.7485 32 56.7485Z" fill="#000C2C"/>
</svg>
