<svg width="64" height="64" viewBox="0 0 64 64" fill="none" xmlns="http://www.w3.org/2000/svg">
<path d="M47.1321 21.8972L50.1228 18.9064L47.18 15.9625L43.9806 19.1619C41.0579 17.0906 37.6472 15.8141 34.0828 15.4573V11.1908H38.2452V7.02832H25.7578V11.1908H29.9203V15.4573C26.3559 15.8141 22.9452 17.0906 20.0225 19.1619L16.8231 15.9625L13.8803 18.9064L16.871 21.8972C14.0793 24.8529 12.2145 28.5617 11.5069 32.5653C10.7992 36.569 11.2798 40.6922 12.8891 44.4258C14.4984 48.1595 17.1661 51.34 20.5626 53.5746C23.9592 55.8092 27.9358 57 32.0015 57C36.0673 57 40.0439 55.8092 43.4405 53.5746C46.837 51.34 49.5047 48.1595 51.114 44.4258C52.7233 40.6922 53.2038 36.569 52.4962 32.5653C51.7886 28.5617 49.9238 24.8529 47.1321 21.8972ZM32.0015 52.8154C28.7085 52.8154 25.4894 51.8389 22.7514 50.0094C20.0133 48.1799 17.8793 45.5796 16.6191 42.5372C15.3589 39.4948 15.0292 36.1471 15.6716 32.9174C16.314 29.6876 17.8998 26.7209 20.2283 24.3923C22.5568 22.0638 25.5236 20.4781 28.7533 19.8356C31.9831 19.1932 35.3308 19.5229 38.3732 20.7831C41.4155 22.0433 44.0159 24.1774 45.8454 26.9154C47.6749 29.6535 48.6514 32.8725 48.6514 36.1656C48.6464 40.5799 46.8907 44.812 43.7693 47.9333C40.6479 51.0547 36.4158 52.8105 32.0015 52.8154Z" fill="#000C2C"/>
<path d="M32.0003 23.678V36.1654H19.5129C19.5129 38.6351 20.2453 41.0495 21.6174 43.103C22.9896 45.1565 24.9398 46.7571 27.2216 47.7022C29.5034 48.6474 32.0142 48.8947 34.4365 48.4128C36.8588 47.931 39.0839 46.7417 40.8303 44.9953C42.5767 43.2489 43.766 41.0239 44.2478 38.6015C44.7296 36.1792 44.4823 33.6684 43.5372 31.3867C42.592 29.1049 40.9915 27.1546 38.938 25.7825C36.8844 24.4104 34.4701 23.678 32.0003 23.678Z" fill="#000C2C"/>
</svg>
