<svg width="64" height="64" viewBox="0 0 64 64" fill="none" xmlns="http://www.w3.org/2000/svg">
<path d="M38.4728 36.1514C37.7078 36.1514 37.0854 36.7737 37.0854 37.5387C37.1552 39.3767 39.7907 39.3762 39.8602 37.5387C39.8602 36.7737 39.2378 36.1514 38.4728 36.1514Z" fill="#000C2C"/>
<path d="M25.5254 25.0525C24.7604 25.0525 24.1381 25.6749 24.1381 26.4399C24.2078 28.2779 26.8434 28.2774 26.9128 26.4399C26.9128 25.6749 26.2904 25.0525 25.5254 25.0525Z" fill="#000C2C"/>
<path d="M54.9821 24.1122C55.366 24.1122 55.6772 23.801 55.6772 23.4172V17.6953C55.6772 17.3115 55.366 17.0002 54.9821 17.0002H9.01637C8.63243 17.0003 8.32129 17.3115 8.32129 17.6953V23.4172C8.32129 23.801 8.63243 24.1122 9.01637 24.1122C11.8859 24.2213 11.8847 28.3356 9.01637 28.444C8.63252 28.444 8.32138 28.7551 8.32138 29.1391V34.861C8.32138 35.2448 8.63252 35.5561 9.01646 35.5561C11.8861 35.6651 11.8848 39.7795 9.01646 39.8878C8.63262 39.8878 8.32147 40.199 8.32147 40.5829V46.3048C8.32147 46.6887 8.63262 46.9999 9.01655 46.9999H54.9824C55.3663 46.9999 55.6775 46.6887 55.6775 46.3048V40.5829C55.6775 40.1991 55.3663 39.8878 54.9824 39.8878C52.1127 39.7788 52.114 35.6645 54.9824 35.5561C55.3662 35.5561 55.6774 35.2449 55.6774 34.861V29.1391C55.6774 28.7552 55.3662 28.444 54.9823 28.444C52.1125 28.3351 52.1138 24.2205 54.9821 24.1122ZM21.3627 26.4398C21.3627 24.1448 23.2298 22.2777 25.5248 22.2777C31.0389 22.4869 31.0373 30.3935 25.5247 30.6019C23.2298 30.6019 21.3627 28.7348 21.3627 26.4398ZM26.9369 41.7226C26.6916 41.7226 26.4431 41.6576 26.2181 41.5209C25.5632 41.1232 25.3546 40.2699 25.7523 39.615L35.8745 22.9451C36.2721 22.2901 37.1254 22.0815 37.7804 22.4793C38.4353 22.877 38.6439 23.7302 38.2461 24.3852L28.1241 41.0551C27.863 41.485 27.4056 41.7226 26.9369 41.7226ZM38.4737 41.701C36.1787 41.701 34.3115 39.8338 34.3115 37.5388C34.5207 32.0247 42.4274 32.0263 42.6358 37.5389C42.6358 39.8338 40.7687 41.701 38.4737 41.701Z" fill="#000C2C"/>
</svg>
