<svg width="64" height="64" viewBox="0 0 64 64" fill="none" xmlns="http://www.w3.org/2000/svg">
<path d="M38.9533 17.4576L41.9498 23.4907C42.3536 24.3251 43.4374 25.1166 44.3512 25.2878L49.7703 26.1863C53.2343 26.764 54.0419 29.2885 51.5555 31.813L47.3264 36.0703C46.6251 36.7763 46.2213 38.1669 46.4551 39.1725L47.6664 44.4354C48.6228 48.5858 46.4126 50.2117 42.7786 48.0295L37.6995 44.9916C36.7857 44.4354 35.2556 44.4354 34.3418 44.9916L29.2627 48.0295C25.6287 50.1903 23.4185 48.5858 24.3748 44.4354L25.5862 39.1725C25.7774 38.1456 25.3737 36.755 24.6724 36.049L20.4433 31.7916C17.9569 29.2885 18.7645 26.764 22.2284 26.1649L27.6476 25.2664C28.5614 25.1166 29.6452 24.3037 30.049 23.4693L33.0454 17.4362C34.6818 14.1844 37.317 14.1844 38.9533 17.4576Z" fill="#000C2C"/>
<path d="M23.3994 19H10.5994C9.72472 19 8.99939 18.0933 8.99939 17C8.99939 15.9067 9.72472 15 10.5994 15H23.3994C24.2741 15 24.9994 15.9067 24.9994 17C24.9994 18.0933 24.2741 19 23.3994 19Z" fill="#000C2C"/>
<path d="M16.4994 49H10.4994C9.67939 49 8.99939 48.0933 8.99939 47C8.99939 45.9067 9.67939 45 10.4994 45H16.4994C17.3194 45 17.9994 45.9067 17.9994 47C17.9994 48.0933 17.3194 49 16.4994 49Z" fill="#000C2C"/>
<path d="M12.4994 34H10.4994C9.67939 34 8.99939 33.0933 8.99939 32C8.99939 30.9067 9.67939 30 10.4994 30H12.4994C13.3194 30 13.9994 30.9067 13.9994 32C13.9994 33.0933 13.3194 34 12.4994 34Z" fill="#000C2C"/>
</svg>
