<svg width="64" height="64" viewBox="0 0 64 64" fill="none" xmlns="http://www.w3.org/2000/svg">
<path d="M46.1797 26V28.4286C46.1797 30.4372 44.4449 32.0714 42.3125 32.0714C40.1801 32.0714 38.4453 30.4372 38.4453 28.4286V26H10V43H41.0234V38.7053C40.2646 39.1197 39.3838 39.3571 38.4453 39.3571V36.9286C39.8669 36.9286 41.0234 35.8391 41.0234 34.5H43.6016V43H54V26H46.1797ZM25.5547 36.9286C25.5547 38.9372 23.8199 40.5714 21.6875 40.5714C19.5551 40.5714 17.8203 38.9372 17.8203 36.9286V32.0714C17.8203 30.0628 19.5551 28.4286 21.6875 28.4286C23.8199 28.4286 25.5547 30.0628 25.5547 32.0714V36.9286ZM35.8672 36.9286C35.8672 38.9372 34.1324 40.5714 32 40.5714C29.8676 40.5714 28.1328 38.9372 28.1328 36.9286V32.0714C28.1328 30.0628 29.8676 28.4286 32 28.4286C34.1324 28.4286 35.8672 30.0628 35.8672 32.0714V36.9286Z" fill="#000C2C"/>
<path d="M54 23C54 20.243 51.6869 18 48.8438 18H35.8672V16.75C35.8672 14.6823 34.1324 13 32 13C29.8676 13 28.1328 14.6823 28.1328 16.75V18H15.1562C12.3131 18 10 20.243 10 23H54Z" fill="#000C2C"/>
<path d="M10 46C10 48.757 12.3131 51 15.1562 51H48.8438C51.6869 51 54 48.757 54 46H10Z" fill="#000C2C"/>
<path d="M41 28C41 28.5514 41.4486 29 42 29C42.5514 29 43 28.5514 43 28V26H41V28Z" fill="#000C2C"/>
<path d="M22 31C21.4486 31 21 31.5234 21 32.1667V36.8333C21 37.4766 21.4486 38 22 38C22.5514 38 23 37.4766 23 36.8333V32.1667C23 31.5234 22.5514 31 22 31Z" fill="#000C2C"/>
<path d="M32 31C31.4486 31 31 31.5234 31 32.1667V36.8333C31 37.4766 31.4486 38 32 38C32.5514 38 33 37.4766 33 36.8333V32.1667C33 31.5234 32.5514 31 32 31Z" fill="#000C2C"/>
</svg>
