<svg width="15" height="10" viewBox="0 0 15 10" fill="none" xmlns="http://www.w3.org/2000/svg">
<path d="M15 4.99869C14.994 4.83784 14.9285 4.65149 14.8208 4.5346L11.2914 0.709314C11.0518 0.490449 10.5934 0.399916 10.3263 0.653059C10.0626 0.902693 10.0713 1.387 10.3332 1.63751L12.8148 4.32376H0.661762C0.296425 4.32376 0 4.62613 0 4.99881C0 5.37148 0.296425 5.67385 0.661762 5.67385H12.8148L10.3332 8.3601C10.1074 8.59126 10.0652 9.09228 10.3263 9.34455C10.5865 9.59682 11.0622 9.51595 11.2914 9.28829L14.8208 5.46301C14.9414 5.33205 15 5.17823 15 4.99892V4.99869Z" fill="white"/>
</svg>
