<svg width="24" height="12" viewBox="0 0 24 12" fill="none" xmlns="http://www.w3.org/2000/svg">
<path d="M23.725 6.66361C23.7247 6.6639 23.7245 6.66422 23.7242 6.66451L18.8256 11.5395C18.4586 11.9047 17.865 11.9033 17.4997 11.5363C17.1344 11.1693 17.1359 10.5758 17.5028 10.2105L20.7918 6.93751H0.9375C0.419719 6.93751 0 6.51779 0 6.00001C0 5.48222 0.419719 5.06251 0.9375 5.06251H20.7917L17.5029 1.78951C17.1359 1.42426 17.1345 0.83068 17.4997 0.463696C17.865 0.0966177 18.4587 0.0953522 18.8256 0.460508L23.7242 5.33551C23.7245 5.33579 23.7247 5.33611 23.7251 5.3364C24.0922 5.70286 24.0911 6.29836 23.725 6.66361Z" fill="black"/>
</svg>
