<svg width="56" height="56" viewBox="0 0 56 56" fill="none" xmlns="http://www.w3.org/2000/svg">
<path d="M40.4075 1.75006H15.9075C14.051 1.75006 12.2705 2.48756 10.9577 3.80031C9.64498 5.11307 8.90748 6.89354 8.90748 8.75006V51.2226C8.90633 51.6605 9.02179 52.091 9.242 52.4696C9.4622 52.8482 9.77922 53.1614 10.1605 53.3769C10.5418 53.5925 10.9735 53.7027 11.4115 53.6962C11.8494 53.6898 12.2778 53.5668 12.6525 53.3401L19.0925 49.4901C19.1896 49.4296 19.3018 49.3975 19.4162 49.3975C19.5307 49.3975 19.6428 49.4296 19.74 49.4901L26.8975 53.7776C27.2787 54.0046 27.7138 54.1255 28.1575 54.1276C28.6075 54.1313 29.0497 54.0101 29.435 53.7776L36.6275 49.4901C36.7212 49.4291 36.8306 49.3966 36.9425 49.3966C37.0543 49.3966 37.1637 49.4291 37.2575 49.4901L43.75 53.3401C44.1247 53.5668 44.553 53.6898 44.991 53.6962C45.4289 53.7027 45.8607 53.5925 46.242 53.3769C46.6232 53.1614 46.9403 52.8482 47.1605 52.4696C47.3807 52.091 47.4961 51.6605 47.495 51.2226V8.75006C47.495 7.8234 47.3111 6.90594 46.9539 6.05091C46.5966 5.19588 46.0732 4.42028 45.4139 3.76912C44.7546 3.11795 43.9725 2.60417 43.1131 2.25758C42.2537 1.91098 41.3341 1.73848 40.4075 1.75006ZM22.3475 31.6576C22.2559 31.3957 22.2279 31.1158 22.2658 30.841C22.3036 30.5662 22.4063 30.3044 22.5652 30.0771C22.7242 29.8497 22.9349 29.6634 23.18 29.5336C23.4251 29.4037 23.6976 29.3339 23.975 29.3301C24.3205 29.3205 24.6611 29.4134 24.9539 29.5972C25.2466 29.7809 25.4784 30.0472 25.62 30.3626C25.8388 30.9258 26.2488 31.3941 26.7783 31.6852C27.3077 31.9764 27.9228 32.0719 28.5156 31.955C29.1084 31.8381 29.6412 31.5163 30.0205 31.0459C30.3998 30.5756 30.6014 29.9867 30.59 29.3826C30.5946 29.0378 30.5313 28.6956 30.4036 28.3753C30.276 28.0551 30.0865 27.7631 29.846 27.5161C29.6054 27.2691 29.3186 27.0719 29.0019 26.9357C28.6852 26.7996 28.3447 26.7271 28 26.7226C26.9737 26.7054 25.9678 26.4327 25.0733 25.9292C24.1788 25.4257 23.4239 24.7072 22.8767 23.8388C22.3296 22.9703 22.0075 21.9791 21.9395 20.9549C21.8716 19.9307 22.0599 18.9057 22.4875 17.9726C22.8303 17.1825 23.3464 16.4797 23.9978 15.9162C24.6491 15.3528 25.4188 14.9431 26.25 14.7176V12.7051C26.25 12.2409 26.4344 11.7958 26.7625 11.4676C27.0907 11.1394 27.5358 10.9551 28 10.9551C28.4641 10.9551 28.9092 11.1394 29.2374 11.4676C29.5656 11.7958 29.75 12.2409 29.75 12.7051V14.7701C30.707 15.0457 31.5795 15.5572 32.2875 16.2576C32.887 16.849 33.3576 17.558 33.67 18.3401C33.7446 18.5953 33.7602 18.8642 33.7154 19.1263C33.6706 19.3884 33.5666 19.6369 33.4114 19.8528C33.2562 20.0687 33.0538 20.2465 32.8197 20.3725C32.5855 20.4985 32.3257 20.5695 32.06 20.5801C31.7154 20.5962 31.3738 20.5101 31.078 20.3326C30.7822 20.1551 30.5454 19.8942 30.3975 19.5826C30.2587 19.2692 30.0629 18.9843 29.82 18.7426C29.3555 18.2755 28.7285 18.0059 28.07 17.9901C27.3861 17.9947 26.7318 18.2696 26.2499 18.7548C25.7679 19.24 25.4975 19.8962 25.4975 20.5801C25.5004 21.2532 25.7585 21.9002 26.2197 22.3906C26.6808 22.881 27.3108 23.1783 27.9825 23.2226C29.4546 23.2556 30.8701 23.7962 31.9894 24.7528C33.1087 25.7095 33.8631 27.0236 34.125 28.4726C34.3247 29.9293 33.9921 31.4091 33.1884 32.6404C32.3848 33.8716 31.1639 34.7716 29.75 35.1751V37.1526C29.75 37.6167 29.5656 38.0618 29.2374 38.39C28.9092 38.7182 28.4641 38.9026 28 38.9026C27.5358 38.9026 27.0907 38.7182 26.7625 38.39C26.4344 38.0618 26.25 37.6167 26.25 37.1526V35.2101C25.3769 34.944 24.5739 34.4873 23.899 33.8729C23.2241 33.2585 22.6942 32.5018 22.3475 31.6576Z" fill="#000C2C"/>
</svg>
