<svg width="1061" height="737" viewBox="0 0 1061 737" fill="none" xmlns="http://www.w3.org/2000/svg">
<g filter="url(#filter0_bdi_126_6280)">
<path d="M1023.57 20H37.4283C31.3928 20 26.5 24.8928 26.5 30.9283V692.346C26.5 698.381 31.3928 703.274 37.4283 703.274H1023.57C1029.61 703.274 1034.5 698.381 1034.5 692.346V30.9283C1034.5 24.8928 1029.61 20 1023.57 20Z" fill="white" fill-opacity="0.6" shape-rendering="crispEdges"/>
</g>
<rect opacity="0.3" x="325.055" y="29.3674" width="405.617" height="18.7352" rx="5.46416" fill="white"/>
<path d="M467.267 37.3424H466.739V36.0643C466.739 34.5216 466.017 33.6147 464.576 33.6147C463.134 33.6147 462.413 34.5216 462.413 36.0643V37.3424H461.776C461.477 37.3424 461.235 37.6864 461.235 37.9809V42.5707C461.235 42.8631 461.467 43.1772 461.75 43.2667L462.397 43.4728C462.741 43.5713 463.095 43.6261 463.453 43.6357H465.699C466.056 43.6262 466.411 43.5712 466.754 43.4723L467.401 43.2662C467.684 43.1772 467.916 42.8631 467.916 42.5707V37.9809C467.916 37.6864 467.566 37.3424 467.267 37.3424ZM465.657 37.3424H463.494V35.8508C463.494 35.0813 463.925 34.6798 464.576 34.6798C465.226 34.6798 465.657 35.0813 465.657 35.8508V37.3424Z" fill="#343651"/>
<path d="M475.013 46.3177H476.169V42.6417C476.562 43.3794 477.361 43.7851 478.32 43.7851C480.103 43.7851 481.111 42.4081 481.111 40.5762C481.111 38.7321 480.041 37.4412 478.32 37.4412C477.361 37.4412 476.55 37.8715 476.144 38.6952L476.058 37.6133H475.013V46.3177ZM476.181 40.6254C476.181 39.3714 476.894 38.4985 478.074 38.4985C479.254 38.4985 479.955 39.3837 479.955 40.6254C479.955 41.8549 479.254 42.74 478.074 42.74C476.894 42.74 476.181 41.8549 476.181 40.6254ZM484.143 43.7728C485.114 43.7728 485.938 43.3425 486.245 42.654L486.368 43.6252H487.352V39.8509C487.352 38.228 486.343 37.4412 484.856 37.4412C483.307 37.4412 482.274 38.2649 482.274 39.5189H483.282C483.282 38.7936 483.835 38.3633 484.807 38.3633C485.618 38.3633 486.221 38.7198 486.221 39.7279V39.9L484.327 40.0476C482.913 40.1582 482.09 40.8467 482.09 41.9532C482.09 43.0474 482.852 43.7728 484.143 43.7728ZM484.475 42.8753C483.725 42.8753 483.258 42.5556 483.258 41.9163C483.258 41.3262 483.676 40.9328 484.696 40.8344L486.233 40.7115V41.0311C486.233 42.1622 485.569 42.8753 484.475 42.8753ZM488.23 46.3177C488.538 46.3915 488.857 46.4407 489.238 46.4407C490.16 46.4407 490.763 46.0104 491.169 44.9776L494.009 37.6133H492.816L491.033 42.4573L489.287 37.6133H488.07L490.492 43.9449L490.283 44.5227C490.001 45.285 489.558 45.371 489.005 45.371H488.23V46.3177ZM494.771 43.7728C495.238 43.7728 495.644 43.3794 495.644 42.9122C495.644 42.4327 495.238 42.0393 494.771 42.0393C494.292 42.0393 493.886 42.4327 493.886 42.9122C493.886 43.3794 494.292 43.7728 494.771 43.7728ZM496.817 41.8794C496.817 43.0228 497.714 43.7728 499.128 43.7728C500.554 43.7728 501.538 43.0474 501.538 41.904C501.538 41.0065 501.034 40.5394 500.013 40.2935L498.956 40.0353C498.366 39.8878 498.071 39.6173 498.071 39.2116C498.071 38.6583 498.476 38.3387 499.202 38.3387C499.903 38.3387 500.308 38.7198 500.333 39.3222H501.439C501.415 38.1788 500.554 37.4412 499.239 37.4412C497.911 37.4412 496.976 38.142 496.976 39.2484C496.976 40.1336 497.481 40.6623 498.55 40.9205L499.607 41.1664C500.234 41.3262 500.431 41.5721 500.431 41.9778C500.431 42.531 499.964 42.863 499.153 42.863C498.39 42.863 497.923 42.4942 497.923 41.8794H496.817ZM505.413 43.7728C506.901 43.7728 507.909 43.0474 508.204 41.7565H507.122C506.926 42.445 506.335 42.8138 505.438 42.8138C504.295 42.8138 503.631 42.113 503.545 40.8467L508.192 40.8344V40.4041C508.192 38.6214 507.073 37.4412 505.364 37.4412C503.618 37.4412 502.426 38.7444 502.426 40.6254C502.426 42.4942 503.643 43.7728 505.413 43.7728ZM505.364 38.4124C506.385 38.4124 507.036 39.0763 507.036 40.0722H503.569C503.717 39.0149 504.356 38.4124 505.364 38.4124ZM513.638 37.6133V40.7852C513.638 42.0762 513.06 42.7523 512.003 42.7523C511.118 42.7523 510.565 42.2606 510.565 40.9697V37.6133H509.409V41.3508C509.409 42.8261 510.196 43.7728 511.597 43.7728C512.483 43.7728 513.282 43.3425 513.626 42.7155L513.749 43.6252H514.782V37.6133H513.638ZM517.614 43.6252V40.441C517.614 39.273 518.241 38.4985 519.323 38.4985C520.208 38.4985 520.774 38.9903 520.774 40.2074V43.6252H521.929V39.9492C521.929 38.4124 521.204 37.4412 519.618 37.4412C518.77 37.4412 518.007 37.8469 517.626 38.5354L517.503 37.6133H516.458V43.6252H517.614ZM526.124 43.7728C527.612 43.7728 528.62 43.0474 528.915 41.7565H527.833C527.636 42.445 527.046 42.8138 526.149 42.8138C525.005 42.8138 524.341 42.113 524.255 40.8467L528.903 40.8344V40.4041C528.903 38.6214 527.784 37.4412 526.075 37.4412C524.329 37.4412 523.137 38.7444 523.137 40.6254C523.137 42.4942 524.354 43.7728 526.124 43.7728ZM526.075 38.4124C527.095 38.4124 527.747 39.0763 527.747 40.0722H524.28C524.427 39.0149 525.067 38.4124 526.075 38.4124ZM529.812 40.4656C529.812 42.1499 530.894 43.4654 532.603 43.4654C533.55 43.4654 534.337 43.0474 534.73 42.3466V43.5515C534.73 44.6949 533.992 45.4325 532.861 45.4325C531.853 45.4325 531.189 44.9162 531.042 44.031H529.886C530.107 45.5555 531.226 46.4775 532.861 46.4775C534.705 46.4775 535.873 45.2727 535.873 43.3794V37.6133H534.841L534.755 38.6337C534.374 37.8838 533.624 37.4412 532.652 37.4412C530.907 37.4412 529.812 38.769 529.812 40.4656ZM530.968 40.441C530.968 39.3345 531.656 38.4493 532.812 38.4493C533.992 38.4493 534.681 39.2853 534.681 40.441C534.681 41.6213 533.968 42.4573 532.8 42.4573C531.669 42.4573 530.968 41.5721 530.968 40.441ZM537.148 40.6131C537.148 42.4696 538.476 43.7728 540.283 43.7728C542.078 43.7728 543.406 42.4696 543.406 40.6131C543.406 38.7567 542.078 37.4535 540.283 37.4535C538.476 37.4535 537.148 38.7567 537.148 40.6131ZM538.316 40.6131C538.316 39.3591 539.115 38.4862 540.283 38.4862C541.439 38.4862 542.25 39.3591 542.25 40.6131C542.25 41.8671 541.439 42.74 540.283 42.74C539.115 42.74 538.316 41.8671 538.316 40.6131ZM544.292 40.6254C544.292 42.5188 545.46 43.7728 547.23 43.7728C548.681 43.7728 549.799 42.8999 550.033 41.5967H548.877C548.668 42.3097 548.054 42.74 547.23 42.74C546.136 42.74 545.435 41.904 545.435 40.6131C545.435 39.3099 546.185 38.4739 547.279 38.4739C548.054 38.4739 548.668 38.8796 548.865 39.6419H550.021C549.812 38.3018 548.754 37.4412 547.242 37.4412C545.484 37.4412 544.292 38.7444 544.292 40.6254ZM551.818 36.1871C552.236 36.1871 552.58 35.8429 552.58 35.4249C552.58 34.9946 552.236 34.6626 551.818 34.6626C551.4 34.6626 551.056 34.9946 551.056 35.4249C551.056 35.8429 551.4 36.1871 551.818 36.1871ZM551.252 43.6252H552.408V37.6133H551.252V43.6252ZM553.692 40.6131C553.692 42.4696 555.02 43.7728 556.827 43.7728C558.622 43.7728 559.95 42.4696 559.95 40.6131C559.95 38.7567 558.622 37.4535 556.827 37.4535C555.02 37.4535 553.692 38.7567 553.692 40.6131ZM554.86 40.6131C554.86 39.3591 555.66 38.4862 556.827 38.4862C557.983 38.4862 558.795 39.3591 558.795 40.6131C558.795 41.8671 557.983 42.74 556.827 42.74C555.66 42.74 554.86 41.8671 554.86 40.6131ZM561.718 43.7728C562.185 43.7728 562.591 43.3794 562.591 42.9122C562.591 42.4327 562.185 42.0393 561.718 42.0393C561.238 42.0393 560.833 42.4327 560.833 42.9122C560.833 43.3794 561.238 43.7728 561.718 43.7728ZM563.489 40.6254C563.489 42.5188 564.657 43.7728 566.428 43.7728C567.879 43.7728 568.997 42.8999 569.231 41.5967H568.075C567.866 42.3097 567.252 42.74 566.428 42.74C565.334 42.74 564.633 41.904 564.633 40.6131C564.633 39.3099 565.383 38.4739 566.477 38.4739C567.252 38.4739 567.866 38.8796 568.063 39.6419H569.219C569.01 38.3018 567.952 37.4412 566.44 37.4412C564.682 37.4412 563.489 38.7444 563.489 40.6254ZM570.057 40.6131C570.057 42.4696 571.385 43.7728 573.192 43.7728C574.987 43.7728 576.315 42.4696 576.315 40.6131C576.315 38.7567 574.987 37.4535 573.192 37.4535C571.385 37.4535 570.057 38.7567 570.057 40.6131ZM571.225 40.6131C571.225 39.3591 572.024 38.4862 573.192 38.4862C574.348 38.4862 575.159 39.3591 575.159 40.6131C575.159 41.8671 574.348 42.74 573.192 42.74C572.024 42.74 571.225 41.8671 571.225 40.6131ZM578.75 43.6252V40.0599C578.75 39.1009 579.328 38.4985 580.2 38.4985C581.012 38.4985 581.528 39.0149 581.528 39.9615V43.6252H582.672V40.0599C582.672 39.1009 583.249 38.4862 584.122 38.4862C584.934 38.4862 585.462 39.0271 585.462 39.9738V43.6252H586.593V39.691C586.593 38.3018 585.757 37.4412 584.381 37.4412C583.446 37.4412 582.721 37.9084 582.438 38.6583C582.131 37.9084 581.467 37.4412 580.532 37.4412C579.684 37.4412 579.045 37.8346 578.737 38.4001L578.627 37.6133H577.594V43.6252H578.75ZM589.056 43.7728C589.523 43.7728 589.929 43.3794 589.929 42.9122C589.929 42.4327 589.523 42.0393 589.056 42.0393C588.577 42.0393 588.171 42.4327 588.171 42.9122C588.171 43.3794 588.577 43.7728 589.056 43.7728ZM592.638 43.6252L592.724 42.531C593.118 43.3548 593.917 43.7728 594.864 43.7728C596.609 43.7728 597.691 42.4696 597.691 40.65C597.691 38.7936 596.659 37.4412 594.937 37.4412C593.954 37.4412 593.142 37.8592 592.749 38.646V34.5766H591.593V43.6252H592.638ZM592.761 40.6008C592.761 39.3714 593.474 38.4862 594.655 38.4862C595.835 38.4862 596.536 39.3714 596.536 40.6008C596.536 41.8426 595.835 42.7278 594.655 42.7278C593.474 42.7278 592.761 41.8549 592.761 40.6008ZM602.408 37.5641C602.174 37.5149 602.002 37.4904 601.793 37.4904C600.969 37.4904 600.367 37.9084 600.121 38.5354L600.047 37.6256H598.965V43.6252H600.121V40.441C600.121 39.2853 600.797 38.6214 601.891 38.6214H602.408V37.5641Z" fill="#343651"/>
<circle cx="50.2951" cy="38.7356" r="3.74704" fill="#343651"/>
<circle opacity="0.6" cx="62.4724" cy="38.7356" r="3.74704" fill="#343651"/>
<circle opacity="0.3" cx="74.65" cy="38.7356" r="3.74704" fill="#343651"/>
<path d="M102.753 35.9248H103.689" stroke="#343651" stroke-width="1.36604" stroke-linecap="square" stroke-linejoin="round"/>
<path d="M102.753 37.7979H103.689" stroke="#343651" stroke-width="1.36604" stroke-linecap="square" stroke-linejoin="round"/>
<rect x="100.199" y="33.368" width="14.4807" height="11.6704" rx="2.04906" stroke="#343651" stroke-width="1.36604"/>
<path d="M105.565 33.583V44.8241" stroke="#343651" stroke-width="1.36604" stroke-linecap="square" stroke-linejoin="round"/>
<path d="M722.191 34.8935C721.582 34.8908 720.981 35.0247 720.431 35.2855C719.881 35.5463 719.397 35.9273 719.014 36.4002C717.822 37.86 717.808 40.028 718.986 41.5022C720.539 43.4534 723.372 43.5762 725.081 41.8671C725.627 41.3215 726.006 40.6322 726.176 39.8794C726.345 39.1266 726.298 38.3411 726.039 37.6143C725.912 37.2566 725.461 37.1518 725.193 37.4192C725.059 37.5529 725.005 37.7516 725.067 37.9287C725.308 38.5898 725.315 39.3139 725.085 39.9792C724.855 40.6445 724.404 41.2104 723.806 41.5817C722.826 42.2068 721.526 42.1996 720.554 41.5672C720.165 41.3215 719.837 40.9915 719.593 40.6017C719.349 40.212 719.196 39.7724 719.145 39.3155C719.094 38.8586 719.147 38.396 719.298 37.9621C719.45 37.5282 719.698 37.1339 720.023 36.8085C720.622 36.2087 721.406 35.9233 722.191 35.9269L722.191 37.0181C722.191 37.4734 722.74 37.7046 723.061 37.3831L724.358 36.0859C724.557 35.8871 724.557 35.562 724.358 35.3632L723.061 34.0661C722.74 33.7445 722.187 33.9721 722.187 34.4274L722.191 34.8935Z" fill="#343651"/>
<path d="M134.902 33.8979L130.219 38.5818L134.434 42.7972" stroke="#343651" stroke-width="2.04906" stroke-linecap="round" stroke-linejoin="round"/>
<path opacity="0.5" d="M152.229 42.7971L156.913 38.1133L152.697 33.8979" stroke="#343651" stroke-width="2.04906" stroke-linecap="round" stroke-linejoin="round"/>
<defs>
<filter id="filter0_bdi_126_6280" x="-121.032" y="-127.532" width="1303.06" height="978.339" filterUnits="userSpaceOnUse" color-interpolation-filters="sRGB">
<feFlood flood-opacity="0" result="BackgroundImageFix"/>
<feGaussianBlur in="BackgroundImageFix" stdDeviation="73.7662"/>
<feComposite in2="SourceAlpha" operator="in" result="effect1_backgroundBlur_126_6280"/>
<feColorMatrix in="SourceAlpha" type="matrix" values="0 0 0 0 0 0 0 0 0 0 0 0 0 0 0 0 0 0 127 0" result="hardAlpha"/>
<feOffset dy="6.83021"/>
<feGaussianBlur stdDeviation="12.9774"/>
<feComposite in2="hardAlpha" operator="out"/>
<feColorMatrix type="matrix" values="0 0 0 0 0 0 0 0 0 0 0 0 0 0 0 0 0 0 0.12 0"/>
<feBlend mode="normal" in2="effect1_backgroundBlur_126_6280" result="effect2_dropShadow_126_6280"/>
<feBlend mode="normal" in="SourceGraphic" in2="effect2_dropShadow_126_6280" result="shape"/>
<feColorMatrix in="SourceAlpha" type="matrix" values="0 0 0 0 0 0 0 0 0 0 0 0 0 0 0 0 0 0 127 0" result="hardAlpha"/>
<feOffset dy="1.36604"/>
<feComposite in2="hardAlpha" operator="arithmetic" k2="-1" k3="1"/>
<feColorMatrix type="matrix" values="0 0 0 0 1 0 0 0 0 1 0 0 0 0 1 0 0 0 0.2 0"/>
<feBlend mode="normal" in2="shape" result="effect3_innerShadow_126_6280"/>
</filter>
</defs>
</svg>
