<svg width="40" height="40" viewBox="0 0 40 40" fill="none" xmlns="http://www.w3.org/2000/svg">
<path d="M18.6549 10.458C19.2051 9.34311 20.7949 9.34311 21.3451 10.458L23.8802 15.5947L29.549 16.4184C30.7793 16.5972 31.2706 18.1092 30.3803 18.977L26.2784 22.9754L27.2467 28.6212C27.4569 29.8466 26.1707 30.781 25.0703 30.2025L20 27.5369L14.9297 30.2025C13.8293 30.781 12.5431 29.8466 12.7533 28.6212L13.7216 22.9754L9.61969 18.977C8.72942 18.1092 9.22068 16.5972 10.451 16.4184L16.1198 15.5947L18.6549 10.458ZM20 11.4984L17.5755 16.4109C17.357 16.8536 16.9347 17.1605 16.4461 17.2315L11.0249 18.0192L14.9477 21.8431C15.3013 22.1877 15.4626 22.6842 15.3791 23.1708L14.4531 28.5701L19.302 26.0209C19.739 25.7912 20.261 25.7912 20.698 26.0209L25.5469 28.5701L24.6209 23.1708C24.5374 22.6842 24.6987 22.1877 25.0523 21.8431L28.9751 18.0192L23.5539 17.2315C23.0653 17.1605 22.643 16.8536 22.4245 16.4109L20 11.4984Z" fill="#000C2C"/>
</svg>
