<svg width="564" height="340" viewBox="0 0 564 340" fill="none" xmlns="http://www.w3.org/2000/svg">
<path d="M2.83559 246C1.27602 246 0 244.724 0 243.165V197.795C0 196.236 1.27602 195.101 2.83559 195.101C4.39517 195.101 5.67119 196.236 5.67119 197.795V243.165C5.67119 244.724 4.39517 246 2.83559 246Z" fill="#FFB727"/>
<path d="M16.1626 246C14.603 246 13.327 244.724 13.327 243.164V161.499C13.327 159.94 14.603 158.664 16.1626 158.664C17.7221 158.664 18.8562 159.94 18.8562 161.499V243.164C18.8562 244.724 17.7221 246 16.1626 246Z" fill="#FFA927"/>
<path d="M29.4934 246C27.9339 246 26.6578 244.724 26.6578 243.165V141.792C26.6578 140.233 27.9339 138.957 29.4934 138.957C30.9112 138.957 32.1873 140.233 32.1873 141.792V243.165C32.1873 244.724 30.9112 246 29.4934 246Z" fill="#FFA727"/>
<path d="M42.6746 246C41.2568 246 39.9807 244.724 39.9807 243.164V130.45C39.9807 128.89 41.2568 127.756 42.6746 127.756C44.2341 127.756 45.5102 128.89 45.5102 130.45V243.164C45.5102 244.724 44.2341 246 42.6746 246Z" fill="#FFA827"/>
<path d="M56.0017 246.001C54.4421 246.001 53.3079 244.725 53.3079 243.165V124.637C53.3079 123.078 54.4421 121.943 56.0017 121.943C57.5613 121.943 58.8373 123.078 58.8373 124.637V243.165C58.8373 244.725 57.5613 246.001 56.0017 246.001Z" fill="#FFA727"/>
<path d="M69.3296 245.999C67.77 245.999 66.494 244.723 66.494 243.164V121.517C66.494 119.957 67.77 118.681 69.3296 118.681C70.8891 118.681 72.1651 119.957 72.1651 121.517V243.164C72.1651 244.723 70.8891 245.999 69.3296 245.999Z" fill="#FFA727"/>
<path d="M82.6583 245.999C81.0987 245.999 79.8227 244.723 79.8227 243.164V121.517C79.8227 119.957 81.0987 118.681 82.6583 118.681C84.2179 118.681 85.3521 119.957 85.3521 121.517V243.164C85.3521 244.723 84.2179 245.999 82.6583 245.999Z" fill="#FFA727"/>
<path d="M95.8416 246C94.4238 246 93.1478 244.724 93.1478 243.164V123.644C93.1478 122.085 94.4238 120.95 95.8416 120.95C97.4012 120.95 98.6772 122.085 98.6772 123.644V243.164C98.6772 244.724 97.4012 246 95.8416 246Z" fill="#FFA527"/>
<path d="M109.169 246C107.609 246 106.475 244.724 106.475 243.164V130.45C106.475 128.89 107.609 127.756 109.169 127.756C110.728 127.756 112.004 128.89 112.004 130.45V243.164C112.004 244.724 110.728 246 109.169 246Z" fill="#FFA027"/>
<path d="M122.498 246C120.938 246 119.662 244.724 119.662 243.164V140.516C119.662 138.956 120.938 137.68 122.498 137.68C124.058 137.68 125.334 138.956 125.334 140.516V243.164C125.334 244.724 124.058 246 122.498 246Z" fill="#FF9F27"/>
<path d="M135.827 246C134.267 246 132.991 244.724 132.991 243.164V157.671C132.991 156.111 134.267 154.835 135.827 154.835C137.387 154.835 138.521 156.111 138.521 157.671V243.164C138.521 244.724 137.387 246 135.827 246Z" fill="#FF9F27"/>
<path d="M149.15 246C147.591 246 146.315 244.724 146.315 243.164V180.498C146.315 178.938 147.591 177.662 149.15 177.662C150.568 177.662 151.844 178.938 151.844 180.498V243.164C151.844 244.724 150.568 246 149.15 246Z" fill="#FF9E27"/>
<path d="M162.337 245.999C160.919 245.999 159.643 244.723 159.643 243.164V202.331C159.643 200.772 160.919 199.496 162.337 199.496C163.897 199.496 165.173 200.772 165.173 202.331V243.164C165.173 244.723 163.897 245.999 162.337 245.999Z" fill="#FF9C27"/>
<path d="M175.666 246C174.107 246 172.973 244.724 172.973 243.164V216.226C172.973 214.667 174.107 213.391 175.666 213.391C177.226 213.391 178.502 214.667 178.502 216.226V243.164C178.502 244.724 177.226 246 175.666 246Z" fill="#FF9C27"/>
<path d="M188.994 246C187.434 246 186.158 244.724 186.158 243.164V226.718C186.158 225.158 187.434 224.024 188.994 224.024C190.553 224.024 191.829 225.158 191.829 226.718V243.164C191.829 244.724 190.553 246 188.994 246Z" fill="#FF9727"/>
<path d="M202.317 246C200.757 246 199.481 244.724 199.481 243.164V231.397C199.481 229.837 200.757 228.561 202.317 228.561C203.877 228.561 205.011 229.837 205.011 231.397V243.164C205.011 244.724 203.877 246 202.317 246Z" fill="#FF9727"/>
<path d="M215.504 246C214.086 246 212.81 244.724 212.81 243.164V233.665C212.81 232.105 214.086 230.829 215.504 230.829C217.064 230.829 218.34 232.105 218.34 233.665V243.164C218.34 244.724 217.064 246 215.504 246Z" fill="#FF9527"/>
<path d="M228.833 246C227.273 246 226.139 244.724 226.139 243.164V235.792C226.139 234.374 227.273 233.098 228.833 233.098C230.393 233.098 231.669 234.374 231.669 235.792V243.164C231.669 244.724 230.393 246 228.833 246Z" fill="#FF9327"/>
<path d="M242.163 246C240.603 246 239.327 244.724 239.327 243.164V233.665C239.327 232.105 240.603 230.829 242.163 230.829C243.722 230.829 244.998 232.105 244.998 233.665V243.164C244.998 244.724 243.722 246 242.163 246Z" fill="#FF9227"/>
<path d="M255.486 246C253.926 246 252.65 244.724 252.65 243.164V228.419C252.65 227.001 253.926 225.725 255.486 225.725C257.045 225.725 258.18 227.001 258.18 228.419V243.164C258.18 244.724 257.045 246 255.486 246Z" fill="#FF8F27"/>
<path d="M268.813 246C267.253 246 265.977 244.723 265.977 243.164V217.927C265.977 216.368 267.253 215.092 268.813 215.092C270.231 215.092 271.507 216.368 271.507 217.927V243.164C271.507 244.723 270.231 246 268.813 246Z" fill="#FF8D27"/>
<path d="M282.002 245.999C280.584 245.999 279.308 244.723 279.308 243.164V200.346C279.308 198.929 280.584 197.653 282.002 197.653C283.561 197.653 284.837 198.929 284.837 200.346V243.164C284.837 244.723 283.561 245.999 282.002 245.999Z" fill="#FF8E27"/>
<path d="M295.329 246C293.769 246 292.635 244.724 292.635 243.164V178.938C292.635 177.378 293.769 176.102 295.329 176.102C296.888 176.102 298.164 177.378 298.164 178.938V243.164C298.164 244.724 296.888 246 295.329 246Z" fill="#FF8C27"/>
<path d="M308.653 246C307.093 246 305.817 244.724 305.817 243.164V145.62C305.817 144.06 307.093 142.926 308.653 142.926C310.212 142.926 311.488 144.06 311.488 145.62V243.164C311.488 244.724 310.212 246 308.653 246Z" fill="#FF8C27"/>
<path d="M321.98 246C320.42 246 319.144 244.724 319.144 243.164V107.056C319.144 105.496 320.42 104.22 321.98 104.22C323.539 104.22 324.673 105.496 324.673 107.056V243.164C324.673 244.724 323.539 246 321.98 246Z" fill="#FF8A27"/>
<path d="M335.308 246C333.749 246 332.473 244.724 332.473 243.164V78.1328C332.473 76.5732 333.749 75.439 335.308 75.439C336.726 75.439 338.002 76.5732 338.002 78.1328V243.164C338.002 244.724 336.726 246 335.308 246Z" fill="#FF8827"/>
<path d="M348.495 246C346.936 246 345.802 244.724 345.802 243.164V63.671C345.802 62.1115 346.936 60.8354 348.495 60.8354C350.055 60.8354 351.331 62.1115 351.331 63.671V243.164C351.331 244.724 350.055 246 348.495 246Z" fill="#FF8527"/>
<path d="M361.821 246C360.262 246 358.986 244.724 358.986 243.164V60.6938C358.986 59.2761 360.262 58 361.821 58C363.381 58 364.657 59.2761 364.657 60.6938V243.164C364.657 244.724 363.381 246 361.821 246Z" fill="#FF8427"/>
<path d="M375.148 245.999C373.589 245.999 372.313 244.723 372.313 243.164V64.9469C372.313 63.3873 373.589 62.1113 375.148 62.1113C376.708 62.1113 377.842 63.3873 377.842 64.9469V243.164C377.842 244.723 376.708 245.999 375.148 245.999Z" fill="#FF8427"/>
<path d="M388.477 246C386.918 246 385.642 244.724 385.642 243.164V84.7965C385.642 83.237 386.918 81.9609 388.477 81.9609C389.895 81.9609 391.171 83.237 391.171 84.7965V243.164C391.171 244.724 389.895 246 388.477 246Z" fill="#FF8227"/>
<path d="M401.664 246C400.246 246 398.97 244.723 398.97 243.164V127.33C398.97 125.77 400.246 124.494 401.664 124.494C403.224 124.494 404.5 125.77 404.5 127.33V243.164C404.5 244.723 403.224 246 401.664 246Z" fill="#FF8027"/>
<path d="M414.989 246C413.43 246 412.296 244.724 412.296 243.164V181.915C412.296 180.356 413.43 179.08 414.989 179.08C416.549 179.08 417.825 180.356 417.825 181.915V243.164C417.825 244.724 416.549 246 414.989 246Z" fill="#FF8027"/>
<path d="M428.315 246C426.756 246 425.479 244.724 425.479 243.165V212.54C425.479 210.981 426.756 209.705 428.315 209.705C429.875 209.705 431.151 210.981 431.151 212.54V243.165C431.151 244.724 429.875 246 428.315 246Z" fill="#FF7C27"/>
<path d="M441.644 246C440.085 246 438.809 244.724 438.809 243.164V226.718C438.809 225.158 440.085 224.024 441.644 224.024C443.204 224.024 444.338 225.158 444.338 226.718V243.164C444.338 244.724 443.204 246 441.644 246Z" fill="#FF7D27"/>
<path d="M454.971 246C453.411 246 452.135 244.724 452.135 243.164V228.419C452.135 227.001 453.411 225.725 454.971 225.725C456.389 225.725 457.665 227.001 457.665 228.419V243.164C457.665 244.724 456.389 246 454.971 246Z" fill="#FF7927"/>
<path d="M468.158 246C466.599 246 465.464 244.724 465.464 243.165V226.718C465.464 225.159 466.599 224.024 468.158 224.024C469.718 224.024 470.994 225.159 470.994 226.718V243.165C470.994 244.724 469.718 246 468.158 246Z" fill="#FF7827"/>
<path d="M481.484 246C479.924 246 478.648 244.723 478.648 243.164V217.927C478.648 216.368 479.924 215.092 481.484 215.092C483.043 215.092 484.319 216.368 484.319 217.927V243.164C484.319 244.723 483.043 246 481.484 246Z" fill="#FF7727"/>
<path d="M494.813 246C493.253 246 491.977 244.724 491.977 243.164V198.504C491.977 196.944 493.253 195.668 494.813 195.668C496.372 195.668 497.507 196.944 497.507 198.504V243.164C497.507 244.724 496.372 246 494.813 246Z" fill="#FF7827"/>
<path d="M508.14 246C506.58 246 505.304 244.724 505.304 243.164V163.909C505.304 162.491 506.58 161.215 508.14 161.215C509.558 161.215 510.833 162.491 510.833 163.909V243.164C510.833 244.724 509.558 246 508.14 246Z" fill="#FF7727"/>
<path d="M521.323 245.999C519.905 245.999 518.629 244.723 518.629 243.164V141.933C518.629 140.374 519.905 139.098 521.323 139.098C522.883 139.098 524.159 140.374 524.159 141.933V243.164C524.159 244.723 522.883 245.999 521.323 245.999Z" fill="#FF7627"/>
<path d="M534.652 246.001C533.092 246.001 531.958 244.725 531.958 243.165V132.435C531.958 130.875 533.092 129.741 534.652 129.741C536.211 129.741 537.487 130.875 537.487 132.435V243.165C537.487 244.725 536.211 246.001 534.652 246.001Z" fill="#FF7327"/>
<path d="M547.98 246C546.42 246 545.144 244.723 545.144 243.164V127.33C545.144 125.77 546.42 124.494 547.98 124.494C549.539 124.494 550.815 125.77 550.815 127.33V243.164C550.815 244.723 549.539 246 547.98 246Z" fill="#FF7227"/>
<path d="M561.306 246C559.747 246 558.471 244.724 558.471 243.164V126.196C558.471 124.636 559.747 123.36 561.306 123.36C562.866 123.36 564 124.636 564 126.196V243.164C564 244.724 562.866 246 561.306 246Z" fill="#FF7127"/>
<path d="M14.1777 230.546L64.226 148.739C75.2848 129.315 95.9846 117.264 118.386 117.264H143.623C155.39 117.264 166.874 120.666 176.941 126.905L219.191 153.701C229.116 159.939 240.6 163.342 252.368 163.342H292.066C306.244 163.342 319.996 158.38 331.055 149.448L349.345 134.703C371.321 116.98 402.654 116.271 425.339 133.143C489.99 169.155 539.046 118.114 539.046 118.114" stroke="#000C2C" stroke-width="4" stroke-linecap="round" stroke-linejoin="round"/>
<path d="M90.4543 129.173C90.4543 133.71 86.768 137.397 82.0893 137.397C77.5523 137.397 73.7243 133.71 73.7243 129.173C73.7243 124.495 77.5523 120.808 82.0893 120.808C86.768 120.808 90.4543 124.495 90.4543 129.173Z" fill="#000C2C"/>
<path d="M166.59 118.824C166.59 123.36 162.904 127.189 158.225 127.189C153.688 127.189 149.86 123.36 149.86 118.824C149.86 114.145 153.688 110.458 158.225 110.458C162.904 110.458 166.59 114.145 166.59 118.824Z" fill="#000C2C"/>
<path d="M242.726 160.79C242.726 165.469 239.04 169.155 234.361 169.155C229.824 169.155 226.138 165.469 226.138 160.79C226.138 156.253 229.824 152.425 234.361 152.425C239.04 152.425 242.726 156.253 242.726 160.79Z" fill="#000C2C"/>
<path d="M318.86 160.79C318.86 165.469 315.174 169.155 310.637 169.155C305.959 169.155 302.272 165.469 302.272 160.79C302.272 156.253 305.959 152.425 310.637 152.425C315.174 152.425 318.86 156.253 318.86 160.79Z" fill="#000C2C"/>
<path d="M395.14 122.084C395.14 126.763 391.312 130.449 386.775 130.449C382.097 130.449 378.41 126.763 378.41 122.084C378.41 117.547 382.097 113.719 386.775 113.719C391.312 113.719 395.14 117.547 395.14 122.084Z" fill="#000C2C"/>
<path d="M471.274 145.053C471.274 149.59 467.446 153.276 462.909 153.276C458.231 153.276 454.544 149.59 454.544 145.053C454.544 140.374 458.231 136.688 462.909 136.688C467.446 136.688 471.274 140.374 471.274 145.053Z" fill="#000C2C"/>
<path d="M546.845 120.808C546.845 125.487 543.159 129.173 538.48 129.173C533.943 129.173 530.115 125.487 530.115 120.808C530.115 116.271 533.943 112.443 538.48 112.443C543.159 112.443 546.845 116.271 546.845 120.808Z" fill="#000C2C"/>
</svg>
