<svg width="48" height="48" viewBox="0 0 48 48" fill="none" xmlns="http://www.w3.org/2000/svg">
<g clip-path="url(#clip0_147_9920)">
<path d="M33.7249 35.8497C34.3133 35.8839 34.892 35.6883 35.3389 35.3041C36.2204 34.4174 36.2204 32.9854 35.3389 32.0987L16.0387 12.7984C15.1219 11.9406 13.6834 11.9882 12.8255 12.905C12.0498 13.734 12.0046 15.0082 12.7197 15.8901L32.1337 35.3041C32.5748 35.6827 33.1442 35.878 33.7249 35.8497Z" fill="white"/>
<path d="M14.4473 35.8497C15.0437 35.8471 15.6152 35.6104 16.0387 35.1904L35.339 15.89C36.1556 14.9365 36.0446 13.5014 35.091 12.6847C34.2399 11.9558 32.9847 11.9558 32.1336 12.6847L12.7197 31.985C11.8031 32.8431 11.7558 34.2817 12.6138 35.1982C12.648 35.2347 12.6832 35.2699 12.7197 35.3041C13.195 35.7175 13.8207 35.915 14.4473 35.8497Z" fill="white"/>
</g>
<defs>
<clipPath id="clip0_147_9920">
<rect width="24" height="24" fill="white" transform="matrix(-1 0 0 1 36 12)"/>
</clipPath>
</defs>
</svg>
