<svg width="128" height="130" viewBox="0 0 128 130" fill="none" xmlns="http://www.w3.org/2000/svg">
<rect width="128" height="130" fill="white"/>
<path fill-rule="evenodd" clip-rule="evenodd" d="M6.18412 7.18411C6.09415 7.27384 6.02059 13.5621 6.02059 21.158V34.9684H20.1181H34.2155V20.9945V7.02059H20.2816C12.6177 7.02059 6.27386 7.09414 6.18412 7.18411ZM38.1383 8.96542V10.9225L40.0384 10.9941L41.9385 11.0657L42.0059 15.0495L42.0733 19.0332H40.1058H38.1383V29.0846V39.136H34.0929H30.0476V41.0973V43.0585H28.0862H26.1248V41.0973V39.136H24.1634H22.202V41.0973V43.0585H24.1634H26.1248V45.0198V46.981H20.1181H14.1113V45.0198V43.0585H12.1499H10.1885V41.0973V39.136H8.09427H6L6.07159 41.036L6.14318 42.936L8.16586 43.0071L10.1885 43.0784V45.0296V46.981H8.09476H6.00074L6.07208 49.0036L6.14318 51.0261L8.16586 51.0972L10.1885 51.1685V49.0747V46.981H12.1401H14.0915L14.1628 49.0036L14.2339 51.0261L16.134 51.0977L18.0341 51.1693V53.1202V55.0712H12.017H6L6.07159 56.9711L6.14318 58.8711H14.1113H22.0794L22.1508 56.9812L22.2224 55.0915L24.1122 55.0199L26.0022 54.9486L26.0738 53.0486L26.1454 51.1487H30.1804H34.2155V53.1099V55.0712H32.1315H30.0476V57.0324V58.9937H28.0764H26.1049L26.1763 61.0162L26.2474 63.0388L28.1475 63.1103L30.0476 63.1819V65.0103V66.8387H32.1315H34.2155V68.7901V70.7413L32.1928 70.8127L30.1702 70.8837L30.0991 72.9063L30.0277 74.9288H26.1049H22.1822L22.2535 72.9063L22.3246 70.8837L24.2348 70.8119L26.1451 70.7401L26.0736 68.8507L26.0022 66.9613L24.1021 66.8897L22.202 66.8181V64.9897V63.1613H20.1181H18.0341V66.9613V70.7612H16.0727H14.1113V66.9613V63.1613H10.066H6.02059V64.9902V66.8188L8.04327 66.8902L10.066 66.9613L10.1375 68.8612L10.2091 70.7612H12.1602H14.1113V72.845V74.9288H18.1567H22.202V76.8803V78.8315L20.1793 78.9028L18.1567 78.9739L18.0853 80.8638L18.0137 82.7535L16.1239 82.8251L14.2339 82.8964L14.1628 84.9128L14.0917 86.9295L10.1174 86.9966L6.14318 87.064L6.07159 88.964L6 90.864H10.0557H14.1113V88.9027V86.9415H16.0727H18.0341V88.9027V90.864H20.1181H22.202V88.9027V86.9415H24.1634H26.1248V88.9027V90.864H32.1315H38.1383V94.909V98.9541H40.0997H42.061V94.909V90.864H44.1511H46.2412L46.1738 86.8802L46.1064 82.8964L44.0837 82.8253L42.061 82.754V80.8028V78.8513H44.145H46.229V76.8901V74.9288H47.4225H48.616L49.0284 73.4598C49.4398 71.9938 49.4393 71.9874 48.7788 70.2115C47.865 67.7543 47.6765 63.142 48.388 60.6485L48.8599 58.9937H47.5544H46.2488L46.1775 61.0162L46.1064 63.0388L44.0837 63.1099L42.061 63.1812V69.0549V74.9288H40.1058H38.1505L38.0831 70.945L38.0157 66.9613L36.1156 66.8897L34.2155 66.8181V64.9897V63.1613H32.1315H30.0476V61.0873V59.0135L32.0702 58.9422L34.0929 58.8711L34.1643 56.9812L34.2359 55.0915L36.1257 55.0199L38.0157 54.9486L38.087 53.0587L38.1586 51.169L40.0484 51.0974L41.9385 51.0261L42.0096 49.0134L42.0807 47.0006L44.0935 46.9295L46.1064 46.8585L46.1738 42.9972L46.2415 39.136H48.1965H50.1518V43.0688V47.0016L52.0519 46.93L53.9519 46.8585L54.0194 42.9972L54.087 39.136H52.1193H50.1518V33.1297V27.1234H57.9973H65.8428V29.0846V31.0459H64.004H62.1652V33.0071V34.9684H64.004H65.8428V33.0071V31.0459H67.9268H70.0108V37.0522V43.0585H67.9268H65.8428V41.0973V39.136H64.004H62.1652V41.0973V43.0585H60.2039H58.2425V46.2742V49.4897L58.7941 49.3328C59.0976 49.2463 59.8974 49.046 60.5716 48.8876C61.2458 48.729 61.8786 48.4836 61.9777 48.3419C62.0767 48.2002 62.1594 46.9533 62.1616 45.5714L62.1652 43.0585H64.004H65.8428L65.8465 45.5714C65.8487 46.9533 65.9314 48.1975 66.0304 48.3363C66.1295 48.4748 66.8174 48.7128 67.5591 48.8651C72.1681 49.8114 76.7293 53.2092 78.6536 57.1295L79.5735 59.0037L84.6604 58.9373L89.7472 58.8711L89.8129 52.9261L89.8786 46.981H87.9128H85.947V49.0649V51.1487H83.9857H82.0243V47.1036V43.0585H88.0266H94.0289L94.0946 49.0036L94.1603 54.9486H95.9991H97.8379L97.9054 50.9648L97.9728 46.981H108.029H118.085L118.013 49.0036L117.942 51.0261L115.926 51.0972L113.909 51.1683L113.842 55.0197L113.774 58.8711L103.896 58.9351L94.0179 58.9993L94.0892 61.0189L94.1603 63.0388L96.0604 63.1103L97.9605 63.1819V65V66.8181L99.8606 66.8897L101.761 66.9613L101.832 68.8612L101.904 70.7612H103.967H106.031L106.102 68.8612L106.174 66.9613L110.035 66.8938L113.897 66.8262V72.8389V78.8513H111.946H109.995L109.923 76.9514L109.851 75.0514L105.867 74.984L101.883 74.9166V76.884V78.8513H105.929H109.974V80.8126V82.7738H111.935H113.897V84.8478V86.9216L115.919 86.993L117.942 87.064L118.007 94.9703L118.072 102.877H115.984H113.897V106.922V110.967H109.974H106.051V112.928V114.889H103.967H101.883V116.851V118.812H99.9219H97.9605V116.851V114.889H95.9991H94.0378V110.844V106.799H102.006H109.974V104.838V102.877H108.013H106.051V100.915V98.9541H109.974H113.897V96.8703V94.7865H109.974H106.051V92.8252V90.864H108.013H109.974V88.9027V86.9415H105.929H101.883V84.8576V82.7738H97.9605H94.0378V84.8576V86.9415H89.9924H85.947V84.8576V82.7738H87.9084H89.8698V80.8023V78.8307L87.9697 78.9023L86.0696 78.9739L85.9983 80.8638L85.9267 82.7535L84.0369 82.8251L82.1469 82.8964L82.0758 84.9091L82.0047 86.9219L79.9918 86.993L77.9789 87.064L77.9073 88.964L77.8357 90.864H75.8846H73.9336V86.8189V82.7738H75.8949H77.8563V80.8126V78.8513H79.9403H82.0243V76.8901V74.9288H88.031H94.0378V76.8901V78.8513H96.0094H97.9811L97.9095 76.9514L97.8379 75.0514L95.9477 74.9801L94.0574 74.9085L93.9863 72.8962L93.9152 70.8837L87.9697 70.818L82.0243 70.7523V68.9326C82.0243 67.012 81.8585 66.7041 80.9472 66.9328C80.5081 67.0429 80.3262 67.3496 80.0977 68.3655C79.9379 69.0765 79.7412 69.9061 79.6611 70.2096C79.524 70.7288 79.5892 70.7612 80.7697 70.7612H82.0243V72.8352V74.909L80.0016 74.9803L77.9789 75.0514L77.9076 76.9413L77.836 78.831L75.9462 78.9026L74.0561 78.9739L73.9843 80.88L73.9127 82.7858L69.939 82.7187L65.9654 82.6512L65.8887 81.8545L65.8117 81.0577L64.1725 81.0536C62.7397 81.0496 60.567 80.6971 58.7941 80.1806C58.2685 80.0276 58.2425 80.0847 58.2425 81.3968V82.7738H54.1971H50.1518V84.8638V86.9537L54.1358 86.8863L58.1199 86.8189L58.1912 84.7863L58.2626 82.7535L60.1526 82.8251L62.0427 82.8964V86.8189V90.7414L60.1426 90.813L58.2425 90.8846V92.8355V94.7865H56.1688H54.0951L54.0235 92.8865L53.9519 90.9865L52.0519 90.915L50.1518 90.8434V92.8149V94.7865H48.1904H46.229V96.8747V98.9629L52.1744 98.8972L58.1199 98.8315L58.191 96.809L58.2623 94.7865H62.0427H65.823L65.8943 96.809L65.9654 98.8315L67.9881 98.9026L70.0108 98.974V102.896V106.819L67.9881 106.748L65.9654 106.677L65.8938 104.777L65.8222 102.877H62.0324H58.2425V104.828V106.779L60.1426 106.85L62.0427 106.922V108.883V110.844L58.0586 110.912L54.0745 110.979V108.889V106.799H48.0678H42.061V104.838V102.877H40.0997H38.1383V104.838V106.799H40.0997H42.061V108.883V110.967H44.145H46.229V112.928V114.889H44.145H42.061V116.851V118.812H40.0997H38.1383V120.906V123L40.0384 122.928L41.9385 122.857L42.0096 120.834L42.0809 118.812H44.1548H46.229V120.906V123L48.1291 122.928L50.0292 122.857L50.1003 120.834L50.1716 118.812H48.2002H46.229V116.861V114.91L48.1291 114.838L50.0292 114.767L50.1008 112.867L50.1724 110.967H52.1234H54.0745V112.928V114.889H56.1585H58.2425V118.945V123L60.1426 122.928L62.0427 122.857L62.1138 120.844L62.1849 118.832L64.0457 118.761L65.9066 118.689L65.936 116.851L65.9654 115.012L67.982 114.941L69.9985 114.87L70.066 118.863L70.1334 122.857L76.0788 122.923L82.0243 122.988V120.9V118.812H83.9759H85.9272L85.9985 120.834L86.0696 122.857L90.0537 122.924L94.0378 122.992V120.902V118.812H95.9991H97.9605V120.896V122.979H102.006H106.051V120.896V118.812H108.013H109.974V116.851V114.889H111.935H113.897V118.944V122.999L115.919 122.928L117.942 122.857L118.013 120.844L118.084 118.832L119.975 118.761L121.865 118.689L121.932 114.828L122 110.967H120.032H118.065V106.922V102.877H120.028H121.992L121.928 88.964L121.865 75.0514L119.965 74.9798L118.065 74.9082V72.8347V70.7612H120.026H121.987V64.8774V58.9937H120.026H118.065V57.0427V55.0918L119.965 55.0202L121.865 54.9486L121.93 47.0423L121.994 39.136H120.04H118.085L118.014 41.036L117.942 42.936L113.958 43.0034L109.974 43.0708V41.1034V39.136H99.9219H89.8698V35.091V31.0459H87.9084H85.947V29.0846V27.1234H87.9084H89.8698V25.0396V22.9557H87.9084H85.947V25.044V27.1322L80.0016 27.0665L74.0561 27.0008L73.985 24.9783L73.9137 22.9557H75.8851H77.8563V20.9945V19.0332H79.9403H82.0243V17.072V15.1107H85.947H89.8698V13.0208V10.9306L86.0083 10.9983L82.1469 11.0657L82.0758 13.0882L82.0044 15.1107H79.9305H77.8563V11.0554V7L75.9562 7.07159L74.0561 7.14317L73.9846 9.04313L73.913 10.9431H71.9619H70.0108V8.97204V7.00074L67.9881 7.07208L65.9654 7.14317V8.98184V10.8205L67.9881 10.8916L70.0108 10.9629V13.0367V15.1107H73.9336H77.8563V17.0617V19.0126L75.9562 19.0842L74.0561 19.1558L73.9843 21.0658L73.9125 22.9761L72.0229 22.9045L70.1334 22.8332L70.0618 20.9332L69.9902 19.0332H67.9165H65.8428V17.072V15.1107H64.004H62.1652V17.072V19.0332H54.2015H46.2378L46.1721 13.0882L46.1064 7.14317L42.1223 7.07575L38.1383 7.00834V8.96542ZM50.1518 11.0554V15.1107H54.1971H58.2425V13.0372V10.9637L60.1426 10.8921L62.0427 10.8205V8.98184V7.14317L60.1426 7.07159L58.2425 7V8.97155V10.9431H56.1688H54.0951L54.0235 9.04313L53.9519 7.14317L52.0519 7.07159L50.1518 7V11.0554ZM94.0378 20.9925V34.9684H108.015H121.992L121.928 21.0558L121.865 7.14317L107.951 7.07992L94.0378 7.01643V20.9925ZM30.0476 20.9945V31.0459H20.1181H10.1885V21.158C10.1885 15.7195 10.2621 11.1963 10.3521 11.1066C10.4418 11.0166 14.9101 10.9431 20.2816 10.9431H30.0476V20.9945ZM118.006 21.0558L118.07 31.0459H108.015H97.9605V20.9918V10.9377L107.951 11.0017L117.942 11.0657L118.006 21.0558ZM14.1113 21.1171V27.1234H20.1181H26.1248V21.1171V15.1107H20.1181H14.1113V21.1171ZM101.883 21.1171V27.1234H107.89H113.897V21.1171V15.1107H107.89H101.883V21.1171ZM65.8428 20.9945V22.9557H64.004H62.1652V20.9945V19.0332H64.004H65.8428V20.9945ZM46.229 31.0459V34.9684H44.145H42.061V31.0459V27.1234H44.145H46.229V31.0459ZM54.0745 33.0071V34.9882L56.0972 34.9169L58.1199 34.8458V33.0071V31.1685L56.0972 31.0974L54.0745 31.026V33.0071ZM77.8563 33.0174V34.989L75.9562 34.9174L74.0561 34.8458L73.9824 33.278C73.9417 32.4158 73.9657 31.561 74.0358 31.3781C74.1275 31.1393 74.6823 31.0459 76.0099 31.0459H77.8563V33.0174ZM85.947 35.091V39.136H83.9857H82.0243V41.0973V43.0585H79.9403H77.8563V47.1036V51.1487H79.9403H82.0243V53.1099V55.0712H79.9403H77.8563V53.1202V51.1693L75.9562 51.0977L74.0561 51.0261L73.9904 45.0811L73.9247 39.136H77.9745H82.0243V35.091V31.0459H83.9857H85.947V35.091ZM42.061 45.0198V46.981H40.0997H38.1383V49.0649V51.1487H36.1769H34.2155V49.0649V46.981H32.1315H30.0476V45.0198V43.0585H36.0543H42.061V45.0198ZM61.4351 50.9219C60.6967 51.0533 59.169 51.6076 58.0405 52.1538C51.2648 55.4333 48.3488 63.166 51.2217 70.2361L51.7917 71.6388L50.8333 75.1556C50.2305 77.3674 49.9608 78.7584 50.1069 78.9045C50.2528 79.0504 51.5958 78.803 53.7261 78.2377C57.2991 77.2897 57.5165 77.2848 59.8187 78.0972C63.0594 79.2406 67.0356 78.959 70.4016 77.3475C72.6587 76.2671 75.7074 73.2573 76.8251 71.0063C79.3176 65.9863 78.6186 60.2217 74.9721 55.7216C73.5315 53.9437 70.7598 52.0594 68.6067 51.3946C66.6978 50.805 63.3386 50.5836 61.4351 50.9219ZM101.934 53.0486L102.006 54.9486H105.929H109.851L109.923 53.0486L109.995 51.1487H105.929H101.863L101.934 53.0486ZM66.2268 53.6208C75.3377 55.2847 78.8042 66.5423 72.1963 73.0075C68.7437 76.3855 63.6736 77.25 59.3208 75.2024L57.8919 74.5302L55.8682 75.023C54.7551 75.2941 53.7955 75.4665 53.7359 75.4061C53.6764 75.3458 53.8556 74.4432 54.1341 73.4003L54.6409 71.504L53.8781 69.8455C52.8492 67.6075 52.4586 65.1571 52.8116 63.1528C53.6114 58.6134 57.1512 54.8172 61.5852 53.7439C63.3796 53.3097 64.3784 53.2833 66.2268 53.6208ZM50.1518 55.5914C50.1518 56.0263 50.2123 56.0616 50.5195 55.8067C50.7218 55.6387 50.8873 55.4046 50.8873 55.2864C50.8873 55.168 50.7218 55.0712 50.5195 55.0712C50.3082 55.0712 50.1518 55.2923 50.1518 55.5914ZM58.1525 59.245C56.4405 61.2793 57.1735 63.9189 60.4203 67.4116C63.3396 70.5518 67.7184 72.0845 69.7906 70.6913C70.5864 70.1564 71.3004 68.7607 71.0765 68.1777C71.0216 68.0343 70.2366 67.5523 69.3321 67.1064L67.6878 66.2957L66.9233 67.1799C66.5026 67.6666 65.9436 68.0645 65.681 68.0645C64.9941 68.0645 63.1712 66.8401 62.1243 65.6757C60.6834 64.0731 60.6265 63.8635 61.3567 62.8375L61.9934 61.9427L61.2667 60.2844C60.5822 58.7223 60.4895 58.6215 59.6689 58.5519C58.9471 58.4904 58.6877 58.6088 58.1525 59.245ZM85.947 65V66.8387H87.9084H89.8698V65V63.1613H87.9084H85.947V65ZM118.065 65V66.8387H115.981H113.897V65V63.1613H115.981H118.065V65ZM6.18412 75.0923C6.09415 75.1821 6.02059 76.0646 6.02059 77.0536V78.8513H8.10457H10.1885V76.8901V74.9288H8.2681C7.21165 74.9288 6.27386 75.0024 6.18412 75.0923ZM38.1383 80.9351V86.9415H32.1315H26.1248V82.8964V78.8513H28.0862H30.0476V76.8901V74.9288H34.0929H38.1383V80.9351ZM30.0476 80.8028V82.7738H32.1418H34.2361L34.1645 80.8739L34.0929 78.9739L32.0702 78.9028L30.0476 78.8315V80.8028ZM118.014 80.8739L118.085 82.7738H115.991H113.897V80.8028V78.8315L115.919 78.9028L117.942 78.9739L118.014 80.8739ZM22.202 84.8576V86.9415H20.1181H18.0341V84.8576V82.7738H20.1181H22.202V84.8576ZM70.0108 88.9027V90.864H71.9722H73.9336V92.8355V94.8071L72.0335 94.7355L70.1334 94.6639L70.062 92.7737L69.9904 90.8836L67.9781 90.8125L65.9654 90.7414L65.8916 89.1736C65.8509 88.3114 65.875 87.4566 65.9451 87.2737C66.0378 87.0324 66.611 86.9415 68.0418 86.9415H70.0108V88.9027ZM85.947 92.8252V94.7865H83.9857H82.0243V92.9887C82.0243 91.9998 82.0978 91.1172 82.1878 91.0275C82.2775 90.9375 83.1602 90.864 84.1492 90.864H85.947V92.8252ZM101.883 96.8703V102.877H95.8765H89.8698V96.8703V90.864H95.8765H101.883V96.8703ZM6.07993 108.822L6.14318 122.857L20.1793 122.92L34.2155 122.983V108.885V94.7865H20.1161H6.01667L6.07993 108.822ZM94.0378 96.8703V98.9541H95.9991H97.9605V96.8703V94.7865H95.9991H94.0378V96.8703ZM30.0476 108.886V118.817L20.1793 118.753L10.3111 118.689L10.2471 108.822L10.1829 98.9541H20.1154H30.0476V108.886ZM77.8563 100.915V102.877H79.9403H82.0243V104.838V106.799H85.947H89.8698V110.844V114.889H91.9538H94.0378V116.851V118.812H91.9538H89.8698V116.851V114.889H85.947H82.0243V116.86V118.832L80.0016 118.76L77.9789 118.689L77.9076 116.799L77.836 114.91L75.9462 114.838L74.0561 114.767L73.9848 112.877L73.9132 110.987L72.0234 110.916L70.1334 110.844L70.0623 108.822L69.9909 106.799H71.9624H73.9336V103.04C73.9336 100.972 74.0071 99.2074 74.0971 99.1176C74.1868 99.0277 75.0694 98.9541 76.0585 98.9541H77.8563V100.915ZM14.1113 108.883V114.889H20.1181H26.1248V108.883V102.877H20.1181H14.1113V108.883Z" fill="black"/>
</svg>
