<svg width="329" height="284" viewBox="0 0 329 284" fill="none" xmlns="http://www.w3.org/2000/svg">
<g clip-path="url(#clip0_53_4128)">
<rect x="0.5" width="328" height="284" rx="16" fill="white"/>
<path d="M62.036 36.0399V31.0959C62.036 29.4799 62.004 28.2959 61.924 27.7359L65.284 36.0399H66.756L70.132 27.7039C70.052 28.5199 70.036 29.3039 70.036 31.4639V36.0399H71.572V24.4719H70.004L66.02 34.1999L62.036 24.4719H60.5V36.0399H62.036Z" fill="#585C6A"/>
<path d="M75.2456 26.3599C75.7896 26.3599 76.2376 25.9119 76.2376 25.3679C76.2376 24.8079 75.7896 24.3759 75.2456 24.3759C74.7016 24.3759 74.2536 24.8079 74.2536 25.3679C74.2536 25.9119 74.7016 26.3599 75.2456 26.3599ZM74.5096 36.0399H76.0136V28.2159H74.5096V36.0399Z" fill="#585C6A"/>
<path d="M80.2011 36.0399V31.8959C80.2011 30.3759 81.0171 29.3679 82.4251 29.3679C83.5771 29.3679 84.3131 30.0079 84.3131 31.5919V36.0399H85.8171V31.2559C85.8171 29.2559 84.8731 27.9919 82.8091 27.9919C81.7051 27.9919 80.7131 28.5199 80.2171 29.4159L80.0571 28.2159H78.6971V36.0399H80.2011Z" fill="#585C6A"/>
<path d="M89.9042 36.0239V31.7679C89.9042 30.4239 90.6883 29.3679 92.1443 29.3679C93.2643 29.3679 94.0163 30.0079 94.0163 31.5919V36.0399H95.5202V31.2559C95.5202 29.2559 94.5602 27.9919 92.5602 27.9919C91.3442 27.9919 90.4002 28.5679 89.9042 29.4159V24.2639H88.4002V36.0239H89.9042Z" fill="#585C6A"/>
<path d="M100.391 36.2319C101.655 36.2319 102.727 35.6719 103.127 34.7759L103.287 36.0399H104.567V31.1279C104.567 29.0159 103.255 27.9919 101.319 27.9919C99.3034 27.9919 97.9594 29.0639 97.9594 30.6959H99.2714C99.2714 29.7519 99.9914 29.1919 101.255 29.1919C102.311 29.1919 103.095 29.6559 103.095 30.9679V31.1919L100.631 31.3839C98.7914 31.5279 97.7194 32.4239 97.7194 33.8639C97.7194 35.2879 98.7114 36.2319 100.391 36.2319ZM100.823 35.0639C99.8474 35.0639 99.2394 34.6479 99.2394 33.8159C99.2394 33.0479 99.7834 32.5359 101.111 32.4079L103.111 32.2479V32.6639C103.111 34.1359 102.247 35.0639 100.823 35.0639Z" fill="#585C6A"/>
<path d="M106.51 33.7679C106.51 35.2559 107.678 36.2319 109.518 36.2319C111.374 36.2319 112.654 35.2879 112.654 33.7999C112.654 32.6319 111.998 32.0239 110.67 31.7039L109.294 31.3679C108.526 31.1759 108.142 30.8239 108.142 30.2959C108.142 29.5759 108.67 29.1599 109.614 29.1599C110.526 29.1599 111.054 29.6559 111.086 30.4399H112.526C112.494 28.9519 111.374 27.9919 109.662 27.9919C107.934 27.9919 106.718 28.9039 106.718 30.3439C106.718 31.4959 107.374 32.1839 108.766 32.5199L110.142 32.8399C110.958 33.0479 111.214 33.3679 111.214 33.8959C111.214 34.6159 110.606 35.0479 109.55 35.0479C108.558 35.0479 107.95 34.5679 107.95 33.7679H106.51Z" fill="#585C6A"/>
<path d="M121.233 36.0399V24.2639H119.729V36.0399H121.233Z" fill="#585C6A"/>
<path d="M123.435 32.1199C123.435 34.5359 125.163 36.2319 127.515 36.2319C129.851 36.2319 131.579 34.5359 131.579 32.1199C131.579 29.7039 129.851 28.0079 127.515 28.0079C125.163 28.0079 123.435 29.7039 123.435 32.1199ZM124.955 32.1199C124.955 30.4879 125.995 29.3519 127.515 29.3519C129.019 29.3519 130.075 30.4879 130.075 32.1199C130.075 33.7519 129.019 34.8879 127.515 34.8879C125.995 34.8879 124.955 33.7519 124.955 32.1199Z" fill="#585C6A"/>
<path d="M134.496 26.3599C135.024 26.3599 135.488 25.9119 135.488 25.3679C135.488 24.8079 135.024 24.3759 134.496 24.3759C133.936 24.3759 133.504 24.8079 133.504 25.3679C133.504 25.9119 133.936 26.3599 134.496 26.3599ZM131.76 39.5919C132.208 39.7199 132.464 39.7359 132.864 39.7359C134.384 39.7359 135.248 38.7599 135.248 37.1919V28.2159H133.744V37.0479C133.744 37.9279 133.456 38.3439 132.736 38.3439C132.496 38.3439 132.32 38.3119 132.016 38.2319L131.76 39.5919Z" fill="#585C6A"/>
<path d="M140.219 36.2319C141.483 36.2319 142.555 35.6719 142.955 34.7759L143.116 36.0399H144.396V31.1279C144.396 29.0159 143.083 27.9919 141.147 27.9919C139.131 27.9919 137.787 29.0639 137.787 30.6959H139.099C139.099 29.7519 139.819 29.1919 141.083 29.1919C142.139 29.1919 142.924 29.6559 142.924 30.9679V31.1919L140.459 31.3839C138.619 31.5279 137.548 32.4239 137.548 33.8639C137.548 35.2879 138.539 36.2319 140.219 36.2319ZM140.651 35.0639C139.675 35.0639 139.067 34.6479 139.067 33.8159C139.067 33.0479 139.611 32.5359 140.939 32.4079L142.939 32.2479V32.6639C142.939 34.1359 142.075 35.0639 140.651 35.0639Z" fill="#585C6A"/>
<path d="M146.338 33.7679C146.338 35.2559 147.506 36.2319 149.346 36.2319C151.202 36.2319 152.482 35.2879 152.482 33.7999C152.482 32.6319 151.826 32.0239 150.498 31.7039L149.122 31.3679C148.354 31.1759 147.97 30.8239 147.97 30.2959C147.97 29.5759 148.498 29.1599 149.442 29.1599C150.354 29.1599 150.882 29.6559 150.914 30.4399H152.354C152.322 28.9519 151.202 27.9919 149.49 27.9919C147.762 27.9919 146.546 28.9039 146.546 30.3439C146.546 31.4959 147.202 32.1839 148.594 32.5199L149.97 32.8399C150.786 33.0479 151.042 33.3679 151.042 33.8959C151.042 34.6159 150.434 35.0479 149.378 35.0479C148.386 35.0479 147.778 34.5679 147.778 33.7679H146.338Z" fill="#585C6A"/>
<path d="M165.732 30.5L169.482 34.25L173.232 30.5H165.732Z" fill="#49454F"/>
<path d="M328.5 63H0.5V65H328.5V63Z" fill="#CAC4D0" mask="url(#path-2-inside-1_53_4128)"/>
<g clip-path="url(#clip1_53_4128)">
<g clip-path="url(#clip2_53_4128)">
<path d="M56.5 96.9201C56.5 98.9201 57.716 100.328 59.924 100.328C61.988 100.328 63.38 99.0161 63.38 96.9361V88.5681H61.812V96.8721C61.812 98.0721 61.236 98.8721 59.924 98.8721C58.644 98.8721 58.02 98.0561 58.02 96.9201V96.3441H56.5V96.9201Z" fill="#000C2C"/>
<path d="M69.6128 100.328C71.5488 100.328 72.8608 99.3841 73.2448 97.7041H71.8368C71.5807 98.6001 70.8128 99.0801 69.6448 99.0801C68.1568 99.0801 67.2927 98.1681 67.1807 96.5201L73.2288 96.5041V95.9441C73.2288 93.6241 71.7728 92.0881 69.5487 92.0881C67.2767 92.0881 65.7248 93.7841 65.7248 96.2321C65.7248 98.6641 67.3088 100.328 69.6128 100.328ZM69.5487 93.3521C70.8767 93.3521 71.7248 94.2161 71.7248 95.5121H67.2128C67.4048 94.1361 68.2367 93.3521 69.5487 93.3521Z" fill="#000C2C"/>
<path d="M77.5385 100.136V93.5761H79.0745V92.3121H77.5385V89.8641H76.0345V92.3121H74.4985V93.5761H76.0345V100.136H77.5385Z" fill="#000C2C"/>
<path d="M85.3833 91.6881C85.3833 93.3521 86.3592 94.4401 88.2472 94.8721L90.1512 95.3041C91.2552 95.5601 91.7513 96.1361 91.7513 97.0481C91.7513 98.2001 90.7752 98.9201 89.2393 98.9201C87.7832 98.9201 86.8552 98.2161 86.8232 97.1121H85.2232C85.3192 99.0961 86.8872 100.328 89.2393 100.328C91.7032 100.328 93.3193 99.0001 93.3193 96.9201C93.3193 95.2881 92.3593 94.2641 90.4713 93.8321L88.5672 93.3841C87.4792 93.1281 86.9513 92.5681 86.9513 91.6401C86.9513 90.5041 87.8952 89.7681 89.3512 89.7681C90.6472 89.7681 91.4633 90.4401 91.5433 91.5921H93.1273C92.9993 89.5921 91.5752 88.3601 89.3672 88.3601C86.9832 88.3601 85.3833 89.7041 85.3833 91.6881Z" fill="#000C2C"/>
<path d="M95.5336 103.64H97.0376V98.8561C97.5496 99.8161 98.5896 100.344 99.8376 100.344C102.158 100.344 103.47 98.5521 103.47 96.1681C103.47 93.7681 102.078 92.0881 99.8376 92.0881C98.5896 92.0881 97.5336 92.6481 97.0056 93.7201L96.8936 92.3121H95.5336V103.64ZM97.0536 96.2321C97.0536 94.6001 97.9816 93.4641 99.5176 93.4641C101.054 93.4641 101.966 94.6161 101.966 96.2321C101.966 97.8321 101.054 98.9841 99.5176 98.9841C97.9816 98.9841 97.0536 97.8321 97.0536 96.2321Z" fill="#000C2C"/>
<path d="M105.115 96.2161C105.115 98.6321 106.843 100.328 109.195 100.328C111.531 100.328 113.259 98.6321 113.259 96.2161C113.259 93.8001 111.531 92.1041 109.195 92.1041C106.843 92.1041 105.115 93.8001 105.115 96.2161ZM106.635 96.2161C106.635 94.5841 107.675 93.4481 109.195 93.4481C110.699 93.4481 111.755 94.5841 111.755 96.2161C111.755 97.8481 110.699 98.9841 109.195 98.9841C107.675 98.9841 106.635 97.8481 106.635 96.2161Z" fill="#000C2C"/>
<path d="M119.904 92.2481C119.6 92.1841 119.376 92.1521 119.104 92.1521C118.032 92.1521 117.248 92.6961 116.928 93.5121L116.832 92.3281H115.424V100.136H116.928V95.9921C116.928 94.4881 117.808 93.6241 119.232 93.6241H119.904V92.2481Z" fill="#000C2C"/>
<path d="M124.335 100.136V93.5761H125.871V92.3121H124.335V89.8641H122.831V92.3121H121.295V93.5761H122.831V100.136H124.335Z" fill="#000C2C"/>
<path d="M127.081 97.8641C127.081 99.3521 128.249 100.328 130.089 100.328C131.945 100.328 133.225 99.3841 133.225 97.8961C133.225 96.7281 132.569 96.1201 131.241 95.8001L129.865 95.4641C129.097 95.2721 128.713 94.9201 128.713 94.3921C128.713 93.6721 129.241 93.2561 130.185 93.2561C131.097 93.2561 131.625 93.7521 131.657 94.5361H133.097C133.065 93.0481 131.945 92.0881 130.233 92.0881C128.505 92.0881 127.289 93.0001 127.289 94.4401C127.289 95.5921 127.945 96.2801 129.337 96.6161L130.713 96.9361C131.529 97.1441 131.785 97.4641 131.785 97.9921C131.785 98.7121 131.177 99.1441 130.121 99.1441C129.129 99.1441 128.521 98.6641 128.521 97.8641H127.081Z" fill="#000C2C"/>
</g>
<rect x="0.5" y="120" width="312" height="48" fill="#1C1B1F" fill-opacity="0.08"/>
<path d="M25.5 148.17L21.33 144L19.91 145.41L25.5 151L37.5 139L36.09 137.59L25.5 148.17Z" fill="#49454F"/>
<g clip-path="url(#clip3_53_4128)">
<path d="M58.132 148.136L59.156 145.256H64.02L65.06 148.136H66.708L62.468 136.568H60.724L56.5 148.136H58.132ZM61.396 139.064C61.476 138.824 61.556 138.552 61.588 138.392C61.62 138.568 61.7 138.84 61.78 139.064L63.556 143.896H59.636L61.396 139.064Z" fill="#000C2C"/>
<path d="M70.0258 148.136V136.36H68.5217V148.136H70.0258Z" fill="#000C2C"/>
<path d="M75.0278 148.328C76.2918 148.328 77.3637 147.768 77.7638 146.872L77.9237 148.136H79.2038V143.224C79.2038 141.112 77.8918 140.088 75.9558 140.088C73.9398 140.088 72.5958 141.16 72.5958 142.792H73.9078C73.9078 141.848 74.6278 141.288 75.8918 141.288C76.9478 141.288 77.7318 141.752 77.7318 143.064V143.288L75.2678 143.48C73.4278 143.624 72.3558 144.52 72.3558 145.96C72.3558 147.384 73.3477 148.328 75.0278 148.328ZM75.4598 147.16C74.4838 147.16 73.8758 146.744 73.8758 145.912C73.8758 145.144 74.4198 144.632 75.7478 144.504L77.7478 144.344V144.76C77.7478 146.232 76.8838 147.16 75.4598 147.16Z" fill="#000C2C"/>
<path d="M81.1466 145.864C81.1466 147.352 82.3146 148.328 84.1546 148.328C86.0106 148.328 87.2906 147.384 87.2906 145.896C87.2906 144.728 86.6346 144.12 85.3066 143.8L83.9306 143.464C83.1626 143.272 82.7786 142.92 82.7786 142.392C82.7786 141.672 83.3066 141.256 84.2506 141.256C85.1626 141.256 85.6906 141.752 85.7226 142.536H87.1626C87.1306 141.048 86.0106 140.088 84.2986 140.088C82.5706 140.088 81.3546 141 81.3546 142.44C81.3546 143.592 82.0106 144.28 83.4026 144.616L84.7786 144.936C85.5946 145.144 85.8506 145.464 85.8506 145.992C85.8506 146.712 85.2426 147.144 84.1866 147.144C83.1946 147.144 82.5866 146.664 82.5866 145.864H81.1466Z" fill="#000C2C"/>
<path d="M90.9945 148.136V145.912L92.3225 144.52L94.6105 148.136H96.3385L93.3625 143.432L96.3545 140.312H94.4665L90.9945 143.992V136.36H89.4905V148.136H90.9945Z" fill="#000C2C"/>
<path d="M100.184 148.328C101.448 148.328 102.52 147.768 102.92 146.872L103.08 148.136H104.36V143.224C104.36 141.112 103.048 140.088 101.112 140.088C99.096 140.088 97.752 141.16 97.752 142.792H99.064C99.064 141.848 99.784 141.288 101.048 141.288C102.104 141.288 102.888 141.752 102.888 143.064V143.288L100.424 143.48C98.584 143.624 97.512 144.52 97.512 145.96C97.512 147.384 98.504 148.328 100.184 148.328ZM100.616 147.16C99.64 147.16 99.032 146.744 99.032 145.912C99.032 145.144 99.576 144.632 100.904 144.504L102.904 144.344V144.76C102.904 146.232 102.04 147.16 100.616 147.16Z" fill="#000C2C"/>
<path d="M111.402 139.688C111.402 141.352 112.378 142.44 114.266 142.872L116.17 143.304C117.274 143.56 117.77 144.136 117.77 145.048C117.77 146.2 116.794 146.92 115.258 146.92C113.802 146.92 112.874 146.216 112.842 145.112H111.242C111.338 147.096 112.906 148.328 115.258 148.328C117.722 148.328 119.338 147 119.338 144.92C119.338 143.288 118.378 142.264 116.49 141.832L114.586 141.384C113.498 141.128 112.97 140.568 112.97 139.64C112.97 138.504 113.914 137.768 115.37 137.768C116.666 137.768 117.482 138.44 117.562 139.592H119.146C119.018 137.592 117.594 136.36 115.386 136.36C113.002 136.36 111.402 137.704 111.402 139.688Z" fill="#000C2C"/>
<path d="M126.96 140.312V144.44C126.96 146.12 126.208 147 124.832 147C123.68 147 122.96 146.36 122.96 144.68V140.312H121.456V145.176C121.456 147.096 122.48 148.328 124.304 148.328C125.456 148.328 126.496 147.768 126.944 146.952L127.104 148.136H128.448V140.312H126.96Z" fill="#000C2C"/>
<path d="M131.13 151.64H132.634V146.856C133.146 147.816 134.186 148.344 135.434 148.344C137.754 148.344 139.066 146.552 139.066 144.168C139.066 141.768 137.674 140.088 135.434 140.088C134.186 140.088 133.13 140.648 132.602 141.72L132.49 140.312H131.13V151.64ZM132.65 144.232C132.65 142.6 133.578 141.464 135.114 141.464C136.65 141.464 137.562 142.616 137.562 144.232C137.562 145.832 136.65 146.984 135.114 146.984C133.578 146.984 132.65 145.832 132.65 144.232Z" fill="#000C2C"/>
<path d="M142.76 148.136V136.36H141.256V148.136H142.76Z" fill="#000C2C"/>
<path d="M148.85 148.328C150.786 148.328 152.098 147.384 152.482 145.704H151.074C150.818 146.6 150.05 147.08 148.882 147.08C147.394 147.08 146.53 146.168 146.418 144.52L152.466 144.504V143.944C152.466 141.624 151.01 140.088 148.786 140.088C146.514 140.088 144.962 141.784 144.962 144.232C144.962 146.664 146.546 148.328 148.85 148.328ZM148.786 141.352C150.114 141.352 150.962 142.216 150.962 143.512H146.45C146.642 142.136 147.474 141.352 148.786 141.352Z" fill="#000C2C"/>
<path d="M156.15 148.136V143.496C156.15 142.248 156.902 141.464 158.038 141.464C159.094 141.464 159.766 142.136 159.766 143.368V148.136H161.254V143.496C161.254 142.248 162.006 141.448 163.142 141.448C164.198 141.448 164.886 142.152 164.886 143.384V148.136H166.358V143.016C166.358 141.208 165.27 140.088 163.478 140.088C162.262 140.088 161.318 140.696 160.95 141.672C160.55 140.696 159.686 140.088 158.47 140.088C157.366 140.088 156.534 140.6 156.134 141.336L155.99 140.312H154.646V148.136H156.15Z" fill="#000C2C"/>
<path d="M172.319 148.328C174.255 148.328 175.567 147.384 175.951 145.704H174.543C174.287 146.6 173.519 147.08 172.351 147.08C170.863 147.08 169.999 146.168 169.887 144.52L175.935 144.504V143.944C175.935 141.624 174.479 140.088 172.255 140.088C169.983 140.088 168.431 141.784 168.431 144.232C168.431 146.664 170.015 148.328 172.319 148.328ZM172.255 141.352C173.583 141.352 174.431 142.216 174.431 143.512H169.919C170.111 142.136 170.943 141.352 172.255 141.352Z" fill="#000C2C"/>
<path d="M179.619 148.136V143.992C179.619 142.472 180.435 141.464 181.843 141.464C182.995 141.464 183.731 142.104 183.731 143.688V148.136H185.235V143.352C185.235 141.352 184.291 140.088 182.227 140.088C181.123 140.088 180.131 140.616 179.635 141.512L179.475 140.312H178.115V148.136H179.619Z" fill="#000C2C"/>
<path d="M190.026 148.136V141.576H191.562V140.312H190.026V137.864H188.522V140.312H186.986V141.576H188.522V148.136H190.026Z" fill="#000C2C"/>
<path d="M192.822 144.216C192.822 146.632 194.55 148.328 196.902 148.328C199.238 148.328 200.965 146.632 200.965 144.216C200.965 141.8 199.238 140.104 196.902 140.104C194.55 140.104 192.822 141.8 192.822 144.216ZM194.341 144.216C194.341 142.584 195.382 141.448 196.902 141.448C198.406 141.448 199.462 142.584 199.462 144.216C199.462 145.848 198.406 146.984 196.902 146.984C195.382 146.984 194.341 145.848 194.341 144.216Z" fill="#000C2C"/>
<path d="M202.49 145.864C202.49 147.352 203.658 148.328 205.498 148.328C207.354 148.328 208.634 147.384 208.634 145.896C208.634 144.728 207.978 144.12 206.65 143.8L205.274 143.464C204.506 143.272 204.122 142.92 204.122 142.392C204.122 141.672 204.65 141.256 205.594 141.256C206.506 141.256 207.034 141.752 207.066 142.536H208.506C208.474 141.048 207.354 140.088 205.642 140.088C203.914 140.088 202.698 141 202.698 142.44C202.698 143.592 203.354 144.28 204.746 144.616L206.122 144.936C206.938 145.144 207.194 145.464 207.194 145.992C207.194 146.712 206.586 147.144 205.53 147.144C204.538 147.144 203.93 146.664 203.93 145.864H202.49Z" fill="#000C2C"/>
</g>
<g clip-path="url(#clip4_53_4128)">
<path d="M56.66 187.608C56.66 189.272 57.636 190.36 59.524 190.792L61.428 191.224C62.532 191.48 63.028 192.056 63.028 192.968C63.028 194.12 62.052 194.84 60.516 194.84C59.06 194.84 58.132 194.136 58.1 193.032H56.5C56.596 195.016 58.164 196.248 60.516 196.248C62.98 196.248 64.596 194.92 64.596 192.84C64.596 191.208 63.636 190.184 61.748 189.752L59.844 189.304C58.756 189.048 58.228 188.488 58.228 187.56C58.228 186.424 59.172 185.688 60.628 185.688C61.924 185.688 62.74 186.36 62.82 187.512H64.404C64.276 185.512 62.852 184.28 60.644 184.28C58.26 184.28 56.66 185.624 56.66 187.608Z" fill="#000C2C"/>
<path d="M72.2184 188.232V192.36C72.2184 194.04 71.4664 194.92 70.0904 194.92C68.9384 194.92 68.2184 194.28 68.2184 192.6V188.232H66.7144V193.096C66.7144 195.016 67.7384 196.248 69.5624 196.248C70.7144 196.248 71.7544 195.688 72.2024 194.872L72.3624 196.056H73.7064V188.232H72.2184Z" fill="#000C2C"/>
<path d="M75.5923 193.784C75.5923 195.272 76.7603 196.248 78.6003 196.248C80.4563 196.248 81.7363 195.304 81.7363 193.816C81.7363 192.648 81.0803 192.04 79.7523 191.72L78.3763 191.384C77.6083 191.192 77.2243 190.84 77.2243 190.312C77.2243 189.592 77.7523 189.176 78.6963 189.176C79.6083 189.176 80.1363 189.672 80.1683 190.456H81.6083C81.5763 188.968 80.4563 188.008 78.7443 188.008C77.0163 188.008 75.8003 188.92 75.8003 190.36C75.8003 191.512 76.4563 192.2 77.8483 192.536L79.2243 192.856C80.0403 193.064 80.2963 193.384 80.2963 193.912C80.2963 194.632 79.6883 195.064 78.6323 195.064C77.6403 195.064 77.0323 194.584 77.0323 193.784H75.5923Z" fill="#000C2C"/>
<path d="M82.9959 199.56C83.3959 199.656 83.8119 199.72 84.3079 199.72C85.5079 199.72 86.2919 199.16 86.8199 197.816L90.5159 188.232H88.9639L86.6439 194.536L84.3719 188.232H82.7879L85.9399 196.472L85.6679 197.224C85.2999 198.216 84.7239 198.328 84.0039 198.328H82.9959V199.56Z" fill="#000C2C"/>
<path d="M103.46 191.144V189.72H98.9156V185.928H104.324V184.488H97.3476V196.056H98.9156V191.144H103.46Z" fill="#000C2C"/>
<path d="M109.233 196.248C111.169 196.248 112.481 195.304 112.865 193.624H111.457C111.201 194.52 110.433 195 109.265 195C107.777 195 106.913 194.088 106.801 192.44L112.849 192.424V191.864C112.849 189.544 111.393 188.008 109.169 188.008C106.897 188.008 105.345 189.704 105.345 192.152C105.345 194.584 106.929 196.248 109.233 196.248ZM109.169 189.272C110.497 189.272 111.345 190.136 111.345 191.432H106.833C107.025 190.056 107.857 189.272 109.169 189.272Z" fill="#000C2C"/>
<path d="M114.389 193.784C114.389 195.272 115.557 196.248 117.397 196.248C119.253 196.248 120.533 195.304 120.533 193.816C120.533 192.648 119.877 192.04 118.549 191.72L117.173 191.384C116.405 191.192 116.021 190.84 116.021 190.312C116.021 189.592 116.549 189.176 117.493 189.176C118.405 189.176 118.933 189.672 118.965 190.456H120.405C120.373 188.968 119.253 188.008 117.541 188.008C115.813 188.008 114.597 188.92 114.597 190.36C114.597 191.512 115.253 192.2 116.645 192.536L118.021 192.856C118.837 193.064 119.093 193.384 119.093 193.912C119.093 194.632 118.485 195.064 117.429 195.064C116.437 195.064 115.829 194.584 115.829 193.784H114.389Z" fill="#000C2C"/>
<path d="M124.909 196.056V189.496H126.445V188.232H124.909V185.784H123.405V188.232H121.869V189.496H123.405V196.056H124.909Z" fill="#000C2C"/>
<path d="M130.489 196.248C131.753 196.248 132.825 195.688 133.225 194.792L133.385 196.056H134.665V191.144C134.665 189.032 133.353 188.008 131.417 188.008C129.401 188.008 128.057 189.08 128.057 190.712H129.369C129.369 189.768 130.089 189.208 131.353 189.208C132.409 189.208 133.193 189.672 133.193 190.984V191.208L130.729 191.4C128.889 191.544 127.817 192.44 127.817 193.88C127.817 195.304 128.809 196.248 130.489 196.248ZM130.921 195.08C129.945 195.08 129.337 194.664 129.337 193.832C129.337 193.064 129.881 192.552 131.209 192.424L133.209 192.264V192.68C133.209 194.152 132.345 195.08 130.921 195.08Z" fill="#000C2C"/>
<path d="M136.608 193.784C136.608 195.272 137.776 196.248 139.616 196.248C141.472 196.248 142.752 195.304 142.752 193.816C142.752 192.648 142.096 192.04 140.768 191.72L139.392 191.384C138.624 191.192 138.24 190.84 138.24 190.312C138.24 189.592 138.768 189.176 139.712 189.176C140.624 189.176 141.152 189.672 141.184 190.456H142.624C142.592 188.968 141.472 188.008 139.76 188.008C138.032 188.008 136.816 188.92 136.816 190.36C136.816 191.512 137.472 192.2 138.864 192.536L140.24 192.856C141.056 193.064 141.312 193.384 141.312 193.912C141.312 194.632 140.704 195.064 139.648 195.064C138.656 195.064 138.048 194.584 138.048 193.784H136.608Z" fill="#000C2C"/>
</g>
<g clip-path="url(#clip5_53_4128)">
<path d="M56.66 235.592C56.66 237.256 57.636 238.344 59.524 238.776L61.428 239.208C62.532 239.464 63.028 240.04 63.028 240.952C63.028 242.104 62.052 242.824 60.516 242.824C59.06 242.824 58.132 242.12 58.1 241.016H56.5C56.596 243 58.164 244.232 60.516 244.232C62.98 244.232 64.596 242.904 64.596 240.824C64.596 239.192 63.636 238.168 61.748 237.736L59.844 237.288C58.756 237.032 58.228 236.472 58.228 235.544C58.228 234.408 59.172 233.672 60.628 233.672C61.924 233.672 62.74 234.344 62.82 235.496H64.404C64.276 233.496 62.852 232.264 60.644 232.264C58.26 232.264 56.66 233.608 56.66 235.592Z" fill="#000C2C"/>
<path d="M70.1864 244.232C72.1224 244.232 73.4344 243.288 73.8184 241.608H72.4104C72.1544 242.504 71.3864 242.984 70.2184 242.984C68.7304 242.984 67.8664 242.072 67.7544 240.424L73.8024 240.408V239.848C73.8024 237.528 72.3464 235.992 70.1224 235.992C67.8504 235.992 66.2984 237.688 66.2984 240.136C66.2984 242.568 67.8824 244.232 70.1864 244.232ZM70.1224 237.256C71.4504 237.256 72.2984 238.12 72.2984 239.416H67.7864C67.9784 238.04 68.8104 237.256 70.1224 237.256Z" fill="#000C2C"/>
<path d="M80.4623 236.152C80.1583 236.088 79.9343 236.056 79.6623 236.056C78.5903 236.056 77.8063 236.6 77.4862 237.416L77.3903 236.232H75.9823V244.04H77.4862V239.896C77.4862 238.392 78.3663 237.528 79.7903 237.528H80.4623V236.152Z" fill="#000C2C"/>
<path d="M85.4676 244.232C87.4036 244.232 88.7156 243.288 89.0996 241.608H87.6916C87.4356 242.504 86.6676 242.984 85.4996 242.984C84.0116 242.984 83.1476 242.072 83.0356 240.424L89.0836 240.408V239.848C89.0836 237.528 87.6276 235.992 85.4036 235.992C83.1316 235.992 81.5796 237.688 81.5796 240.136C81.5796 242.568 83.1636 244.232 85.4676 244.232ZM85.4036 237.256C86.7316 237.256 87.5796 238.12 87.5796 239.416H83.0676C83.2596 238.04 84.0916 237.256 85.4036 237.256Z" fill="#000C2C"/>
<path d="M91.9995 234.36C92.5435 234.36 92.9915 233.912 92.9915 233.368C92.9915 232.808 92.5435 232.376 91.9995 232.376C91.4555 232.376 91.0075 232.808 91.0075 233.368C91.0075 233.912 91.4555 234.36 91.9995 234.36ZM91.2635 244.04H92.7675V236.216H91.2635V244.04Z" fill="#000C2C"/>
<path d="M97.739 244.232C99.003 244.232 100.075 243.672 100.475 242.776L100.635 244.04H101.915V239.128C101.915 237.016 100.603 235.992 98.667 235.992C96.651 235.992 95.307 237.064 95.307 238.696H96.619C96.619 237.752 97.339 237.192 98.603 237.192C99.659 237.192 100.443 237.656 100.443 238.968V239.192L97.979 239.384C96.139 239.528 95.067 240.424 95.067 241.864C95.067 243.288 96.059 244.232 97.739 244.232ZM98.171 243.064C97.195 243.064 96.587 242.648 96.587 241.816C96.587 241.048 97.131 240.536 98.459 240.408L100.459 240.248V240.664C100.459 242.136 99.595 243.064 98.171 243.064Z" fill="#000C2C"/>
<path d="M109.629 244.04H114.205C116.493 244.04 117.885 242.872 117.885 240.952C117.885 239.576 117.229 238.648 115.949 238.232C117.101 237.752 117.677 236.856 117.677 235.528C117.677 233.624 116.301 232.472 114.045 232.472H109.629V244.04ZM113.949 233.864C115.309 233.864 116.077 234.52 116.077 235.672C116.077 236.872 115.341 237.576 114.045 237.576H111.197V233.864H113.949ZM114.173 238.936C115.501 238.936 116.269 239.608 116.269 240.76C116.269 241.96 115.517 242.648 114.173 242.648H111.197V238.936H114.173Z" fill="#000C2C"/>
<path d="M120.828 234.36C121.372 234.36 121.82 233.912 121.82 233.368C121.82 232.808 121.372 232.376 120.828 232.376C120.284 232.376 119.836 232.808 119.836 233.368C119.836 233.912 120.284 234.36 120.828 234.36ZM120.092 244.04H121.596V236.216H120.092V244.04Z" fill="#000C2C"/>
<path d="M125.031 234.36C125.559 234.36 126.023 233.912 126.023 233.368C126.023 232.808 125.559 232.376 125.031 232.376C124.471 232.376 124.039 232.808 124.039 233.368C124.039 233.912 124.471 234.36 125.031 234.36ZM122.295 247.592C122.743 247.72 122.999 247.736 123.399 247.736C124.919 247.736 125.783 246.76 125.783 245.192V236.216H124.279V245.048C124.279 245.928 123.991 246.344 123.271 246.344C123.031 246.344 122.855 246.312 122.551 246.232L122.295 247.592Z" fill="#000C2C"/>
<path d="M127.955 240.12C127.955 242.536 129.683 244.232 132.035 244.232C134.371 244.232 136.099 242.536 136.099 240.12C136.099 237.704 134.371 236.008 132.035 236.008C129.683 236.008 127.955 237.704 127.955 240.12ZM129.475 240.12C129.475 238.488 130.515 237.352 132.035 237.352C133.539 237.352 134.595 238.488 134.595 240.12C134.595 241.752 133.539 242.888 132.035 242.888C130.515 242.888 129.475 241.752 129.475 240.12Z" fill="#000C2C"/>
<path d="M143.484 236.216V240.344C143.484 242.024 142.732 242.904 141.356 242.904C140.204 242.904 139.484 242.264 139.484 240.584V236.216H137.98V241.08C137.98 243 139.004 244.232 140.828 244.232C141.98 244.232 143.02 243.672 143.468 242.856L143.628 244.04H144.972V236.216H143.484Z" fill="#000C2C"/>
<path d="M148.454 244.04L150.374 241.176L152.326 244.04H154.07L151.398 240.168L154.118 236.216H152.406L150.47 239.128L148.486 236.216H146.742L149.462 240.168L146.726 244.04H148.454Z" fill="#000C2C"/>
</g>
</g>
<rect x="316.5" y="74.5498" width="8" height="52.7205" rx="4" fill="#79747E"/>
</g>
<defs>
<clipPath id="clip0_53_4128">
<rect x="0.5" width="328" height="284" rx="16" fill="white"/>
</clipPath>
<clipPath id="clip1_53_4128">
<rect width="328" height="192" fill="white" transform="translate(0.5 72)"/>
</clipPath>
<clipPath id="clip2_53_4128">
<rect width="232" height="40" fill="white" transform="translate(56.5 76)"/>
</clipPath>
<clipPath id="clip3_53_4128">
<rect width="232" height="40" fill="white" transform="translate(56.5 124)"/>
</clipPath>
<clipPath id="clip4_53_4128">
<rect width="232" height="40" fill="white" transform="translate(56.5 172)"/>
</clipPath>
<clipPath id="clip5_53_4128">
<rect width="232" height="40" fill="white" transform="translate(56.5 220)"/>
</clipPath>
</defs>
</svg>
