<svg width="32" height="32" viewBox="0 0 32 32" fill="none" xmlns="http://www.w3.org/2000/svg">
<g clip-path="url(#clip0_58_5688)">
<path d="M32 5.56543V25.0437C31.9987 25.7816 31.7062 26.489 31.1861 27.0124L18.7826 14.6089L18.5878 14.3098L32 5.56543Z" fill="#F6B445"/>
<path d="M31.1861 27.0122C30.6627 27.5323 29.9552 27.8248 29.2174 27.8261H2.78262C2.04475 27.8248 1.33727 27.5323 0.813904 27.0122L13.2174 14.6087L13.3913 14.3374L16 16L18.5879 14.3096L18.7826 14.6087L31.1861 27.0122Z" fill="#F6A645"/>
<path d="M13.3914 14.3376L13.2174 14.6089L0.813925 27.0123C0.293817 26.489 0.00131687 25.7815 1.2526e-05 25.0436V6.95671C-0.000835299 6.67601 0.0413603 6.39682 0.12523 6.12891L0.695686 6.26104L13.3914 14.3376Z" fill="#F6B445"/>
<path d="M32 5.56511L18.5879 14.3095L16.0001 15.9999L13.3914 14.3373L0.6957 6.26078L0.125244 6.12859C0.487657 4.96557 1.56446 4.1735 2.78266 4.17383H28.5218C31.3044 4.17383 32 5.56511 32 5.56511Z" fill="#FED049"/>
</g>
<defs>
<clipPath id="clip0_58_5688">
<rect width="32" height="32" fill="white"/>
</clipPath>
</defs>
</svg>
