<svg width="40" height="40" viewBox="0 0 40 40" fill="none" xmlns="http://www.w3.org/2000/svg">
<g clip-path="url(#clip0_55_5537)">
<path d="M7.81125 0.959976C6.88997 0.958069 5.97741 1.13812 5.12591 1.48979C4.2744 1.84146 3.50072 2.35783 2.8493 3.00927C2.19786 3.66069 1.68149 4.43437 1.32982 5.28588C0.978144 6.13738 0.798096 7.04996 0.800003 7.97122V32.3474C0.798096 33.2687 0.978144 34.1812 1.32982 35.0327C1.68149 35.8842 2.19786 36.658 2.8493 37.3093C3.50072 37.9607 4.2744 38.4772 5.12591 38.8289C5.97741 39.1805 6.88997 39.3605 7.81125 39.3586H21.0232V24.3479H17.0542V18.9434H21.0232V14.3258C21.0232 10.6978 23.3681 7.36721 28.7713 7.36721C30.0424 7.36348 31.3126 7.43378 32.5757 7.57775L32.444 12.6256C32.444 12.6256 30.7939 12.6098 28.995 12.6098C27.0461 12.6098 26.7342 13.5086 26.7342 14.9982V18.946H32.5993L32.3427 24.3505H26.7395V39.3599H32.1888C33.1101 39.3618 34.0225 39.1818 34.8741 38.8301C35.7256 38.4785 36.4992 37.9621 37.1507 37.3106C37.8021 36.6593 38.3185 35.8855 38.6702 35.034C39.0219 34.1826 39.2019 33.27 39.2 32.3487V7.97122C39.2019 7.04996 39.0219 6.13738 38.6702 5.28588C38.3185 4.43437 37.8021 3.66069 37.1507 3.00927C36.4992 2.35783 35.7256 1.84146 34.8741 1.48979C34.0225 1.13812 33.1101 0.958069 32.1888 0.959976H7.81125Z" fill="#D1D5DB"/>
</g>
<defs>
<clipPath id="clip0_55_5537">
<rect width="40" height="40" fill="white"/>
</clipPath>
</defs>
</svg>
