<svg width="3209" height="3216" viewBox="0 0 3209 3216" fill="none" xmlns="http://www.w3.org/2000/svg">
<mask id="mask0_58_5611" style="mask-type:alpha" maskUnits="userSpaceOnUse" x="756" y="1042" width="1725" height="1136">
<path d="M756.245 1054.35L992.552 2138.12L1837.16 2177.41L2127.29 2121.52L2480.32 1551.8L2353.77 1083.08L1468.51 1042.39L756.245 1054.35Z" fill="url(#paint0_linear_58_5611)"/>
</mask>
<g mask="url(#mask0_58_5611)">
<mask id="mask1_58_5611" style="mask-type:alpha" maskUnits="userSpaceOnUse" x="802" y="1028" width="1631" height="1151">
<path d="M2432.21 1107.83C2408.55 1607.8 2382.52 2153.49 2382.99 2178.47L802.522 2099.12L851.736 1028.48L2432.21 1107.83Z" fill="url(#paint1_linear_58_5611)"/>
</mask>
<g mask="url(#mask1_58_5611)">
<path d="M1749.65 2036.72C1576.5 2028.76 1439.15 1843 1446.53 1682.46C1453.91 1521.92 1533.69 1314.46 1719.46 1323C1811.53 1327.23 1928.24 1225.05 2033.94 1310.03C2141.54 1396.53 2106.16 1614.32 2102.44 1695.31C2095.06 1855.85 1922.8 2044.68 1749.65 2036.72Z" fill="#FFE2A9"/>
<g filter="url(#filter0_f_58_5611)">
<path d="M1752.36 2023.06C1566.66 2014.53 1440.15 1869.39 1445.88 1744.76C1451.61 1620.12 1529.19 1459.77 1714.89 1468.31C1806.91 1472.54 1922.63 1391.12 2029.11 1458.21C2137.5 1526.51 2104.38 1695.34 2101.49 1758.21C2095.76 1882.85 1938.06 2031.6 1752.36 2023.06Z" fill="#FFE2A9"/>
</g>
<g filter="url(#filter1_f_58_5611)">
<path d="M1746.74 2022.81C1538.6 2013.24 1397.53 1834.73 1404.61 1680.83C1411.68 1526.92 1499.49 1328.57 1707.63 1338.13C1810.77 1342.87 1941.58 1227.41 2060.59 1309.68C2181.75 1393.44 2143.14 1615.05 2139.57 1692.69C2132.49 1846.59 1954.87 2032.38 1746.74 2022.81Z" fill="#FFE2A9"/>
</g>
<g filter="url(#filter2_f_58_5611)">
<path d="M1724.94 1971.43C1469.88 1917.89 1267.17 1687.44 1276.32 1488.32C1285.48 1289.21 1425.8 1079.95 1675.42 1091.42C1799.11 1097.11 1968.1 887.401 2110.51 993.312C2255.47 1101.13 2223.93 1464.11 2219.32 1564.56C2210.16 1763.67 2020.4 2033.46 1724.94 1971.43Z" fill="#FFE2A9"/>
</g>
<g filter="url(#filter3_f_58_5611)">
<path d="M1659.95 1917.87C1391.18 1905.52 1152.39 1637.46 1161.34 1442.78C1170.29 1248.1 1320.4 1044.1 1589.17 1056.45C1722.36 1062.58 1887.49 995.714 2041.28 1099.93C2197.83 1206.02 2257.82 1613.3 2253.31 1711.5C2244.36 1906.18 1928.72 1930.23 1659.95 1917.87Z" fill="#FFE2A9"/>
</g>
<g filter="url(#filter4_f_58_5611)">
<path d="M1539.72 1834.47C1261.97 1821.71 1034.92 1548.32 1044.07 1349.21C1053.22 1150.09 1208.25 941.504 1486 954.271C1623.64 960.598 1816.77 1239.42 1975.73 1346.1C2137.56 1454.68 2087.22 1724.51 2082.61 1824.96C2073.45 2024.08 1817.47 1847.24 1539.72 1834.47Z" fill="#FFE2A9"/>
</g>
<g filter="url(#filter5_f_58_5611)">
<path d="M1747.18 1875.74C1504.15 1864.57 1306.98 1592.56 1316.14 1393.44C1325.29 1194.33 1462.17 984.908 1705.2 996.079C1825.64 1001.62 1974.3 955.371 2112.83 1061.1C2253.85 1168.74 2208.24 1438.78 2203.62 1539.23C2194.47 1738.35 1990.21 1886.91 1747.18 1875.74Z" fill="#FFE2A9"/>
</g>
</g>
</g>
<mask id="mask2_58_5611" style="mask-type:alpha" maskUnits="userSpaceOnUse" x="788" y="833" width="1767" height="1677">
<path d="M1936.74 2509.76L2554.14 1702.81L1901.85 970.849L1662.17 833.29L984.632 1086.24L788.093 1495.61L1390.46 2064.97L1936.74 2509.76Z" fill="url(#paint2_linear_58_5611)"/>
</mask>
<g mask="url(#mask2_58_5611)">
<mask id="mask3_58_5611" style="mask-type:alpha" maskUnits="userSpaceOnUse" x="747" y="680" width="1854" height="1841">
<path d="M747.636 1430.17C1069.68 1090.39 1514.58 698.854 1529.5 680.873L2600.82 1702.12L1940.77 2520.63L747.636 1430.17Z" fill="url(#paint3_linear_58_5611)"/>
</mask>
<g mask="url(#mask3_58_5611)">
<path d="M1798.39 1188.82C1916.21 1300.18 1900.1 1515.66 1796.85 1624.9C1693.59 1734.14 1510.4 1832.41 1383.99 1712.93C1321.35 1653.72 1176.27 1654.85 1153.26 1530.1C1129.84 1403.12 1287.89 1270.41 1339.98 1215.31C1443.23 1106.07 1680.58 1077.46 1798.39 1188.82Z" fill="#FFB727"/>
<g filter="url(#filter6_f_58_5611)">
<path d="M1788.15 1196.84C1914.51 1316.28 1915.52 1496.35 1835.36 1581.16C1755.2 1665.97 1602.33 1732.2 1475.97 1612.76C1413.35 1553.58 1281.65 1540.61 1247.18 1428.06C1212.08 1313.49 1338.63 1214.1 1379.07 1171.31C1459.23 1086.51 1661.79 1077.4 1788.15 1196.84Z" fill="#FFB727"/>
</g>
<g filter="url(#filter7_f_58_5611)">
<path d="M1791.96 1200.45C1933.59 1334.31 1924.53 1546.93 1825.55 1651.65C1726.57 1756.37 1543.23 1843.29 1401.61 1709.42C1331.43 1643.09 1168.25 1645.02 1134.17 1514.06C1099.46 1380.75 1262.14 1247.31 1312.07 1194.48C1411.05 1089.76 1650.34 1066.59 1791.96 1200.45Z" fill="#FFB727"/>
</g>
<g filter="url(#filter8_f_58_5611)">
<path d="M1776.04 1250.16C1924.05 1443.83 1926.96 1730.88 1798.9 1866.36C1670.83 2001.85 1443.64 2064.43 1273.79 1903.89C1189.63 1824.33 941.851 1869.72 905.626 1707.73C868.749 1542.83 1112.73 1304.91 1177.33 1236.57C1305.4 1101.08 1604.57 1025.8 1776.04 1250.16Z" fill="#FFB727"/>
</g>
<g filter="url(#filter9_f_58_5611)">
<path d="M1789.38 1327.79C1972.26 1500.65 1977.77 1836.38 1852.56 1968.84C1727.35 2101.31 1496.43 2154.19 1313.55 1981.32C1222.92 1895.66 1065.1 1842.2 1019.78 1674.47C973.645 1503.71 1179.82 1178.53 1242.98 1111.7C1368.19 979.237 1606.5 1154.92 1789.38 1327.79Z" fill="#FFB727"/>
</g>
<g filter="url(#filter10_f_58_5611)">
<path d="M1823.64 1460.29C2012.63 1638.93 2006.57 1971.26 1878.51 2106.74C1750.45 2242.23 1513.25 2295.36 1324.26 2116.72C1230.6 2028.19 1264.02 1712.72 1216.52 1540.08C1168.17 1364.33 1368.59 1203.89 1433.2 1135.54C1561.26 1000.06 1634.65 1281.65 1823.64 1460.29Z" fill="#FFB727"/>
</g>
</g>
</g>
<defs>
<filter id="filter0_f_58_5611" x="1441.19" y="1427.09" width="671.788" height="600.82" filterUnits="userSpaceOnUse" color-interpolation-filters="sRGB">
<feFlood flood-opacity="0" result="BackgroundImageFix"/>
<feBlend mode="normal" in="SourceGraphic" in2="BackgroundImageFix" result="shape"/>
<feGaussianBlur stdDeviation="2.24977" result="effect1_foregroundBlur_58_5611"/>
</filter>
<filter id="filter1_f_58_5611" x="1388.61" y="1264.27" width="775.35" height="774.641" filterUnits="userSpaceOnUse" color-interpolation-filters="sRGB">
<feFlood flood-opacity="0" result="BackgroundImageFix"/>
<feBlend mode="normal" in="SourceGraphic" in2="BackgroundImageFix" result="shape"/>
<feGaussianBlur stdDeviation="7.8742" result="effect1_foregroundBlur_58_5611"/>
</filter>
<filter id="filter2_f_58_5611" x="1253.53" y="940.89" width="994.343" height="1062.09" filterUnits="userSpaceOnUse" color-interpolation-filters="sRGB">
<feFlood flood-opacity="0" result="BackgroundImageFix"/>
<feBlend mode="normal" in="SourceGraphic" in2="BackgroundImageFix" result="shape"/>
<feGaussianBlur stdDeviation="11.2489" result="effect1_foregroundBlur_58_5611"/>
</filter>
<filter id="filter3_f_58_5611" x="1100.35" y="980.183" width="1213.93" height="1001.12" filterUnits="userSpaceOnUse" color-interpolation-filters="sRGB">
<feFlood flood-opacity="0" result="BackgroundImageFix"/>
<feBlend mode="normal" in="SourceGraphic" in2="BackgroundImageFix" result="shape"/>
<feGaussianBlur stdDeviation="30.3719" result="effect1_foregroundBlur_58_5611"/>
</filter>
<filter id="filter4_f_58_5611" x="893.068" y="802.979" width="1351.25" height="1266.8" filterUnits="userSpaceOnUse" color-interpolation-filters="sRGB">
<feFlood flood-opacity="0" result="BackgroundImageFix"/>
<feBlend mode="normal" in="SourceGraphic" in2="BackgroundImageFix" result="shape"/>
<feGaussianBlur stdDeviation="75.3673" result="effect1_foregroundBlur_58_5611"/>
</filter>
<filter id="filter5_f_58_5611" x="1246.09" y="920.92" width="1037.94" height="1025.15" filterUnits="userSpaceOnUse" color-interpolation-filters="sRGB">
<feFlood flood-opacity="0" result="BackgroundImageFix"/>
<feBlend mode="normal" in="SourceGraphic" in2="BackgroundImageFix" result="shape"/>
<feGaussianBlur stdDeviation="34.8715" result="effect1_foregroundBlur_58_5611"/>
</filter>
<filter id="filter6_f_58_5611" x="1232.4" y="1098.67" width="666.556" height="587.723" filterUnits="userSpaceOnUse" color-interpolation-filters="sRGB">
<feFlood flood-opacity="0" result="BackgroundImageFix"/>
<feBlend mode="normal" in="SourceGraphic" in2="BackgroundImageFix" result="shape"/>
<feGaussianBlur stdDeviation="4.34706" result="effect1_foregroundBlur_58_5611"/>
</filter>
<filter id="filter7_f_58_5611" x="1098.92" y="1077.45" width="830.725" height="730.612" filterUnits="userSpaceOnUse" color-interpolation-filters="sRGB">
<feFlood flood-opacity="0" result="BackgroundImageFix"/>
<feBlend mode="normal" in="SourceGraphic" in2="BackgroundImageFix" result="shape"/>
<feGaussianBlur stdDeviation="15.2147" result="effect1_foregroundBlur_58_5611"/>
</filter>
<filter id="filter8_f_58_5611" x="858.382" y="1063.98" width="1076.31" height="978.718" filterUnits="userSpaceOnUse" color-interpolation-filters="sRGB">
<feFlood flood-opacity="0" result="BackgroundImageFix"/>
<feBlend mode="normal" in="SourceGraphic" in2="BackgroundImageFix" result="shape"/>
<feGaussianBlur stdDeviation="21.7353" result="effect1_foregroundBlur_58_5611"/>
</filter>
<filter id="filter9_f_58_5611" x="895.743" y="947.887" width="1159.58" height="1260.36" filterUnits="userSpaceOnUse" color-interpolation-filters="sRGB">
<feFlood flood-opacity="0" result="BackgroundImageFix"/>
<feBlend mode="normal" in="SourceGraphic" in2="BackgroundImageFix" result="shape"/>
<feGaussianBlur stdDeviation="58.6853" result="effect1_foregroundBlur_58_5611"/>
</filter>
<filter id="filter10_f_58_5611" x="917.823" y="808.625" width="1344.11" height="1713.32" filterUnits="userSpaceOnUse" color-interpolation-filters="sRGB">
<feFlood flood-opacity="0" result="BackgroundImageFix"/>
<feBlend mode="normal" in="SourceGraphic" in2="BackgroundImageFix" result="shape"/>
<feGaussianBlur stdDeviation="145.627" result="effect1_foregroundBlur_58_5611"/>
</filter>
<linearGradient id="paint0_linear_58_5611" x1="1481.93" y1="1766.11" x2="2294.76" y2="1393.99" gradientUnits="userSpaceOnUse">
<stop stop-color="#C4C4C4" stop-opacity="0.7"/>
<stop offset="0.943414" stop-color="#C4C4C4" stop-opacity="0"/>
</linearGradient>
<linearGradient id="paint1_linear_58_5611" x1="1760.68" y1="1849.53" x2="1859.77" y2="1196.21" gradientUnits="userSpaceOnUse">
<stop stop-color="#C4C4C4"/>
<stop offset="1" stop-color="#C4C4C4" stop-opacity="0"/>
</linearGradient>
<linearGradient id="paint2_linear_58_5611" x1="1822.85" y1="1544.02" x2="1406.76" y2="1210.78" gradientUnits="userSpaceOnUse">
<stop stop-color="#C4C4C4"/>
<stop offset="0.943414" stop-color="#C4C4C4" stop-opacity="0"/>
</linearGradient>
<linearGradient id="paint3_linear_58_5611" x1="1676.29" y1="1314.7" x2="1207.18" y2="1717.08" gradientUnits="userSpaceOnUse">
<stop stop-color="#C4C4C4"/>
<stop offset="1" stop-color="#C4C4C4" stop-opacity="0"/>
</linearGradient>
</defs>
</svg>
