<svg width="64" height="64" viewBox="0 0 64 64" fill="none" xmlns="http://www.w3.org/2000/svg">
<path fill-rule="evenodd" clip-rule="evenodd" d="M13.1203 62.0001H50.8797C51.3616 62.0001 51.7547 61.607 51.7547 61.1251V58.9541C51.7547 57.2789 50.0392 55.9081 47.9425 55.9081H41.138V48.8056H56.6049C59.0635 48.8056 61.0752 46.794 61.0752 44.3353V13.5813C61.0752 11.1225 59.0636 9.11088 56.6049 9.11088H47.6029C47.8811 9.75012 48.1025 10.4211 48.2593 11.1181C49.2014 11.5436 50.0446 12.1345 50.7574 12.8491H56.7169C57.0579 12.8491 57.3369 13.1283 57.3369 13.4691V41.2755H6.663V13.4691C6.663 13.1281 6.942 12.8491 7.283 12.8491H13.2425C13.7016 12.389 14.2156 11.9796 14.7769 11.6322C14.8205 10.7649 14.955 9.92163 15.1698 9.11088H7.39513C4.93638 9.11088 2.92475 11.1225 2.92475 13.5813V44.3353C2.92475 46.794 4.93638 48.8056 7.39513 48.8056H22.862V55.9081H16.0575C13.9608 55.9081 12.2453 57.2787 12.2453 58.9541V61.1251C12.2453 61.6071 12.6383 62.0001 13.1203 62.0001ZM33 33.7926C33.883 34.1784 34.5001 35.0593 34.5001 36.0844C34.5001 37.4651 33.3809 38.5844 32.0001 38.5844C30.6194 38.5844 29.5001 37.4651 29.5001 36.0844C29.5001 35.0593 30.1171 34.1785 31.0001 33.7926V25.2101H28.2746V32.6413C28.2746 33.1935 27.8269 33.6413 27.2746 33.6413H22.18C21.7943 34.5241 20.9134 35.1413 19.8883 35.1413C18.5075 35.1413 17.3883 34.022 17.3883 32.6413C17.3883 31.2605 18.5075 30.1413 19.8883 30.1413C20.9134 30.1413 21.7943 30.7584 22.18 31.6413H26.2745V25.2101H19.1935C15.6635 25.2101 12.7755 22.3221 12.7755 18.7921C12.7755 16.1153 14.4365 13.8081 16.7785 12.849C16.7674 12.6531 16.7611 12.4557 16.7611 12.257C16.7611 6.59225 21.3534 2 27.0183 2C29.7894 2 32.3035 3.09925 34.1493 4.88525C35.1256 4.53513 36.178 4.34438 37.2749 4.34438C42.0488 4.34438 45.9786 7.95725 46.4808 12.5976C49.2055 13.3389 51.2244 15.8409 51.2244 18.7921C51.2244 22.3221 48.3364 25.2101 44.8064 25.2101H37.7254V31.6413H41.82C42.2057 30.7584 43.0866 30.1413 44.1118 30.1413C45.4925 30.1413 46.6118 31.2605 46.6118 32.6413C46.6118 34.022 45.4925 35.1413 44.1118 35.1413C43.0866 35.1413 42.2057 34.5241 41.82 33.6413H36.7254C36.1731 33.6413 35.7254 33.1935 35.7254 32.6413V25.2101H33V33.7926ZM27.0183 4.876C27.5705 4.876 28.0183 5.32375 28.0183 5.876C28.0183 6.42825 27.5705 6.876 27.0183 6.876C24.045 6.876 21.6371 9.28387 21.6371 12.2571C21.6371 12.8094 21.1894 13.2571 20.6371 13.2571C20.0849 13.2571 19.6371 12.8094 19.6371 12.2571C19.637 8.17963 22.9408 4.876 27.0183 4.876Z" fill="white"/>
</svg>
