<svg width="64" height="64" viewBox="0 0 64 64" fill="none" xmlns="http://www.w3.org/2000/svg">
<path d="M22.0454 39.1475C21.5547 39.1475 21.224 39.1955 21.0534 39.2435V42.3848C21.256 42.4328 21.5094 42.4461 21.8587 42.4461C23.136 42.4461 23.9227 41.8008 23.9227 40.7101C23.9227 39.7341 23.2454 39.1475 22.0454 39.1475ZM31.344 39.1795C30.8107 39.1795 30.464 39.2275 30.2587 39.2755V46.2355C30.464 46.2835 30.7947 46.2835 31.0933 46.2835C33.272 46.2995 34.6907 45.0995 34.6907 42.5608C34.7067 40.3475 33.4133 39.1795 31.344 39.1795Z" fill="white"/>
<path d="M37.3333 5.3335H16C14.5855 5.3335 13.229 5.89539 12.2288 6.8956C11.2286 7.89579 10.6667 9.25235 10.6667 10.6668V53.3335C10.6667 54.7479 11.2286 56.1044 12.2288 57.1047C13.229 58.105 14.5855 58.6668 16 58.6668H48C49.4144 58.6668 50.7709 58.105 51.7712 57.1047C52.7715 56.1044 53.3333 54.7479 53.3333 53.3335V21.3335L37.3333 5.3335ZM25.328 43.1735C24.504 43.9468 23.288 44.2935 21.872 44.2935C21.5974 44.2964 21.323 44.2804 21.0507 44.2455V48.0482H18.6667V37.5522C19.7425 37.3916 20.8296 37.3186 21.9173 37.3335C23.4027 37.3335 24.4587 37.6162 25.1707 38.1842C25.848 38.7228 26.3067 39.6055 26.3067 40.6455C26.304 41.6908 25.9573 42.5735 25.328 43.1735ZM35.48 46.7868C34.36 47.7175 32.656 48.1602 30.5733 48.1602C29.3253 48.1602 28.4427 48.0802 27.8427 48.0002V37.5548C28.9189 37.3978 30.0056 37.3236 31.0933 37.3335C33.112 37.3335 34.424 37.6962 35.448 38.4695C36.5547 39.2908 37.248 40.6002 37.248 42.4802C37.248 44.5148 36.504 45.9202 35.48 46.7868ZM45.3333 39.3868H41.248V41.8162H45.0667V43.7735H41.248V48.0508H38.832V37.4135H45.3333V39.3868ZM37.3333 24.0002H34.6667V10.6668L48 24.0002H37.3333Z" fill="white"/>
</svg>
