<svg width="64" height="64" viewBox="0 0 64 64" fill="none" xmlns="http://www.w3.org/2000/svg">
<path fill-rule="evenodd" clip-rule="evenodd" d="M31.5753 40.0645V44.9296C31.5753 45.0673 31.507 45.1855 31.3878 45.2544L27.5801 47.4527C27.3294 47.5976 27.0176 47.4176 27.0176 47.128V40.6315L11.3018 31.5579L6.34752 34.4181C5.95002 34.6476 5.72252 35.0416 5.72252 35.5006V52.2045C5.72252 52.6635 5.95002 53.0575 6.34752 53.287L20.8135 61.6389C21.211 61.8684 21.666 61.8684 22.0635 61.6389L36.5295 53.287C36.927 53.0575 37.1545 52.6635 37.1545 52.2045V37.0885L32.6909 39.6655C32.3378 39.8694 31.9601 40.0023 31.5753 40.0645ZM30.4409 2.3606C30.8384 2.1311 31.2934 2.1311 31.6908 2.3606L46.1569 10.7126C46.5544 10.9421 46.7819 11.3362 46.7819 11.7951V28.499C46.7819 28.958 46.5544 29.352 46.1569 29.5815L31.6909 37.9335C31.2934 38.163 30.8384 38.163 30.4409 37.9335L15.9749 29.5815C15.5774 29.352 15.3499 28.958 15.3499 28.499V11.7951C15.3499 11.3361 15.5774 10.9421 15.9749 10.7126L20.9291 7.85235L36.645 16.926V23.4225C36.645 23.7121 36.9566 23.892 37.2075 23.7472L41.0152 21.5489C41.1344 21.48 41.2027 21.3619 41.2027 21.2241V14.2946L25.4868 5.22098L30.4409 2.3606ZM48.7819 23.5435L52.6984 25.8047V32.7342C52.6984 32.872 52.6302 32.9901 52.5109 33.059L48.7033 35.2574C48.4525 35.4022 48.1408 35.2222 48.1408 34.9326V30.444C47.8814 30.7902 47.5497 31.0869 47.157 31.3135L39.1546 35.9337V47.8374L41.9368 49.4436C42.3343 49.6731 42.7893 49.6731 43.1868 49.4436L57.6525 41.0917C58.05 40.8622 58.2775 40.4682 58.2775 40.0092V23.3052C58.2775 22.8462 58.05 22.4522 57.6525 22.2227L48.7819 17.1014V23.5435Z" fill="white"/>
</svg>
