<svg width="64" height="64" viewBox="0 0 64 64" fill="none" xmlns="http://www.w3.org/2000/svg">
<g clip-path="url(#clip0_58_5682)">
<path d="M60.88 33.6202H58.78L58.58 33.4402L35.08 16.1602C35.4382 15.8705 35.7486 15.5263 36 15.1402C36.3352 14.618 36.5627 14.0341 36.6691 13.4228C36.7756 12.8114 36.7589 12.185 36.62 11.5802C36.4493 10.8116 36.0891 10.0979 35.5721 9.50401C35.0551 8.91017 34.3978 8.4551 33.66 8.18022V6.18022H36.58C36.8611 6.18022 37.1307 6.06854 37.3295 5.86976C37.5283 5.67097 37.64 5.40135 37.64 5.12022V1.12022C37.6483 0.974357 37.6264 0.82835 37.5756 0.691368C37.5247 0.554386 37.4462 0.429387 37.3447 0.324216C37.2433 0.219046 37.1213 0.135976 36.9862 0.0802209C36.8512 0.0244659 36.7061 -0.00277021 36.56 0.000222407H27.64C27.3589 0.000222407 27.0893 0.111901 26.8905 0.310689C26.6917 0.509478 26.58 0.779093 26.58 1.06022V5.06022C26.5773 5.20017 26.6028 5.33923 26.6552 5.46906C26.7075 5.59889 26.7854 5.71683 26.8844 5.81581C26.9834 5.91479 27.1013 5.99276 27.2312 6.04507C27.361 6.09738 27.5001 6.12294 27.64 6.12022H30.56V9.42022C30.5546 9.81996 30.7069 10.2057 30.9839 10.494C31.2609 10.7822 31.6404 10.9497 32.04 10.9602C32.4048 10.9746 32.7543 11.1103 33.0332 11.3458C33.3122 11.5812 33.5046 11.903 33.58 12.2602C33.628 12.4711 33.6332 12.6895 33.5954 12.9025C33.5576 13.1154 33.4776 13.3187 33.36 13.5002C33.2478 13.6832 33.0995 13.8415 32.9241 13.9652C32.7488 14.089 32.55 14.1758 32.34 14.2202C32.2208 14.24 32.0992 14.24 31.98 14.2202C31.6227 14.2305 31.272 14.1223 30.9826 13.9125C30.6932 13.7026 30.4814 13.403 30.38 13.0602V12.9802C30.3265 12.6288 30.1467 12.3089 29.8742 12.0806C29.6018 11.8524 29.2554 11.7313 28.9 11.7402H28.64C28.4288 11.782 28.2281 11.8654 28.0495 11.9855C27.871 12.1057 27.7182 12.2603 27.6 12.4402C27.379 12.7986 27.2939 13.2244 27.36 13.6402C27.5866 14.6306 28.1267 15.5214 28.9 16.1802L5.42 33.4402L5.22 33.6202H3.22C2.42435 33.6202 1.66129 33.9363 1.09868 34.4989C0.536072 35.0615 0.220002 35.8246 0.220002 36.6202V61.0002C0.219569 61.7788 0.521876 62.5271 1.06304 63.087C1.6042 63.6468 2.34181 63.9743 3.12 64.0002H60.88C61.6757 64.0002 62.4387 63.6842 63.0013 63.1215C63.5639 62.5589 63.88 61.7959 63.88 61.0002V36.6202C63.88 35.8246 63.5639 35.0615 63.0013 34.4989C62.4387 33.9363 61.6757 33.6202 60.88 33.6202ZM32 17.7402L53.6 33.6202H10.4L32 17.7402ZM11.82 57.4602C11.82 57.6883 11.7294 57.9071 11.5681 58.0683C11.4068 58.2296 11.1881 58.3202 10.96 58.3202C10.8396 58.3312 10.7181 58.3173 10.6033 58.2793C10.4885 58.2413 10.3828 58.18 10.2927 58.0993C10.2026 58.0186 10.1301 57.9202 10.0798 57.8103C10.0294 57.7003 10.0022 57.5811 10 57.4602V40.1602C10.0052 39.9303 10.1002 39.7116 10.2647 39.5509C10.4292 39.3901 10.65 39.3002 10.88 39.3002C11.1081 39.3002 11.3268 39.3908 11.4881 39.5521C11.6494 39.7134 11.74 39.9321 11.74 40.1602L11.82 57.4602ZM20.24 57.4602C20.24 57.6883 20.1494 57.9071 19.9881 58.0683C19.8268 58.2296 19.6081 58.3202 19.38 58.3202C19.15 58.3203 18.9292 58.2303 18.7647 58.0696C18.6002 57.9089 18.5052 57.6901 18.5 57.4602V40.1602C18.5052 39.9303 18.6002 39.7116 18.7647 39.5509C18.9292 39.3901 19.15 39.3002 19.38 39.3002C19.6081 39.3002 19.8268 39.3908 19.9881 39.5521C20.1494 39.7134 20.24 39.9321 20.24 40.1602V57.4602ZM28.66 57.4602C28.6548 57.6901 28.5598 57.9089 28.3953 58.0696C28.2308 58.2303 28.01 58.3203 27.78 58.3202C27.5519 58.3202 27.3332 58.2296 27.1719 58.0683C27.0106 57.9071 26.92 57.6883 26.92 57.4602V40.1602C26.92 39.9321 27.0106 39.7134 27.1719 39.5521C27.3332 39.3908 27.5519 39.3002 27.78 39.3002C28.01 39.3002 28.2308 39.3901 28.3953 39.5509C28.5598 39.7116 28.6548 39.9303 28.66 40.1602V57.4602ZM37.08 57.4602C37.0484 57.6683 36.9432 57.8581 36.7836 57.9953C36.624 58.1325 36.4205 58.2079 36.21 58.2079C35.9995 58.2079 35.796 58.1325 35.6364 57.9953C35.4768 57.8581 35.3716 57.6683 35.34 57.4602V40.1602C35.3716 39.9521 35.4768 39.7623 35.6364 39.6251C35.796 39.4879 35.9995 39.4125 36.21 39.4125C36.4205 39.4125 36.624 39.4879 36.7836 39.6251C36.9432 39.7623 37.0484 39.9521 37.08 40.1602V57.4602ZM45.5 57.4602C45.5 57.6883 45.4094 57.9071 45.2481 58.0683C45.0868 58.2296 44.8681 58.3202 44.64 58.3202C44.41 58.3203 44.1892 58.2303 44.0247 58.0696C43.8602 57.9089 43.7652 57.6901 43.76 57.4602V40.1602C43.7652 39.9303 43.8602 39.7116 44.0247 39.5509C44.1892 39.3901 44.41 39.3002 44.64 39.3002C44.8681 39.3002 45.0868 39.3908 45.2481 39.5521C45.4094 39.7134 45.5 39.9321 45.5 40.1602V57.4602ZM53.92 57.4602C53.9148 57.6901 53.8198 57.9089 53.6553 58.0696C53.4908 58.2303 53.27 58.3203 53.04 58.3202C52.8119 58.3202 52.5932 58.2296 52.4319 58.0683C52.2706 57.9071 52.18 57.6883 52.18 57.4602V40.1602C52.18 39.9321 52.2706 39.7134 52.4319 39.5521C52.5932 39.3908 52.8119 39.3002 53.04 39.3002C53.27 39.3002 53.4908 39.3901 53.6553 39.5509C53.8198 39.7116 53.9148 39.9303 53.92 40.1602V57.4602Z" fill="white"/>
</g>
<defs>
<clipPath id="clip0_58_5682">
<rect width="64" height="64" fill="white"/>
</clipPath>
</defs>
</svg>
