<svg width="40" height="40" viewBox="0 0 40 40" fill="none" xmlns="http://www.w3.org/2000/svg">
<g clip-path="url(#clip0_55_5539)">
<path d="M23.9809 20.5721C23.984 19.8231 23.7648 19.09 23.351 18.4657C22.9371 17.8413 22.3473 17.3538 21.6563 17.065C20.9651 16.7761 20.204 16.6988 19.4689 16.8429C18.7339 16.9871 18.0581 17.346 17.5273 17.8745C16.9965 18.4029 16.6344 19.077 16.4869 19.8114C16.3395 20.5458 16.4133 21.3074 16.699 21.9997C16.9848 22.6921 17.4696 23.2841 18.092 23.7009C18.7144 24.1175 19.4465 24.3401 20.1955 24.3402C21.1969 24.3417 22.1581 23.9457 22.8677 23.2391C23.5774 22.5327 23.9777 21.5735 23.9809 20.5721ZM29.6037 0.960454H10.3937C7.85551 0.958347 5.42007 1.96302 3.62157 3.75411C1.82308 5.5452 0.808357 7.97648 0.799988 10.5147V13.1805H14.9219C16.4633 12.0867 18.3067 11.4992 20.1969 11.4992C22.087 11.4992 23.9304 12.0867 25.4718 13.1805H39.1987V10.5147C39.1902 7.97624 38.1753 5.54477 36.3766 3.75365C34.5779 1.96251 32.1421 0.957998 29.6037 0.960454ZM33.4904 10.0484C33.4889 10.3305 33.376 10.6005 33.176 10.7994C32.9762 10.9983 32.7056 11.11 32.4235 11.11H29.1307C28.8488 11.1097 28.5785 10.9979 28.3787 10.799C28.1787 10.6002 28.0656 10.3303 28.064 10.0484V6.76753C28.0653 6.4855 28.1784 6.2155 28.3782 6.01657C28.5782 5.81763 28.8488 5.70595 29.1307 5.70597H32.4235C32.7056 5.70595 32.9762 5.81763 33.176 6.01657C33.376 6.2155 33.4889 6.4855 33.4904 6.76753V10.0484ZM29.3125 20.5721C29.3125 22.9897 28.3521 25.3082 26.6425 27.0178C24.9331 28.7273 22.6145 29.6877 20.1969 29.6877C17.7793 29.6877 15.4607 28.7273 13.7512 27.0178C12.0417 25.3082 11.0813 22.9897 11.0813 20.5721C11.0802 19.2388 11.3758 17.9218 11.9466 16.7169H0.799988V29.7943C0.808357 32.3325 1.82308 34.7639 3.62157 36.5549C5.42007 38.346 7.85551 39.3506 10.3937 39.3485H29.6037C32.1422 39.3514 34.5784 38.3471 36.3774 36.5559C38.1765 34.7647 39.1917 32.333 39.2 29.7943V16.7156H28.4459C29.0166 17.9205 29.3121 19.2373 29.3112 20.5708L29.3125 20.5721Z" fill="#D1D5DB"/>
</g>
<defs>
<clipPath id="clip0_55_5539">
<rect width="40" height="40" fill="white"/>
</clipPath>
</defs>
</svg>
