<svg width="341" height="568" viewBox="0 0 341 568" fill="none" xmlns="http://www.w3.org/2000/svg">
<path d="M339.9 5.8V561.7C339.9 564.3 337.7 566.5 335.1 566.5H5.8C3.1 566.5 1 564.3 1 561.7V5.8C1 3.2 3.1 1 5.8 1H109.9C112.7 1 115 3.30001 115 6.10001V17.8C115 20.6 117.3 22.9 120.1 22.9H220.8C223.6 22.9 225.9 20.6 225.9 17.8V6.10001C225.9 3.30001 228.2 1 231 1H335.1C337.7 1 339.9 3.2 339.9 5.8Z" fill="#1D1D1F" stroke="#494949" stroke-width="2" stroke-linecap="round" stroke-linejoin="round"/>
<path d="M339.9 106.9H1V55.8H339.9V106.9Z" fill="#1D1D1F" stroke="#494949" stroke-width="2" stroke-linecap="round" stroke-linejoin="round"/>
<path d="M45.3 209.2H183.2" stroke="#494949" stroke-width="6" stroke-linecap="round" stroke-linejoin="round"/>
<path d="M79.4001 233.1H295.6" stroke="#494949" stroke-width="6" stroke-linecap="round" stroke-linejoin="round"/>
<path d="M45.3 251H295.6" stroke="#494949" stroke-width="6" stroke-linecap="round" stroke-linejoin="round"/>
<path d="M45.3 268.9H295.6" stroke="#494949" stroke-width="6" stroke-linecap="round" stroke-linejoin="round"/>
<path d="M45.3 286.8H295.6" stroke="#494949" stroke-width="6" stroke-linecap="round" stroke-linejoin="round"/>
<path d="M45.3 304.6H295.6" stroke="#494949" stroke-width="6" stroke-linecap="round" stroke-linejoin="round"/>
<path d="M45.3 322.5H295.6" stroke="#494949" stroke-width="6" stroke-linecap="round" stroke-linejoin="round"/>
<path d="M45.3 340.4H161.5" stroke="#494949" stroke-width="6" stroke-linecap="round" stroke-linejoin="round"/>
<path d="M301.7 75.1H314.5" stroke="#494949" stroke-width="2" stroke-linecap="round" stroke-linejoin="round"/>
<path d="M301.7 81H314.5" stroke="#494949" stroke-width="2" stroke-linecap="round" stroke-linejoin="round"/>
<path d="M301.7 86.9H314.5" stroke="#494949" stroke-width="2" stroke-linecap="round" stroke-linejoin="round"/>
<path d="M36.5002 81H25.7002" stroke="#494949" stroke-width="2" stroke-linecap="round" stroke-linejoin="round"/>
<path d="M30.7001 87.5L24.1001 81L30.7001 74.4" stroke="#494949" stroke-width="2" stroke-linecap="round" stroke-linejoin="round"/>
<path d="M266.8 86.9H282.9V75.1H266.8V86.9Z" stroke="#494949" stroke-width="2" stroke-linecap="round" stroke-linejoin="round"/>
<path d="M266.8 75.1L274.8 81L282.9 75.1" stroke="#494949" stroke-width="2" stroke-linecap="round" stroke-linejoin="round"/>
<path d="M246 89.1H235.2L233.7 75.1H247.4L246 89.1Z" stroke="#494949" stroke-width="2" stroke-linecap="round" stroke-linejoin="round"/>
<path d="M237.9 75.1V72.8H243.3V75.1" stroke="#494949" stroke-width="2" stroke-linecap="round" stroke-linejoin="round"/>
<path d="M339.9 525.9V561.7C339.9 564.3 337.7 566.5 335.1 566.5H5.8C3.1 566.5 1 564.3 1 561.7V525.9H339.9Z" fill="#27272A" stroke="#494949" stroke-width="2" stroke-linecap="round" stroke-linejoin="round"/>
<path d="M87 149.9H224.9" stroke="#494949" stroke-width="6" stroke-linecap="round" stroke-linejoin="round"/>
<path d="M41.8 149.9C41.8 159.3 49.5 167 58.9 167C68.3 167 75.9 159.3 75.9 149.9C75.9 140.5 68.3 132.9 58.9 132.9C49.5 132.9 41.8 140.5 41.8 149.9Z" fill="#27272A" stroke="#494949" stroke-width="2" stroke-linecap="round" stroke-linejoin="round"/>
<path d="M65.8 160.6C64.8 160.6 61.8 158.3 62.8 156.4C63.9 154.6 65.8 151.5 65.8 151.5C67.1 149.8 67.3 145.9 67.3 145.9C67.7 143 66 138.1 58.9 138.1C51.7 138.1 50 143 50.5 145.9C50.5 145.9 50.7 149.8 51.9 151.5C51.9 151.5 53.9 154.6 54.9 156.4C55.9 158.3 52.9 160.6 51.9 160.6C50.9 160.6 47 162.1 47 162.1C47 162.1 53.9 167 58.9 167C63.9 167 70.7 162.1 70.7 162.1C70.7 162.1 66.9 160.6 65.8 160.6Z" fill="#494949"/>
<path d="M1 375.7H339.9" stroke="#494949" stroke-width="2" stroke-linecap="round" stroke-linejoin="round"/>
<path d="M339.9 468.7H1V525.9H339.9V468.7Z" fill="#1D1D1F" stroke="#494949" stroke-width="2" stroke-linecap="round" stroke-linejoin="round"/>
<path d="M293.5 444.8H265.6C260.1 444.8 255.7 440.4 255.7 434.9V407C255.7 401.6 260.1 397.1 265.6 397.1H293.5C299 397.1 303.4 401.6 303.4 407V434.9C303.4 440.4 299 444.8 293.5 444.8Z" fill="#27272A" stroke="#494949" stroke-width="2" stroke-linecap="round" stroke-linejoin="round"/>
<path d="M272.2 417.3L278.9 410.6C281.8 407.7 286.5 407.7 289.4 410.6C292.3 413.5 292.3 418.2 289.4 421.1L278.5 432.1C276.5 434 273.4 434 271.4 432.1C269.5 430.1 269.5 427 271.4 425.1L281.8 414.7C282.8 413.8 284.2 413.8 285.1 414.7C286 415.6 286 417 285.1 417.9L279.5 423.5" stroke="#494949" stroke-width="3" stroke-linecap="round" stroke-linejoin="round"/>
<path d="M45.3 412H233" stroke="#494949" stroke-width="6" stroke-linecap="round" stroke-linejoin="round"/>
<path d="M45.3 429.9H201.7" stroke="#494949" stroke-width="6" stroke-linecap="round" stroke-linejoin="round"/>
<path d="M86.6001 511.5H50.5C46.8 511.5 43.8 508.5 43.8 504.8V489.5C43.8 485.8 46.8 482.9 50.5 482.9H86.6001C90.3001 482.9 93.2 485.8 93.2 489.5V504.8C93.2 508.5 90.3001 511.5 86.6001 511.5Z" stroke="#494949" stroke-width="2" stroke-linecap="round" stroke-linejoin="round"/>
<path d="M75.9 503V500.9C75.9 498.1 73.7 495.9 70.9 495.9H62.5" stroke="#494949" stroke-width="2" stroke-linecap="round" stroke-linejoin="round"/>
<path d="M65.6001 500.4L61.1001 495.9L65.6001 491.4" stroke="#494949" stroke-width="2" stroke-linecap="round" stroke-linejoin="round"/>
<path d="M189.7 511.5H153.6C149.9 511.5 147 508.5 147 504.8V489.5C147 485.8 149.9 482.9 153.6 482.9H189.7C193.4 482.9 196.4 485.8 196.4 489.5V504.8C196.4 508.5 193.4 511.5 189.7 511.5Z" stroke="#494949" stroke-width="2" stroke-linecap="round" stroke-linejoin="round"/>
<path d="M181.4 503V500.9C181.4 498.1 179.2 495.9 176.4 495.9H168" stroke="#494949" stroke-width="2" stroke-linecap="round" stroke-linejoin="round"/>
<path d="M171.1 500.4L166.6 495.9L171.1 491.4" stroke="#494949" stroke-width="2" stroke-linecap="round" stroke-linejoin="round"/>
<path d="M166.4 500.4L161.9 495.9L166.4 491.4" stroke="#494949" stroke-width="2" stroke-linecap="round" stroke-linejoin="round"/>
<path d="M259.1 511.5H295.2C298.9 511.5 301.9 508.5 301.9 504.8V489.5C301.9 485.8 298.9 482.9 295.2 482.9H259.1C255.4 482.9 252.4 485.8 252.4 489.5V504.8C252.4 508.5 255.4 511.5 259.1 511.5Z" stroke="#494949" stroke-width="2" stroke-linecap="round" stroke-linejoin="round"/>
<path d="M269.7 503V500.9C269.7 498.1 272 495.9 274.8 495.9H283.1" stroke="#494949" stroke-width="2" stroke-linecap="round" stroke-linejoin="round"/>
<path d="M280 500.4L284.6 495.9L280 491.4" stroke="#494949" stroke-width="2" stroke-linecap="round" stroke-linejoin="round"/>
<path d="M339.9 5.8V55.8H1V5.8C1 3.2 3.1 1 5.8 1H109.9C112.7 1 115 3.30001 115 6.10001V17.8C115 20.6 117.3 22.9 120.1 22.9H220.8C223.6 22.9 225.9 20.6 225.9 17.8V6.10001C225.9 3.30001 228.2 1 231 1H335.1C337.7 1 339.9 3.1 339.9 5.8Z" fill="#27272A" stroke="#494949" stroke-width="2" stroke-linecap="round" stroke-linejoin="round"/>
</svg>
