<svg width="80" height="80" viewBox="0 0 80 80" fill="none" xmlns="http://www.w3.org/2000/svg">
<path d="M53.5 44.6666C53.6838 44.8548 53.8288 45.0774 53.9266 45.3216C54.0245 45.5659 54.0732 45.827 54.0701 46.0901C54.067 46.3532 54.0121 46.6132 53.9086 46.855C53.8051 47.0969 53.6549 47.3161 53.4667 47.4999C53.2784 47.6838 53.0558 47.8287 52.8116 47.9266C52.5673 48.0244 52.3062 48.0731 52.0431 48.07C51.78 48.0669 51.5201 48.0121 51.2782 47.9085C51.0363 47.805 50.8172 47.6548 50.6333 47.4666L40 36.6666L29.3333 47.5332C29.1674 47.7857 28.9464 47.9972 28.6869 48.152C28.4275 48.3068 28.1364 48.4009 27.8354 48.427C27.5345 48.4532 27.2315 48.4109 26.9492 48.3032C26.667 48.1955 26.4128 48.0253 26.2057 47.8053C25.9987 47.5853 25.8441 47.3213 25.7537 47.033C25.6633 46.7447 25.6394 46.4397 25.6838 46.1409C25.7281 45.8421 25.8396 45.5572 26.0098 45.3076C26.1801 45.058 26.4046 44.8503 26.6666 44.6999L38.9 32.4666C39.1975 32.1661 39.5826 31.9678 40 31.8999C40.2615 31.9018 40.52 31.9558 40.7604 32.0589C41.0008 32.1619 41.2182 32.3118 41.4 32.4999L53.5 44.6666Z" fill="white"/>
</svg>
