<svg width="525" height="244" viewBox="0 0 525 244" fill="none" xmlns="http://www.w3.org/2000/svg">
<path fill-rule="evenodd" clip-rule="evenodd" d="M634.89 204.833C632.395 206.411 629.764 207.93 626.999 209.39C626.122 209.852 625.037 209.516 624.575 208.638C624.112 207.76 624.448 206.673 625.325 206.21C628.009 204.793 630.559 203.321 632.972 201.794C633.81 201.264 634.919 201.515 635.448 202.354C635.978 203.193 635.728 204.303 634.89 204.833ZM610.421 216.834C607.662 217.889 604.813 218.9 601.876 219.867C600.935 220.176 599.921 219.663 599.611 218.72C599.302 217.777 599.814 216.762 600.756 216.452C603.639 215.503 606.435 214.511 609.141 213.477C610.067 213.123 611.104 213.587 611.458 214.515C611.811 215.442 611.347 216.48 610.421 216.834ZM584.492 224.824C581.619 225.529 578.684 226.2 575.691 226.834C574.721 227.039 573.769 226.419 573.563 225.448C573.358 224.477 573.978 223.523 574.948 223.318C577.904 222.691 580.801 222.03 583.637 221.333C584.6 221.096 585.571 221.686 585.808 222.65C586.044 223.614 585.455 224.587 584.492 224.824ZM557.91 230.075C554.975 230.529 551.997 230.953 548.979 231.345C547.996 231.473 547.096 230.779 546.968 229.795C546.84 228.811 547.533 227.909 548.516 227.781C551.506 227.392 554.455 226.973 557.362 226.523C558.341 226.371 559.258 227.044 559.41 228.024C559.561 229.005 558.89 229.923 557.91 230.075ZM531.086 233.273C528.12 233.53 525.125 233.759 522.104 233.96C521.115 234.026 520.26 233.277 520.194 232.287C520.128 231.296 520.876 230.44 521.865 230.374C524.863 230.174 527.834 229.947 530.777 229.692C531.765 229.607 532.635 230.339 532.72 231.328C532.805 232.317 532.074 233.188 531.086 233.273ZM504.104 234.826C501.117 234.916 498.113 234.981 495.095 235.02C494.104 235.033 493.29 234.239 493.278 233.246C493.265 232.254 494.058 231.439 495.049 231.426C498.046 231.387 501.029 231.323 503.996 231.234C504.986 231.204 505.814 231.984 505.844 232.976C505.873 233.968 505.094 234.796 504.104 234.826ZM477.103 234.955C474.109 234.896 471.109 234.812 468.106 234.705C467.116 234.669 466.341 233.836 466.377 232.844C466.412 231.852 467.244 231.077 468.234 231.113C471.218 231.22 474.199 231.303 477.174 231.362C478.165 231.382 478.952 232.202 478.933 233.194C478.913 234.187 478.094 234.975 477.103 234.955ZM450.11 233.775C447.113 233.572 444.121 233.347 441.139 233.098C440.151 233.016 439.417 232.147 439.499 231.158C439.581 230.169 440.449 229.434 441.436 229.516C444.4 229.763 447.373 229.988 450.351 230.189C451.34 230.255 452.088 231.112 452.021 232.103C451.954 233.093 451.099 233.841 450.11 233.775ZM423.217 231.312C420.221 230.965 417.243 230.594 414.286 230.2C413.304 230.069 412.613 229.165 412.744 228.181C412.874 227.197 413.777 226.506 414.759 226.637C417.696 227.028 420.654 227.397 423.63 227.742C424.615 227.857 425.32 228.748 425.206 229.734C425.092 230.72 424.202 231.427 423.217 231.312ZM396.478 227.507C393.487 226.999 390.53 226.468 387.611 225.913C386.637 225.729 385.997 224.788 386.182 223.813C386.367 222.838 387.306 222.197 388.279 222.382C391.176 222.932 394.11 223.46 397.078 223.964C398.056 224.13 398.713 225.058 398.548 226.036C398.382 227.015 397.456 227.673 396.478 227.507ZM369.972 222.176C366.997 221.475 364.078 220.751 361.22 220.002C360.261 219.751 359.687 218.769 359.937 217.809C360.188 216.849 361.169 216.274 362.128 216.525C364.957 217.266 367.847 217.983 370.793 218.677C371.758 218.904 372.356 219.871 372.129 220.837C371.902 221.803 370.936 222.403 369.972 222.176ZM343.898 214.933C340.957 213.972 338.108 212.983 335.355 211.968C334.425 211.625 333.949 210.592 334.291 209.661C334.634 208.73 335.665 208.253 336.595 208.596C339.305 209.595 342.112 210.569 345.012 211.516C345.954 211.824 346.469 212.839 346.161 213.783C345.854 214.726 344.841 215.241 343.898 214.933ZM318.66 204.913C315.81 203.523 313.127 202.099 310.618 200.643C309.761 200.146 309.468 199.046 309.965 198.187C310.462 197.329 311.56 197.036 312.418 197.534C314.85 198.945 317.456 200.329 320.231 201.682C321.123 202.116 321.493 203.192 321.059 204.084C320.626 204.976 319.551 205.347 318.66 204.913ZM295.591 190.409C293.218 188.628 290.843 186.781 288.453 184.86C287.679 184.239 287.555 183.108 288.176 182.334C288.796 181.56 289.925 181.435 290.699 182.057C293.059 183.953 295.403 185.776 297.744 187.533C298.537 188.129 298.698 189.255 298.103 190.049C297.509 190.843 296.384 191.005 295.591 190.409ZM274.695 173.181C272.532 171.255 270.322 169.249 268.018 167.126C267.289 166.453 267.242 165.316 267.914 164.586C268.585 163.856 269.72 163.809 270.45 164.482C272.738 166.592 274.933 168.584 277.08 170.495C277.821 171.155 277.887 172.291 277.229 173.032C276.57 173.774 275.436 173.841 274.695 173.181ZM254.93 154.792L248.44 148.579C247.724 147.893 247.698 146.755 248.383 146.038C249.068 145.32 250.204 145.295 250.92 145.98L257.408 152.192C258.125 152.877 258.151 154.015 257.467 154.733C256.782 155.451 255.646 155.477 254.93 154.792ZM235.412 136.251L233.715 134.682C232.037 133.134 230.407 131.648 228.806 130.207C228.069 129.543 228.009 128.407 228.671 127.669C229.334 126.931 230.469 126.87 231.206 127.534L232.828 129C234.46 130.483 236.128 132.015 237.852 133.616C238.579 134.291 238.622 135.428 237.948 136.155C237.274 136.883 236.138 136.926 235.412 136.251ZM215.274 118.536C212.934 116.615 210.612 114.763 208.293 112.972C207.508 112.366 207.363 111.237 207.968 110.451C208.574 109.665 209.701 109.52 210.485 110.126C212.833 111.94 215.183 113.814 217.55 115.757C218.316 116.386 218.428 117.518 217.8 118.286C217.172 119.053 216.041 119.165 215.274 118.536ZM193.823 102.554C191.337 100.897 188.838 99.2991 186.316 97.7577C185.47 97.2405 185.203 96.1345 185.72 95.2874C186.236 94.4403 187.341 94.1729 188.187 94.6901C190.748 96.2563 193.288 97.8794 195.812 99.5621C196.637 100.112 196.861 101.228 196.311 102.054C195.762 102.88 194.648 103.104 193.823 102.554ZM170.754 89.1064C168.108 87.7783 165.43 86.5051 162.717 85.2861C161.813 84.8798 161.408 83.8164 161.814 82.9109C162.22 82.0053 163.282 81.6005 164.186 82.0068C166.946 83.2469 169.671 84.5422 172.362 85.8932C173.249 86.338 173.607 87.4178 173.163 88.3051C172.719 89.1923 171.64 89.5511 170.754 89.1064ZM146.178 78.6914C143.399 77.7175 140.581 76.7943 137.72 75.9219C136.772 75.6327 136.237 74.6286 136.526 73.6792C136.815 72.7297 137.817 72.1945 138.765 72.4836C141.673 73.3704 144.539 74.3089 147.364 75.299C148.299 75.6268 148.792 76.652 148.465 77.5888C148.137 78.5256 147.114 79.0192 146.178 78.6914ZM120.488 71.3997C119.776 71.2414 119.06 71.0859 118.342 70.9333C116.168 70.4713 113.984 70.0716 111.791 69.7339C110.811 69.583 110.139 68.6655 110.29 67.6845C110.44 66.7035 111.357 66.0306 112.336 66.1815C114.596 66.5295 116.847 66.9413 119.087 67.4174C119.816 67.5723 120.542 67.7301 121.265 67.8907C122.233 68.1055 122.843 69.0652 122.629 70.0342C122.414 71.0031 121.456 71.6145 120.488 71.3997ZM94.1785 68.3493C91.2259 68.3357 88.2774 68.4307 85.3407 68.6324C84.352 68.7003 83.4953 67.9526 83.4274 66.9625C83.3596 65.9723 84.1062 65.1145 85.095 65.0466C88.1186 64.839 91.1546 64.7412 94.1948 64.7552C95.186 64.7598 95.9858 65.568 95.9813 66.5605C95.9768 67.553 95.1696 68.3539 94.1785 68.3493ZM67.8438 71.1284C64.9481 71.7613 62.093 72.4983 59.2897 73.3353C58.3399 73.6189 57.3403 73.0777 57.0571 72.1266C56.7738 71.1755 57.3142 70.1746 58.264 69.891C61.1532 69.0284 64.095 68.2689 67.0783 67.6169C68.0466 67.4053 69.003 68.0198 69.2144 68.9894C69.4258 69.9591 68.8122 70.9168 67.8438 71.1284ZM42.79 79.7126C40.0977 81.0151 37.5055 82.4134 35.0283 83.8985C34.1779 84.4083 33.0758 84.1312 32.5667 83.2796C32.0575 82.428 32.3342 81.3244 33.1846 80.8146C35.7542 79.2742 38.4406 77.8251 41.2284 76.4764C42.1209 76.0446 43.1939 76.4191 43.6251 77.3127C44.0563 78.2064 43.6824 79.2809 42.79 79.7126ZM20.998 94.4003C18.8062 96.4668 16.8231 98.6062 15.0662 100.801C14.4462 101.575 13.3167 101.699 12.5434 101.079C11.7701 100.458 11.6458 99.3268 12.2658 98.5524C14.1292 96.2248 16.2261 93.9626 18.5376 91.7834C19.2592 91.1031 20.395 91.1374 21.0744 91.86C21.7539 92.5827 21.7196 93.72 20.998 94.4003ZM6.90777 115.978C6.10171 118.785 5.67494 121.596 5.63663 124.389C5.62307 125.381 4.8086 126.175 3.81755 126.161C2.8265 126.147 2.03413 125.332 2.04776 124.339C2.09047 121.222 2.56537 118.094 3.45826 114.985C3.73219 114.031 4.72639 113.48 5.67895 113.755C6.63151 114.029 7.18163 115.024 6.90777 115.978ZM10.0139 140.558C11.383 142.931 13.0741 145.254 15.0896 147.519C15.749 148.26 15.6838 149.396 14.9439 150.056C14.204 150.716 13.0696 150.651 12.4102 149.91C10.2352 147.466 8.40004 144.945 6.90634 142.357C6.41037 141.497 6.70398 140.398 7.56208 139.902C8.42018 139.405 9.51789 139.699 10.0139 140.558ZM28.5363 158.726C30.8995 160.248 33.4423 161.723 36.1644 163.147C37.0428 163.607 37.3827 164.693 36.9236 165.573C36.4645 166.452 35.3802 166.793 34.5018 166.333C31.6861 164.859 29.0505 163.33 26.5952 161.75C25.7616 161.213 25.5202 160.101 26.0562 159.266C26.5922 158.431 27.7026 158.19 28.5363 158.726ZM52.4055 170.266C55.098 171.258 57.9028 172.213 60.8195 173.132C61.765 173.429 62.2906 174.438 61.9934 175.385C61.6962 176.332 60.6887 176.858 59.7432 176.56C56.7724 175.625 53.9134 174.651 51.1662 173.639C50.2361 173.296 49.7594 172.263 50.1016 171.332C50.4438 170.4 51.4753 169.923 52.4055 170.266ZM77.9791 177.795C80.0706 178.284 82.2053 178.757 84.3834 179.214L86.7129 179.694C87.6845 179.89 88.3129 180.838 88.1167 181.811C87.9204 182.784 86.9738 183.413 86.0023 183.217L85.3081 183.076C82.5258 182.508 79.8109 181.914 77.1636 181.295C76.1983 181.07 75.5985 180.103 75.8237 179.137C76.0489 178.17 77.0139 177.57 77.9791 177.795ZM104.291 182.83C107.262 183.287 110.21 183.703 113.132 184.077C114.116 184.203 114.811 185.103 114.685 186.087C114.559 187.072 113.66 187.768 112.677 187.642C109.724 187.264 106.747 186.844 103.746 186.382C102.766 186.231 102.094 185.314 102.245 184.333C102.395 183.352 103.311 182.679 104.291 182.83ZM130.891 185.867C133.885 186.085 136.85 186.257 139.787 186.384C140.777 186.427 141.545 187.266 141.502 188.257C141.46 189.249 140.622 190.018 139.632 189.975C136.66 189.847 133.66 189.673 130.631 189.452C129.643 189.38 128.9 188.519 128.971 187.529C129.043 186.54 129.903 185.795 130.891 185.867ZM157.624 186.593C160.627 186.531 163.595 186.418 166.528 186.255C167.518 186.2 168.365 186.958 168.42 187.949C168.475 188.94 167.717 189.788 166.727 189.843C163.752 190.009 160.743 190.123 157.699 190.187C156.708 190.207 155.888 189.42 155.867 188.427C155.847 187.435 156.633 186.614 157.624 186.593ZM184.274 184.611C187.248 184.221 190.18 183.775 193.07 183.275C194.047 183.107 194.975 183.763 195.144 184.741C195.313 185.719 194.658 186.648 193.681 186.817C190.743 187.325 187.763 187.778 184.74 188.175C183.758 188.304 182.857 187.611 182.728 186.627C182.599 185.643 183.291 184.74 184.274 184.611ZM210.448 179.492C213.345 178.724 216.19 177.897 218.981 177.014C219.926 176.714 220.934 177.239 221.233 178.185C221.532 179.132 221.008 180.141 220.063 180.441C217.218 181.342 214.319 182.184 211.367 182.966C210.409 183.22 209.427 182.648 209.173 181.689C208.919 180.73 209.49 179.746 210.448 179.492ZM235.633 170.799C238.382 169.605 241.064 168.351 243.677 167.04C244.563 166.595 245.641 166.954 246.085 167.841C246.53 168.728 246.171 169.808 245.285 170.253C242.613 171.594 239.871 172.876 237.061 174.096C236.151 174.491 235.095 174.073 234.7 173.162C234.306 172.252 234.724 171.193 235.633 170.799ZM279.483 141.312C281.586 139.147 283.548 136.947 285.36 134.727C285.988 133.959 287.118 133.845 287.885 134.474C288.653 135.102 288.766 136.234 288.139 137.002C286.261 139.302 284.231 141.579 282.057 143.818C281.366 144.53 280.23 144.546 279.519 143.854C278.808 143.162 278.792 142.024 279.483 141.312ZM294.994 120.082C296.387 117.291 297.473 114.587 298.237 112.036C298.521 111.086 299.522 110.546 300.471 110.831C301.421 111.116 301.96 112.118 301.675 113.068C300.85 115.823 299.687 118.718 298.205 121.689C297.762 122.577 296.684 122.937 295.797 122.493C294.911 122.049 294.551 120.97 294.994 120.082ZM298.461 95.171C297.813 92.4363 296.877 89.7135 295.652 87.0016C295.243 86.0973 295.644 85.0327 296.547 84.6236C297.45 84.2145 298.513 84.616 298.922 85.5202C300.241 88.439 301.251 91.3798 301.953 94.3416C302.182 95.3073 301.585 96.2758 300.621 96.5049C299.657 96.7339 298.689 96.1367 298.461 95.171ZM286.161 72.3977C284.336 70.2531 282.323 68.116 280.123 65.9867C279.411 65.2969 279.391 64.1592 280.08 63.4456C280.769 62.732 281.905 62.7127 282.618 63.4024C284.899 65.6106 286.991 67.8317 288.893 70.0662C289.536 70.8216 289.446 71.9558 288.691 72.5996C287.937 73.2435 286.804 73.1531 286.161 72.3977ZM266.547 54.658C264.234 52.9645 261.799 51.2768 259.243 49.595C258.414 49.05 258.184 47.9358 258.728 47.1063C259.272 46.2768 260.385 46.0462 261.213 46.5912C263.819 48.3054 266.303 50.0271 268.665 51.7565C269.465 52.3422 269.64 53.4666 269.055 54.2678C268.47 55.069 267.347 55.2437 266.547 54.658Z" fill="white"/>
<path fill-rule="evenodd" clip-rule="evenodd" d="M271.471 25.0887L271.581 25.1248C272.248 25.3899 272.355 26.3273 271.717 26.7236L248.092 41.4059L239.332 67.5178C239.084 68.258 238.075 68.3535 237.692 67.6729L204.779 9.1345C204.389 8.44141 205.025 7.62063 205.794 7.82295L271.471 25.0887ZM208.5 12.0732L238.269 65.0211L246.383 40.8339L208.5 12.0732ZM209.675 10.7035L247.669 39.549L268.99 26.2978L209.675 10.7035Z" fill="white"/>
</svg>
