<svg width="382" height="334" viewBox="0 0 382 334" fill="none" xmlns="http://www.w3.org/2000/svg">
<circle cx="195.5" cy="167" r="167" fill="#CCCED5"/>
<rect x="0.5" y="41" width="381" height="248" rx="16" fill="white"/>
<path d="M131.566 70.25C135.026 70.25 137.706 68.21 138.266 65.13H135.606C135.126 66.75 133.606 67.79 131.626 67.79C128.946 67.79 127.226 65.79 127.226 62.69C127.226 59.57 128.926 57.61 131.626 57.61C133.566 57.61 135.026 58.61 135.526 60.31H138.226C137.726 57.17 135.146 55.15 131.686 55.15C127.406 55.15 124.546 58.17 124.546 62.71C124.546 67.29 127.306 70.25 131.566 70.25Z" fill="black"/>
<path d="M146.402 60.09C146.002 59.99 145.662 59.95 145.322 59.95C144.002 59.95 143.062 60.61 142.642 61.59L142.502 60.15H140.202V70.01H142.642V65.21C142.642 63.29 143.742 62.35 145.502 62.35H146.402V60.09Z" fill="black"/>
<path d="M149.274 58.15C150.074 58.15 150.734 57.49 150.734 56.67C150.734 55.85 150.074 55.21 149.274 55.21C148.434 55.21 147.774 55.85 147.774 56.67C147.774 57.49 148.434 58.15 149.274 58.15ZM148.054 70.01H150.494V60.13H148.054V70.01Z" fill="black"/>
<path d="M155.955 70.27C157.495 70.27 158.835 69.57 159.255 68.55L159.435 70.01H161.575V64.01C161.575 61.27 159.935 59.83 157.275 59.83C154.595 59.83 152.835 61.23 152.835 63.37H154.915C154.915 62.33 155.715 61.73 157.155 61.73C158.395 61.73 159.195 62.27 159.195 63.61V63.83L156.235 64.05C153.895 64.23 152.575 65.37 152.575 67.19C152.575 69.05 153.855 70.27 155.955 70.27ZM156.755 68.43C155.655 68.43 155.055 67.99 155.055 67.09C155.055 66.29 155.635 65.79 157.155 65.65L159.215 65.49V66.01C159.215 67.53 158.255 68.43 156.755 68.43Z" fill="black"/>
<path d="M170.172 60.09C169.772 59.99 169.432 59.95 169.092 59.95C167.772 59.95 166.832 60.61 166.412 61.59L166.272 60.15H163.972V70.01H166.412V65.21C166.412 63.29 167.512 62.35 169.272 62.35H170.172V60.09Z" fill="black"/>
<path d="M179.654 70.01V64.69C179.654 63.09 180.574 62.05 182.074 62.05C183.334 62.05 184.154 62.85 184.154 64.51V70.01H186.594V63.93C186.594 61.37 185.314 59.83 182.834 59.83C181.494 59.83 180.294 60.41 179.674 61.41L179.474 60.13H177.214V70.01H179.654Z" fill="black"/>
<path d="M188.411 65.05C188.411 68.13 190.631 70.25 193.691 70.25C196.751 70.25 198.971 68.13 198.971 65.05C198.971 61.97 196.751 59.85 193.691 59.85C190.631 59.85 188.411 61.97 188.411 65.05ZM190.851 65.05C190.851 63.25 192.011 62.03 193.691 62.03C195.371 62.03 196.531 63.25 196.531 65.05C196.531 66.85 195.371 68.07 193.691 68.07C192.011 68.07 190.851 66.85 190.851 65.05Z" fill="black"/>
<path d="M203.217 70.01H205.617L209.737 60.13H207.217L205.417 64.67C204.997 65.75 204.637 66.79 204.497 67.41C204.377 66.87 204.037 65.85 203.617 64.67L201.897 60.13H199.297L203.217 70.01Z" fill="black"/>
<path d="M213.591 70.27C215.131 70.27 216.471 69.57 216.891 68.55L217.071 70.01H219.211V64.01C219.211 61.27 217.571 59.83 214.911 59.83C212.231 59.83 210.471 61.23 210.471 63.37H212.551C212.551 62.33 213.351 61.73 214.791 61.73C216.031 61.73 216.831 62.27 216.831 63.61V63.83L213.871 64.05C211.531 64.23 210.211 65.37 210.211 67.19C210.211 69.05 211.491 70.27 213.591 70.27ZM214.391 68.43C213.291 68.43 212.691 67.99 212.691 67.09C212.691 66.29 213.271 65.79 214.791 65.65L216.851 65.49V66.01C216.851 67.53 215.891 68.43 214.391 68.43Z" fill="black"/>
<path d="M229.459 70.01V55.13H227.039V70.01H229.459Z" fill="black"/>
<path d="M231.439 65.05C231.439 68.13 233.659 70.25 236.719 70.25C239.779 70.25 241.999 68.13 241.999 65.05C241.999 61.97 239.779 59.85 236.719 59.85C233.659 59.85 231.439 61.97 231.439 65.05ZM233.879 65.05C233.879 63.25 235.039 62.03 236.719 62.03C238.399 62.03 239.559 63.25 239.559 65.05C239.559 66.85 238.399 68.07 236.719 68.07C235.039 68.07 233.879 66.85 233.879 65.05Z" fill="black"/>
<path d="M245.153 58.15C245.953 58.15 246.633 57.49 246.633 56.67C246.633 55.85 245.953 55.21 245.153 55.21C244.333 55.21 243.673 55.85 243.673 56.67C243.673 57.49 244.333 58.15 245.153 58.15ZM241.573 74.65C242.213 74.83 242.573 74.87 243.033 74.87C245.173 74.87 246.373 73.51 246.373 71.41V60.13H243.933V71.13C243.933 72.13 243.653 72.61 242.813 72.61C242.513 72.61 242.313 72.59 241.973 72.49L241.573 74.65Z" fill="black"/>
<path d="M251.834 70.27C253.374 70.27 254.714 69.57 255.134 68.55L255.314 70.01H257.454V64.01C257.454 61.27 255.814 59.83 253.154 59.83C250.474 59.83 248.714 61.23 248.714 63.37H250.794C250.794 62.33 251.594 61.73 253.034 61.73C254.274 61.73 255.074 62.27 255.074 63.61V63.83L252.114 64.05C249.774 64.23 248.454 65.37 248.454 67.19C248.454 69.05 249.734 70.27 251.834 70.27ZM252.634 68.43C251.534 68.43 250.934 67.99 250.934 67.09C250.934 66.29 251.514 65.79 253.034 65.65L255.094 65.49V66.01C255.094 67.53 254.134 68.43 252.634 68.43Z" fill="black"/>
<path d="M353.423 60.3334C353.274 60.3334 353.118 60.3835 353.004 60.4972C352.776 60.7251 352.776 61.1075 353.004 61.3354L356.663 64.9967L353.004 68.658C352.776 68.8859 352.776 69.2683 353.004 69.4962C353.231 69.7235 353.614 69.7235 353.841 69.4962L357.5 65.8349L361.159 69.4962C361.386 69.7235 361.769 69.7235 361.996 69.4962C362.224 69.2683 362.224 68.8859 361.996 68.658L358.337 64.9967L361.996 61.3354C362.224 61.1075 362.224 60.7251 361.996 60.4972C361.882 60.3835 361.726 60.3334 361.577 60.3334C361.428 60.3334 361.273 60.3835 361.159 60.4972L357.5 64.1585L353.841 60.4972C353.728 60.3835 353.572 60.3334 353.423 60.3334Z" fill="#000C2C"/>
<path d="M381.5 88H0.5V90H381.5V88Z" fill="#EBEBEB" mask="url(#path-3-inside-1_196_7012)"/>
<rect x="141.5" y="129.5" width="99" height="99" rx="7.5" fill="#E9EEF3"/>
<g clip-path="url(#clip0_196_7012)">
<path d="M170.64 164H211.339C213.915 164 216 166.093 216 168.679V184.275C216 186.861 213.915 188.955 211.339 188.955H196.744L198.748 193.88L189.937 188.955H170.661C168.085 188.955 166 186.861 166 184.275V168.679C165.98 166.114 168.065 164 170.64 164Z" fill="#2E85EC"/>
<path d="M168.847 168.265C169.132 167.877 169.559 167.673 170.128 167.632C171.164 167.551 171.754 168.04 171.896 169.101C172.526 173.366 173.217 176.978 173.949 179.936L178.4 171.428C178.807 170.652 179.315 170.244 179.925 170.203C180.819 170.142 181.368 170.713 181.591 171.917C182.099 174.631 182.75 176.937 183.522 178.896C184.051 173.713 184.945 169.979 186.205 167.673C186.51 167.102 186.957 166.816 187.547 166.775C188.014 166.734 188.441 166.877 188.827 167.183C189.213 167.489 189.417 167.877 189.457 168.346C189.478 168.714 189.417 169.02 189.254 169.326C188.461 170.795 187.811 173.264 187.283 176.692C186.774 180.018 186.592 182.609 186.713 184.466C186.754 184.976 186.673 185.425 186.47 185.813C186.226 186.262 185.86 186.507 185.392 186.547C184.864 186.588 184.315 186.343 183.787 185.792C181.896 183.854 180.392 180.957 179.295 177.1C177.974 179.712 176.998 181.671 176.368 182.977C175.169 185.282 174.153 186.466 173.299 186.527C172.75 186.568 172.283 186.098 171.876 185.119C170.84 182.446 169.722 177.284 168.522 169.632C168.441 169.101 168.563 168.632 168.848 168.265L168.847 168.265ZM212.527 171.468C211.795 170.183 210.718 169.407 209.275 169.101C208.889 169.02 208.523 168.979 208.178 168.979C206.226 168.979 204.641 169.999 203.401 172.039C202.344 173.774 201.816 175.692 201.816 177.794C201.816 179.365 202.141 180.711 202.791 181.834C203.523 183.119 204.6 183.895 206.043 184.201C206.43 184.282 206.795 184.323 207.141 184.323C209.112 184.323 210.698 183.303 211.917 181.263C212.974 179.508 213.503 177.59 213.503 175.488C213.523 173.896 213.178 172.57 212.527 171.468ZM209.966 177.12C209.682 178.467 209.174 179.467 208.421 180.14C207.832 180.671 207.283 180.895 206.775 180.793C206.287 180.691 205.881 180.263 205.576 179.467C205.332 178.834 205.21 178.202 205.21 177.61C205.21 177.1 205.251 176.59 205.352 176.121C205.535 175.284 205.881 174.468 206.43 173.692C207.1 172.693 207.812 172.284 208.543 172.427C209.031 172.529 209.438 172.958 209.743 173.754C209.987 174.386 210.108 175.019 210.108 175.61C210.108 176.141 210.068 176.651 209.966 177.12ZM199.803 171.468C199.072 170.183 197.974 169.407 196.552 169.101C196.165 169.02 195.799 168.979 195.454 168.979C193.503 168.979 191.917 169.999 190.678 172.039C189.621 173.774 189.092 175.692 189.092 177.794C189.092 179.365 189.417 180.711 190.068 181.834C190.8 183.119 191.877 183.895 193.32 184.201C193.706 184.282 194.072 184.323 194.417 184.323C196.389 184.323 197.974 183.303 199.194 181.263C200.251 179.508 200.779 177.59 200.779 175.488C200.779 173.896 200.454 172.57 199.803 171.468ZM197.222 177.12C196.938 178.467 196.43 179.467 195.678 180.14C195.088 180.671 194.539 180.895 194.031 180.793C193.543 180.691 193.137 180.263 192.832 179.467C192.588 178.834 192.466 178.202 192.466 177.61C192.466 177.1 192.507 176.59 192.608 176.121C192.791 175.284 193.137 174.468 193.686 173.692C194.356 172.693 195.068 172.284 195.8 172.427C196.287 172.529 196.694 172.958 196.999 173.754C197.243 174.386 197.365 175.019 197.365 175.61C197.385 176.141 197.324 176.651 197.222 177.12Z" fill="white"/>
</g>
<rect x="141.5" y="129.5" width="99" height="99" rx="7.5" stroke="#2E85EC"/>
<path d="M145.259 251.192H146.225L148.913 242.68L151.601 251.192H152.553L155.563 241.168H154.541L152.469 248.07C152.357 248.448 152.231 248.938 152.077 249.708C151.923 249.064 151.783 248.56 151.629 248.056L149.445 241.168H148.395L146.211 248.056C146.057 248.546 145.917 248.98 145.749 249.708C145.623 249.05 145.497 248.546 145.357 248.056L143.327 241.168H142.277L145.259 251.192Z" fill="#000C2C"/>
<path d="M155.518 247.804C155.518 249.862 156.974 251.36 158.962 251.36C160.95 251.36 162.406 249.862 162.406 247.804C162.406 245.732 160.95 244.234 158.962 244.234C156.974 244.234 155.518 245.732 155.518 247.804ZM156.498 247.79C156.498 246.222 157.506 245.102 158.962 245.102C160.404 245.102 161.426 246.222 161.426 247.79C161.426 249.386 160.404 250.492 158.962 250.492C157.506 250.492 156.498 249.386 156.498 247.79Z" fill="#000C2C"/>
<path d="M163.476 247.804C163.476 249.862 164.932 251.36 166.92 251.36C168.908 251.36 170.364 249.862 170.364 247.804C170.364 245.732 168.908 244.234 166.92 244.234C164.932 244.234 163.476 245.732 163.476 247.804ZM164.456 247.79C164.456 246.222 165.464 245.102 166.92 245.102C168.362 245.102 169.384 246.222 169.384 247.79C169.384 249.386 168.362 250.492 166.92 250.492C165.464 250.492 164.456 249.386 164.456 247.79Z" fill="#000C2C"/>
<path d="M176.207 251.346C178.363 251.346 180.113 250.072 180.575 248.182H179.497C179.063 249.526 177.803 250.38 176.221 250.38C174.023 250.38 172.553 248.7 172.553 246.18C172.553 243.646 174.023 241.966 176.221 241.966C177.789 241.966 179.021 242.848 179.441 244.29H180.519C180.113 242.302 178.419 241 176.263 241C173.435 241 171.503 243.1 171.503 246.18C171.503 249.26 173.407 251.346 176.207 251.346Z" fill="#000C2C"/>
<path d="M181.632 247.804C181.632 249.862 183.088 251.36 185.076 251.36C187.064 251.36 188.52 249.862 188.52 247.804C188.52 245.732 187.064 244.234 185.076 244.234C183.088 244.234 181.632 245.732 181.632 247.804ZM182.612 247.79C182.612 246.222 183.62 245.102 185.076 245.102C186.518 245.102 187.54 246.222 187.54 247.79C187.54 249.386 186.518 250.492 185.076 250.492C183.62 250.492 182.612 249.386 182.612 247.79Z" fill="#000C2C"/>
<path d="M191.031 251.192V246.992C191.031 245.956 191.717 245.116 192.851 245.116C193.873 245.116 194.531 245.788 194.531 246.936V251.192H195.483V247.006C195.483 245.956 196.155 245.102 197.289 245.102C198.325 245.102 198.969 245.788 198.969 246.95V251.192H199.907V246.754C199.907 245.186 198.941 244.234 197.471 244.234C196.379 244.234 195.553 244.794 195.245 245.676C194.923 244.794 194.125 244.234 193.061 244.234C192.109 244.234 191.353 244.668 191.017 245.382L190.905 244.416H190.065V251.192H191.031Z" fill="#000C2C"/>
<path d="M202.816 251.192V246.992C202.816 245.956 203.502 245.116 204.636 245.116C205.658 245.116 206.316 245.788 206.316 246.936V251.192H207.268V247.006C207.268 245.956 207.94 245.102 209.074 245.102C210.11 245.102 210.754 245.788 210.754 246.95V251.192H211.692V246.754C211.692 245.186 210.726 244.234 209.256 244.234C208.164 244.234 207.338 244.794 207.03 245.676C206.708 244.794 205.91 244.234 204.846 244.234C203.894 244.234 203.138 244.668 202.802 245.382L202.69 244.416H201.85V251.192H202.816Z" fill="#000C2C"/>
<path d="M216.477 251.36C218.073 251.36 219.123 250.59 219.487 249.162H218.563C218.311 250.058 217.597 250.534 216.491 250.534C215.035 250.534 214.167 249.582 214.097 247.93H219.487V247.454C219.487 245.536 218.241 244.234 216.407 244.234C214.475 244.234 213.159 245.69 213.159 247.804C213.159 249.932 214.489 251.36 216.477 251.36ZM216.407 245.06C217.681 245.06 218.521 245.928 218.521 247.23H214.125C214.293 245.9 215.133 245.06 216.407 245.06Z" fill="#000C2C"/>
<path d="M224.574 244.332C224.336 244.276 224.154 244.262 223.944 244.262C222.992 244.262 222.278 244.738 222.012 245.466L221.942 244.416H221.032V251.192H221.998V247.328C221.998 246.04 222.796 245.2 224.042 245.2H224.574V244.332Z" fill="#000C2C"/>
<path d="M225.122 247.818C225.122 249.946 226.424 251.36 228.342 251.36C229.882 251.36 231.086 250.45 231.408 249.064H230.428C230.162 249.932 229.35 250.492 228.342 250.492C226.97 250.492 226.074 249.414 226.074 247.804C226.074 246.138 227.04 245.088 228.412 245.088C229.35 245.088 230.162 245.606 230.414 246.544H231.38C231.114 245.144 229.966 244.234 228.398 244.234C226.424 244.234 225.122 245.69 225.122 247.818Z" fill="#000C2C"/>
<path d="M235.713 251.36C237.309 251.36 238.359 250.59 238.723 249.162H237.799C237.547 250.058 236.833 250.534 235.727 250.534C234.271 250.534 233.403 249.582 233.333 247.93H238.723V247.454C238.723 245.536 237.477 244.234 235.643 244.234C233.711 244.234 232.395 245.69 232.395 247.804C232.395 249.932 233.725 251.36 235.713 251.36ZM235.643 245.06C236.917 245.06 237.757 245.928 237.757 247.23H233.361C233.529 245.9 234.369 245.06 235.643 245.06Z" fill="#000C2C"/>
<rect x="25.5" y="129.5" width="99" height="99" rx="7.5" fill="#E9EEF3"/>
<g clip-path="url(#clip1_196_7012)">
<path d="M73.6718 160.213C73.9876 160.213 74.1454 160.358 74.4612 160.504C72.5667 161.231 70.6722 163.123 69.725 167.196L66.2517 168.069C67.3568 165.159 69.5671 160.213 73.6718 160.213ZM75.4084 161.668C75.7242 162.541 76.0399 163.559 76.0399 165.159C76.0399 165.305 76.0399 165.305 76.0399 165.45L71.4616 166.614C72.4088 163.559 73.9876 162.25 75.4084 161.668ZM79.5132 164.286L77.4608 164.868C77.4608 164.723 77.4608 164.577 77.4608 164.432C77.4608 163.123 77.3029 162.104 76.9872 161.231C78.0923 161.522 79.0395 162.832 79.5132 164.286ZM89.775 166.614C89.775 166.468 89.6171 166.323 89.4592 166.323C89.1435 166.323 85.8281 166.032 85.8281 166.032C85.8281 166.032 83.46 163.85 83.1443 163.704C82.8285 163.413 82.3549 163.559 82.197 163.559C82.197 163.559 81.7234 163.704 80.934 163.995C80.1447 161.959 78.7238 160.068 76.3557 160.068H76.1978C75.5663 159.195 74.6191 158.904 73.8297 158.904C68.1462 158.758 65.4624 165.305 64.5151 168.651C63.2521 168.942 61.9891 169.378 60.5683 169.814C59.3053 170.105 59.3053 170.251 59.1474 171.269C58.9895 171.997 55.832 194.981 55.832 194.981L80.934 199.346L94.5112 196.582C94.5112 196.582 89.775 166.905 89.775 166.614Z" fill="#2E85EC"/>
<path d="M89.3017 166.323C89.1438 166.323 85.8284 166.032 85.8284 166.032C85.8284 166.032 83.4603 163.85 83.1446 163.705C82.9867 163.559 82.9867 163.559 82.8288 163.559L80.9343 199.346L94.5115 196.582C94.5115 196.582 89.7753 166.905 89.7753 166.614C89.7753 166.469 89.4595 166.323 89.3017 166.323Z" fill="#2672CD"/>
<path d="M76.3556 173.306L74.619 177.961C74.619 177.961 73.1982 177.234 71.3037 177.234C68.6198 177.234 68.4619 178.688 68.4619 179.125C68.4619 181.161 74.4612 182.034 74.4612 186.98C74.4612 190.908 71.7773 193.381 68.1462 193.381C63.8836 193.381 61.6733 190.908 61.6733 190.908L62.7785 187.417C62.7785 187.417 64.9887 189.163 66.8832 189.163C68.1462 189.163 68.6198 188.29 68.6198 187.562C68.6198 184.798 63.7257 184.653 63.7257 180.143C63.7257 176.361 66.7253 172.724 72.5667 172.724C75.2505 172.578 76.3556 173.306 76.3556 173.306Z" fill="white"/>
</g>
<rect x="25.5" y="129.5" width="99" height="99" rx="7.5" stroke="#2E85EC"/>
<path d="M52.1272 243.786C52.1272 245.158 52.9532 246.054 54.5212 246.432L56.2152 246.852C57.2932 247.104 57.7972 247.692 57.7972 248.588C57.7972 249.736 56.8592 250.45 55.3892 250.45C54.0172 250.45 53.0932 249.764 53.0372 248.714H52.0012C52.1272 250.352 53.4432 251.374 55.3892 251.374C57.4612 251.374 58.8052 250.268 58.8052 248.532C58.8052 247.174 57.9932 246.278 56.4252 245.9L54.7032 245.48C53.6532 245.214 53.1352 244.654 53.1352 243.772C53.1352 242.638 54.0592 241.91 55.4732 241.91C56.7332 241.91 57.5032 242.554 57.6152 243.688H58.6372C58.4832 242.008 57.2932 241 55.4872 241C53.4712 241 52.1272 242.106 52.1272 243.786Z" fill="#000C2C"/>
<path d="M61.3739 251.192V247.51C61.3739 246.208 62.1299 245.13 63.5859 245.13C64.6359 245.13 65.3779 245.69 65.3779 247.272V251.206H66.3439V247.062C66.3439 245.354 65.5459 244.248 63.7679 244.248C62.6339 244.248 61.8079 244.794 61.3739 245.606V241H60.4079V251.192H61.3739Z" fill="#000C2C"/>
<path d="M67.7932 247.818C67.7932 249.876 69.2492 251.374 71.2372 251.374C73.2252 251.374 74.6812 249.876 74.6812 247.818C74.6812 245.746 73.2252 244.248 71.2372 244.248C69.2492 244.248 67.7932 245.746 67.7932 247.818ZM68.7732 247.804C68.7732 246.236 69.7812 245.116 71.2372 245.116C72.6792 245.116 73.7012 246.236 73.7012 247.804C73.7012 249.4 72.6792 250.506 71.2372 250.506C69.7812 250.506 68.7732 249.4 68.7732 247.804Z" fill="#000C2C"/>
<path d="M76.2263 254.16H77.1923V249.904C77.6683 250.884 78.5783 251.374 79.7263 251.374C81.7283 251.374 82.8623 249.834 82.8623 247.79C82.8623 245.746 81.6863 244.248 79.7263 244.248C78.5923 244.248 77.6403 244.752 77.1643 245.802L77.0663 244.43H76.2263V254.16ZM77.2063 247.818C77.2063 246.25 78.0743 245.13 79.5583 245.13C81.0283 245.13 81.8823 246.25 81.8823 247.818C81.8823 249.372 81.0283 250.506 79.5583 250.506C78.0743 250.506 77.2063 249.372 77.2063 247.818Z" fill="#000C2C"/>
<path d="M84.878 242.568C85.27 242.568 85.606 242.246 85.606 241.854C85.606 241.462 85.27 241.126 84.878 241.126C84.486 241.126 84.164 241.462 84.164 241.854C84.164 242.246 84.486 242.568 84.878 242.568ZM84.402 251.206H85.368V244.43H84.402V251.206Z" fill="#000C2C"/>
<path d="M86.6265 244.43V245.242H87.6625V251.206H88.6285V245.242H90.2245V244.43H88.6285V243.114C88.6285 242.316 88.8525 241.882 89.7065 241.882H90.2805V241.056C90.0565 241.014 89.7765 241 89.5385 241C88.5025 241 87.6625 241.588 87.6625 243.114V244.43H86.6265Z" fill="#000C2C"/>
<path d="M90.8527 254.16C91.1607 254.23 91.4688 254.258 91.8748 254.258C92.8408 254.258 93.4988 253.824 93.8908 252.76L96.9987 244.43H96.0047L93.8628 250.338L91.6787 244.43H90.6567L93.4007 251.612L93.1068 252.41C92.7708 253.32 92.1827 253.362 91.5947 253.362H90.8527V254.16Z" fill="#000C2C"/>
<rect x="257.5" y="129.5" width="99" height="99" rx="7.5" fill="#E9EEF3"/>
<g clip-path="url(#clip2_196_7012)">
<path d="M291.217 163.47C291.961 160.826 294.373 159 297.12 159H317.554C320.301 159 322.713 160.826 323.456 163.47L328.542 181.547C329.687 185.614 326.629 189.648 322.404 189.648H304.272V186.583H322.404C324.598 186.583 326.185 184.489 325.591 182.377L320.505 164.3C320.133 162.978 318.927 162.065 317.554 162.065H297.12C295.746 162.065 294.54 162.978 294.168 164.3L293.073 168.194H290.476C290.276 168.194 290.078 168.202 289.881 168.217L291.217 163.47ZM304.119 195.778H318.067C318.914 195.778 319.6 195.092 319.6 194.245C319.6 193.399 318.914 192.713 318.067 192.713H304.272V194.245C304.272 194.77 304.22 195.283 304.119 195.778ZM293.542 181.986C294.812 181.986 295.841 180.957 295.841 179.688C295.841 178.418 294.812 177.389 293.542 177.389C292.272 177.389 291.242 178.418 291.242 179.688C291.242 180.957 292.272 181.986 293.542 181.986ZM285.877 175.857C285.877 173.318 287.936 171.259 290.476 171.259H296.608C299.148 171.259 301.206 173.318 301.206 175.857V194.245C301.206 196.784 299.148 198.843 296.608 198.843H290.476C287.936 198.843 285.877 196.784 285.877 194.245V175.857ZM290.476 174.324C289.629 174.324 288.943 175.01 288.943 175.857V194.245C288.943 195.092 289.629 195.778 290.476 195.778H296.608C297.454 195.778 298.141 195.092 298.141 194.245V175.857C298.141 175.01 297.454 174.324 296.608 174.324H290.476Z" fill="#2E85EC"/>
</g>
<rect x="257.5" y="129.5" width="99" height="99" rx="7.5" stroke="#2E85EC"/>
<path d="M266.091 241.182H265.083V251.206H270.697V250.282H266.091V241.182Z" fill="#000C2C"/>
<path d="M273.942 251.374C275.09 251.374 276.014 250.87 276.434 250.016L276.56 251.206H277.372V246.824C277.372 245.032 276.224 244.248 274.656 244.248C272.99 244.248 271.87 245.13 271.87 246.502H272.752C272.752 245.592 273.452 245.06 274.628 245.06C275.622 245.06 276.42 245.48 276.42 246.81V247.034L274.18 247.216C272.598 247.342 271.646 248.126 271.646 249.372C271.646 250.562 272.5 251.374 273.942 251.374ZM274.166 250.59C273.242 250.59 272.626 250.17 272.626 249.344C272.626 248.588 273.144 248.028 274.418 247.916L276.42 247.762V248.126C276.42 249.596 275.594 250.59 274.166 250.59Z" fill="#000C2C"/>
<path d="M280.277 251.206V247.664C280.277 246.138 281.061 245.13 282.447 245.13C283.567 245.13 284.281 245.69 284.281 247.272V251.206H285.247V247.062C285.247 245.354 284.477 244.248 282.615 244.248C281.635 244.248 280.739 244.738 280.291 245.606L280.151 244.43H279.311V251.206H280.277Z" fill="#000C2C"/>
<path d="M289.832 251.374C290.966 251.374 291.918 250.87 292.394 249.82L292.492 251.206H293.332V241H292.366V245.718C291.89 244.738 290.994 244.248 289.874 244.248C287.858 244.248 286.696 245.788 286.696 247.832C286.696 249.862 287.858 251.374 289.832 251.374ZM290 250.492C288.53 250.492 287.676 249.372 287.676 247.804C287.676 246.25 288.53 245.116 290 245.116C291.484 245.116 292.352 246.25 292.352 247.804C292.352 249.372 291.484 250.492 290 250.492Z" fill="#000C2C"/>
<path d="M295.824 242.568C296.216 242.568 296.552 242.246 296.552 241.854C296.552 241.462 296.216 241.126 295.824 241.126C295.432 241.126 295.11 241.462 295.11 241.854C295.11 242.246 295.432 242.568 295.824 242.568ZM295.348 251.206H296.314V244.43H295.348V251.206Z" fill="#000C2C"/>
<path d="M299.294 251.206V247.664C299.294 246.138 300.078 245.13 301.464 245.13C302.584 245.13 303.298 245.69 303.298 247.272V251.206H304.264V247.062C304.264 245.354 303.494 244.248 301.632 244.248C300.652 244.248 299.756 244.738 299.308 245.606L299.168 244.43H298.328V251.206H299.294Z" fill="#000C2C"/>
<path d="M305.728 247.622C305.728 249.47 306.904 250.996 308.836 250.996C309.998 250.996 310.936 250.436 311.398 249.484V251.094C311.398 252.508 310.474 253.446 309.088 253.446C307.87 253.446 307.03 252.802 306.82 251.71H305.854C306.12 253.348 307.338 254.328 309.074 254.328C311.062 254.328 312.35 253.012 312.35 250.996V244.43H311.51L311.412 245.788C310.978 244.794 310.082 244.248 308.906 244.248C306.918 244.248 305.728 245.774 305.728 247.622ZM306.694 247.608C306.694 246.236 307.534 245.102 308.99 245.102C310.474 245.102 311.314 246.166 311.314 247.608C311.314 249.064 310.446 250.128 308.976 250.128C307.548 250.128 306.694 248.994 306.694 247.608Z" fill="#000C2C"/>
<path d="M322.28 247.524C324.198 247.524 325.43 246.152 325.43 244.332C325.43 242.442 324.212 241.182 322.28 241.182H318.458V251.206H319.466V247.524H322.28ZM322.14 242.092C323.526 242.092 324.38 242.932 324.38 244.318C324.38 245.69 323.54 246.614 322.084 246.614H319.466V242.092H322.14Z" fill="#000C2C"/>
<path d="M328.52 251.374C329.668 251.374 330.592 250.87 331.012 250.016L331.138 251.206H331.95V246.824C331.95 245.032 330.802 244.248 329.234 244.248C327.568 244.248 326.448 245.13 326.448 246.502H327.33C327.33 245.592 328.03 245.06 329.206 245.06C330.2 245.06 330.998 245.48 330.998 246.81V247.034L328.758 247.216C327.176 247.342 326.224 248.126 326.224 249.372C326.224 250.562 327.078 251.374 328.52 251.374ZM328.744 250.59C327.82 250.59 327.204 250.17 327.204 249.344C327.204 248.588 327.722 248.028 328.996 247.916L330.998 247.762V248.126C330.998 249.596 330.172 250.59 328.744 250.59Z" fill="#000C2C"/>
<path d="M333.427 247.622C333.427 249.47 334.603 250.996 336.535 250.996C337.697 250.996 338.635 250.436 339.097 249.484V251.094C339.097 252.508 338.173 253.446 336.787 253.446C335.569 253.446 334.729 252.802 334.519 251.71H333.553C333.819 253.348 335.037 254.328 336.773 254.328C338.761 254.328 340.049 253.012 340.049 250.996V244.43H339.209L339.111 245.788C338.677 244.794 337.781 244.248 336.605 244.248C334.617 244.248 333.427 245.774 333.427 247.622ZM334.393 247.608C334.393 246.236 335.233 245.102 336.689 245.102C338.173 245.102 339.013 246.166 339.013 247.608C339.013 249.064 338.145 250.128 336.675 250.128C335.247 250.128 334.393 248.994 334.393 247.608Z" fill="#000C2C"/>
<path d="M344.907 251.374C346.503 251.374 347.553 250.604 347.917 249.176H346.993C346.741 250.072 346.027 250.548 344.921 250.548C343.465 250.548 342.597 249.596 342.527 247.944H347.917V247.468C347.917 245.55 346.671 244.248 344.837 244.248C342.905 244.248 341.589 245.704 341.589 247.818C341.589 249.946 342.919 251.374 344.907 251.374ZM344.837 245.074C346.111 245.074 346.951 245.942 346.951 247.244H342.555C342.723 245.914 343.563 245.074 344.837 245.074Z" fill="#000C2C"/>
<defs>
<clipPath id="clip0_196_7012">
<rect width="50" height="30" fill="white" transform="translate(166 164)"/>
</clipPath>
<clipPath id="clip1_196_7012">
<rect width="40" height="42" fill="white" transform="translate(55 158)"/>
</clipPath>
<clipPath id="clip2_196_7012">
<rect width="44" height="40" fill="white" transform="translate(285 159)"/>
</clipPath>
</defs>
</svg>
