<svg width="1429" height="831" viewBox="0 0 1429 831" fill="none" xmlns="http://www.w3.org/2000/svg">
<g clip-path="url(#clip0_196_7010)">
<path d="M1385 331.1C1348.6 290.9 1287.6 286.4 1240.2 260C1158.6 214.6 1127 111.2 1052.8 54.6C1005.9 18.8 942.6 5 886 12.8C805.6 23.9 730 77.8 707.3 156.7C701 178.6 698.5 202.4 700.4 227.6C704 274.7 714.2 322.4 704.6 368.6C694.1 419.6 660.9 462.7 641.1 510.8C616.4 570.7 613 638 623.5 702C630.7 745.6 645.1 789.7 675.1 822.2C677.3 824.6 679.7 827 682.1 829.3H1009.3C1029.8 803.1 1045.4 772.1 1063.5 744.6C1108.9 675.5 1181.7 626.1 1261.1 603C1296.7 592.6 1335.3 586.5 1363.9 562.9C1393.3 538.6 1406.8 499.9 1412.7 462.2C1419.8 416.6 1415.9 365.4 1385 331.1Z" fill="#1D1D1F"/>
<path opacity="0.7" d="M1385 331.1C1348.6 290.9 1287.6 286.4 1240.2 260C1158.6 214.6 1127 111.2 1052.8 54.6C1005.9 18.8 942.6 5 886 12.8C805.6 23.9 730 77.8 707.3 156.7C701 178.6 698.5 202.4 700.4 227.6C704 274.7 714.2 322.4 704.6 368.6C694.1 419.6 660.9 462.7 641.1 510.8C616.4 570.7 613 638 623.5 702C630.7 745.6 645.1 789.7 675.1 822.2C677.3 824.6 679.7 827 682.1 829.3H1009.3C1029.8 803.1 1045.4 772.1 1063.5 744.6C1108.9 675.5 1181.7 626.1 1261.1 603C1296.7 592.6 1335.3 586.5 1363.9 562.9C1393.3 538.6 1406.8 499.9 1412.7 462.2C1419.8 416.6 1415.9 365.4 1385 331.1Z" fill="#1D1D1F"/>
<path d="M633.8 716.5L634.2 723.7V724.9L635.1 742L635.3 745.2L636.1 760.2L636.4 765.5L637.1 778.5L637.5 785.8L638.1 796.7L638.6 806.2L639.1 815C639.1 815 639.2 816.9 639.3 819.2" stroke="#494949" stroke-width="2" stroke-linecap="round" stroke-linejoin="round"/>
<path d="M639.5 822.6C639.6 824.7 639.7 826.5 639.7 826.5L639.8 828.1H641.3H645.1H660.6H664.3H679.8H683.5H699H702.8H718.2H722H733.6L733.8 824.5L734.2 815.9L734.8 806.2L735.3 795.6L735.7 788L736.4 775.2L736.7 769.7C736.7 769.7 736.9 766.8 737.1 763.6" stroke="#494949" stroke-width="2" stroke-linecap="round" stroke-linejoin="round"/>
<path d="M737.3 759.6C737.4 757 737.5 754.9 737.5 754.9L737.7 751.5L738.6 734.6L738.7 733.3C738.7 733.3 738.9 728.8 739.2 724.5" stroke="#494949" stroke-width="2" stroke-linecap="round" stroke-linejoin="round"/>
<path d="M739.3 720.8C739.5 718.3 739.6 716.5 739.6 716.5" stroke="#494949" stroke-width="2" stroke-linecap="round" stroke-linejoin="round"/>
<path d="M641.3 828.1L639.7 826.5" stroke="#494949" stroke-width="2" stroke-linecap="round" stroke-linejoin="round"/>
<path d="M660.6 828.1L652.8 820.4L643.2 810.8L638.6 806.2" stroke="#494949" stroke-width="2" stroke-linecap="round" stroke-linejoin="round"/>
<path d="M679.8 828.1L672.1 820.4L662.4 810.8L652.8 801.2L643.2 791.6L637.5 785.8" stroke="#494949" stroke-width="2" stroke-linecap="round" stroke-linejoin="round"/>
<path d="M699 828.1L691.3 820.4L681.7 810.8C681.7 810.8 680.6 809.7 679.1 808.3" stroke="#494949" stroke-width="2" stroke-linecap="round" stroke-linejoin="round"/>
<path d="M676.3 805.5C674.1 803.3 672 801.2 672 801.2L662.4 791.6L652.8 782L643.2 772.3C643.2 772.3 642.1 771.2 640.7 769.9" stroke="#494949" stroke-width="2" stroke-linecap="round" stroke-linejoin="round"/>
<path d="M718.2 828.1L710.5 820.4L700.9 810.8L691.3 801.2L681.7 791.6L672.1 782L662.4 772.3L652.8 762.7L643.2 753.1L635.3 745.2" stroke="#494949" stroke-width="2" stroke-linecap="round" stroke-linejoin="round"/>
<path d="M733.8 824.5L729.7 820.4L720.1 810.8C720.1 810.8 718.9 809.6 717.3 808" stroke="#494949" stroke-width="2" stroke-linecap="round" stroke-linejoin="round"/>
<path d="M713.4 804.1C711.7 802.5 710.5 801.2 710.5 801.2L700.9 791.6L691.3 782L681.7 772.3L672 762.7L662.4 753.1C662.4 753.1 660.3 751 658 748.7" stroke="#494949" stroke-width="2" stroke-linecap="round" stroke-linejoin="round"/>
<path d="M652.8 743.5L643.2 733.9C643.2 733.9 640.5 731.2 638.1 728.8" stroke="#494949" stroke-width="2" stroke-linecap="round" stroke-linejoin="round"/>
<path d="M645 716.5L652.8 724.3L662.4 733.9L672 743.5L681.7 753.1L691.3 762.7L700.9 772.3L710.5 782L720.1 791.6L729.7 801.2L734.8 806.2" stroke="#494949" stroke-width="2" stroke-linecap="round" stroke-linejoin="round"/>
<path d="M664.2 716.5L672.1 724.3L681.7 733.9L691.3 743.5L700.9 753.1L710.5 762.7L720.1 772.4L729.7 782L735.7 788" stroke="#494949" stroke-width="2" stroke-linecap="round" stroke-linejoin="round"/>
<path d="M683.4 716.5L691.3 724.3L700.9 733.9L710.5 743.5L720.1 753.1L729.7 762.7L736.7 769.7" stroke="#494949" stroke-width="2" stroke-linecap="round" stroke-linejoin="round"/>
<path d="M702.7 716.5L710.5 724.3L720.1 733.9L729.7 743.5L737.7 751.5" stroke="#494949" stroke-width="2" stroke-linecap="round" stroke-linejoin="round"/>
<path d="M721.9 716.5L729.7 724.3L738.7 733.3" stroke="#494949" stroke-width="2" stroke-linecap="round" stroke-linejoin="round"/>
<path d="M734.2 815.9L729.7 820.4L722 828.1" stroke="#494949" stroke-width="2" stroke-linecap="round" stroke-linejoin="round"/>
<path d="M735.3 795.6L729.7 801.2L720.1 810.8L710.5 820.4L702.8 828.1" stroke="#494949" stroke-width="2" stroke-linecap="round" stroke-linejoin="round"/>
<path d="M736.4 775.2L729.7 782L720.1 791.6L710.5 801.2L700.9 810.8L691.3 820.4L683.5 828.1" stroke="#494949" stroke-width="2" stroke-linecap="round" stroke-linejoin="round"/>
<path d="M737.5 754.9L729.7 762.7L720.1 772.4L710.5 782C710.5 782 710 782.5 709.1 783.4" stroke="#494949" stroke-width="2" stroke-linecap="round" stroke-linejoin="round"/>
<path d="M704.2 788.2C702.4 790.1 700.9 791.6 700.9 791.6L691.3 801.2L681.7 810.8L672.1 820.4C672.1 820.4 670.2 822.3 668.2 824.2" stroke="#494949" stroke-width="2" stroke-linecap="round" stroke-linejoin="round"/>
<path d="M738.6 734.6L729.7 743.5L720.1 753.1L710.5 762.7L700.9 772.3L691.3 782L681.7 791.6L672 801.2L662.4 810.8L652.8 820.4L645.1 828.1" stroke="#494949" stroke-width="2" stroke-linecap="round" stroke-linejoin="round"/>
<path d="M639.1 815L643.2 810.8L652.8 801.2L662.4 791.6L672.1 782C672.1 782 673.4 780.7 675 779" stroke="#494949" stroke-width="2" stroke-linecap="round" stroke-linejoin="round"/>
<path d="M679.2 774.8C680.6 773.4 681.7 772.3 681.7 772.3L691.3 762.7L700.9 753.1L710.5 743.5L720.1 733.9L729.7 724.3C729.7 724.3 731.6 722.4 733.5 720.5" stroke="#494949" stroke-width="2" stroke-linecap="round" stroke-linejoin="round"/>
<path d="M638.1 796.7L643.2 791.6L652.8 782L662.4 772.3L672 762.7L681.7 753.1L691.3 743.5L700.9 733.9L710.5 724.3L718.3 716.5" stroke="#494949" stroke-width="2" stroke-linecap="round" stroke-linejoin="round"/>
<path d="M637.1 778.5L643.2 772.3L652.8 762.7C652.8 762.7 654.5 761.1 656.4 759.1" stroke="#494949" stroke-width="2" stroke-linecap="round" stroke-linejoin="round"/>
<path d="M659.1 756.5C660.9 754.7 662.4 753.1 662.4 753.1L672 743.5L681.7 733.9L691.3 724.3C691.3 724.3 692.7 722.9 694.3 721.3" stroke="#494949" stroke-width="2" stroke-linecap="round" stroke-linejoin="round"/>
<path d="M636.1 760.2L643.2 753.1L652.8 743.5L662.4 733.9L672.1 724.3C672.1 724.3 674.6 721.8 676.8 719.6" stroke="#494949" stroke-width="2" stroke-linecap="round" stroke-linejoin="round"/>
<path d="M635.1 742L643.2 733.9L652.8 724.3L660.7 716.5" stroke="#494949" stroke-width="2" stroke-linecap="round" stroke-linejoin="round"/>
<path d="M641.4 716.5L634.2 723.7" stroke="#494949" stroke-width="2" stroke-linecap="round" stroke-linejoin="round"/>
<path d="M663.5 704.2C686.7 704.2 716.1 704.2 732 704.2" stroke="#494949" stroke-width="2" stroke-linecap="round" stroke-linejoin="round"/>
<path d="M736 704.2C740.7 704.2 743.5 704.2 743.5 704.2V716.5C743.5 716.5 732.3 716.5 717 716.5" stroke="#494949" stroke-width="2" stroke-linecap="round" stroke-linejoin="round"/>
<path d="M710.4 716.5C693.1 716.5 672.2 716.5 656.1 716.5" stroke="#494949" stroke-width="2" stroke-linecap="round" stroke-linejoin="round"/>
<path d="M653.7 716.5C639.7 716.5 629.8 716.5 629.8 716.5C629.8 716.5 629.8 714 629.8 711.3" stroke="#494949" stroke-width="2" stroke-linecap="round" stroke-linejoin="round"/>
<path d="M629.8 710.3C629.8 707.2 629.8 704.2 629.8 704.2C629.8 704.2 641.3 704.2 656.9 704.2" stroke="#494949" stroke-width="2" stroke-linecap="round" stroke-linejoin="round"/>
<path d="M702.8 609.2V693.3" stroke="#494949" stroke-width="2" stroke-linecap="round" stroke-linejoin="round"/>
<path d="M702.8 581.9V599.8" stroke="#494949" stroke-width="2" stroke-linecap="round" stroke-linejoin="round"/>
<path d="M1084.7 827.8V537.5H702.8V571.7" stroke="#494949" stroke-width="2" stroke-linecap="round" stroke-linejoin="round"/>
<path d="M1033.4 554.6H1064V813.5" stroke="#494949" stroke-width="2" stroke-linecap="round" stroke-linejoin="round"/>
<path d="M723.6 693.3V554.6H1015.7" stroke="#494949" stroke-width="2" stroke-linecap="round" stroke-linejoin="round"/>
<path d="M738.2 521.4H747.9" stroke="#494949" stroke-width="2" stroke-linecap="round" stroke-linejoin="round"/>
<path d="M761.8 521.4H1093.4V537.4H694.1V521.4H732" stroke="#494949" stroke-width="2" stroke-linecap="round" stroke-linejoin="round"/>
<path d="M1172.5 513.5L1167.7 544.4" stroke="#494949" stroke-width="2" stroke-linecap="round" stroke-linejoin="round"/>
<path d="M1143.3 386.6H1166.3C1179.8 386.6 1190.2 398.6 1188.1 412L1175.1 496.5" stroke="#494949" stroke-width="2" stroke-linecap="round" stroke-linejoin="round"/>
<path d="M1119.8 386.6H1136.7" stroke="#494949" stroke-width="2" stroke-linecap="round" stroke-linejoin="round"/>
<path d="M1022.8 502.5L1037.7 405.3C1039.4 394.5 1048.7 386.6 1059.5 386.6H1107.8" stroke="#494949" stroke-width="2" stroke-linecap="round" stroke-linejoin="round"/>
<path d="M1006 610.9L1013.5 562.2" stroke="#494949" stroke-width="2" stroke-linecap="round" stroke-linejoin="round"/>
<path d="M1091.3 673.1H1114.3C1125.7 673.1 1136 668.6 1143.6 661.2" stroke="#494949" stroke-width="2" stroke-linecap="round" stroke-linejoin="round"/>
<path d="M964.9 673.1H1044.8" stroke="#494949" stroke-width="2" stroke-linecap="round" stroke-linejoin="round"/>
<path d="M931.9 665.8C938.6 670.4 946.7 673.1 955.5 673.1" stroke="#494949" stroke-width="2" stroke-linecap="round" stroke-linejoin="round"/>
<path d="M1057.2 610.9H929C920.3 610.9 913.2 618 913.2 626.7V630.8C913.2 640.7 916.6 649.8 922.3 657" stroke="#494949" stroke-width="2" stroke-linecap="round" stroke-linejoin="round"/>
<path d="M1155.4 620.8C1153 615 1147.4 610.9 1140.8 610.9H1117.9" stroke="#494949" stroke-width="2" stroke-linecap="round" stroke-linejoin="round"/>
<path d="M1057.5 684.7H1002.6L991.1 673.1" stroke="#494949" stroke-width="2" stroke-linecap="round" stroke-linejoin="round"/>
<path d="M1047.7 726.8H1022C1020 726.8 1018.4 725.2 1018.4 723.2V684.7H1051.4V723.2C1051.4 725.2 1049.7 726.8 1047.7 726.8Z" stroke="#494949" stroke-width="2" stroke-linecap="round" stroke-linejoin="round"/>
<path d="M1045.2 774.2H1024.6V726.8H1045.2V774.2Z" stroke="#494949" stroke-width="2" stroke-linecap="round" stroke-linejoin="round"/>
<path d="M940.4 803.4C974.8 780.6 1024.6 774.2 1024.6 774.2" stroke="#494949" stroke-width="2" stroke-linecap="round" stroke-linejoin="round"/>
<path d="M1057.4 796.6C1022.7 791.5 988.1 799.2 955.5 807.6" stroke="#494949" stroke-width="2" stroke-linecap="round" stroke-linejoin="round"/>
<path d="M1114.2 807.6C1106.3 805.6 1098.3 803.8 1090.3 802.2" stroke="#494949" stroke-width="2" stroke-linecap="round" stroke-linejoin="round"/>
<path d="M1091.3 785.4C1104.6 789.9 1117.6 795.6 1129.3 803.4" stroke="#494949" stroke-width="2" stroke-linecap="round" stroke-linejoin="round"/>
<path d="M1045.2 774.2C1049.5 774.8 1053.8 775.6 1058.1 776.5" stroke="#494949" stroke-width="2" stroke-linecap="round" stroke-linejoin="round"/>
<path d="M957.4 816.4C957.4 823.5 951.6 829.3 944.5 829.3C937.3 829.3 931.6 823.5 931.6 816.4C931.6 809.2 937.3 803.4 944.5 803.4C951.6 803.4 957.4 809.2 957.4 816.4Z" stroke="#494949" stroke-width="2" stroke-linecap="round" stroke-linejoin="round"/>
<path d="M1139.9 816.4C1139.9 823.5 1134.1 829.3 1127 829.3C1119.9 829.3 1114.1 823.5 1114.1 816.4C1114.1 809.2 1119.9 803.4 1127 803.4C1134.1 803.4 1139.9 809.2 1139.9 816.4Z" stroke="#494949" stroke-width="2" stroke-linecap="round" stroke-linejoin="round"/>
<path d="M1111.3 646.7L1121.5 578.1C1122.4 571.5 1127.6 566.3 1134.2 565.4L1181.4 558.9C1185 558.4 1187.7 555.4 1187.7 551.7C1187.7 547.7 1184.4 544.4 1180.4 544.4H1174.4L1127.7 551.6C1116.3 553.3 1107.4 562.4 1105.9 573.9L1096.1 648.4C1095.8 651.1 1097.9 653.6 1100.7 653.6" stroke="#494949" stroke-width="2" stroke-linecap="round" stroke-linejoin="round"/>
<path d="M1181.4 558.9L1169.1 624.2C1172.5 624.2 1175.2 626.9 1175.2 630.3V642.7C1175.2 651.3 1168.3 658.3 1159.7 658.3H1102.4" stroke="#494949" stroke-width="2" stroke-linecap="round" stroke-linejoin="round"/>
<path d="M1173.2 560.1L1160.5 622.8H1127" stroke="#494949" stroke-width="2" stroke-linecap="round" stroke-linejoin="round"/>
<path d="M929.1 573.9L925.7 600.1" stroke="#494949" stroke-width="2" stroke-linecap="round" stroke-linejoin="round"/>
<path d="M941.1 602.7L944.7 578.1C945.7 571.5 950.9 566.3 957.5 565.4L1004.6 558.9" stroke="#494949" stroke-width="2" stroke-linecap="round" stroke-linejoin="round"/>
<path d="M835.2 423.4L853.5 509C854.3 512.7 857.6 515.3 861.3 515.3H997.8C1001.3 515.3 1003.9 512.1 1003.1 508.7L983.9 423.1C983.1 419.4 979.9 416.8 976.1 416.8H840.5C837 416.8 834.5 420 835.2 423.4Z" stroke="#494949" stroke-width="2" stroke-linecap="round" stroke-linejoin="round"/>
<path d="M913.9 456.3H903.4L900.4 465.8L907.9 475.2H918.5L921.5 465.8L913.9 456.3Z" stroke="#494949" stroke-width="2" stroke-linecap="round" stroke-linejoin="round"/>
<path d="M1009.8 509.5H1064V512.4C1064 515.4 1061.6 517.7 1058.6 517.7H1057.2" stroke="#494949" stroke-width="2" stroke-linecap="round" stroke-linejoin="round"/>
<path d="M1305.4 721.3C1305.4 721.3 1335.5 723.6 1336.8 745.9C1336.8 745.9 1306.3 759.9 1305.4 721.3Z" stroke="#494949" stroke-width="2" stroke-linecap="round" stroke-linejoin="round"/>
<path d="M1365 726.8C1365 726.8 1381.8 704 1409 715.7C1409 715.7 1392.4 743.2 1365 726.8Z" stroke="#494949" stroke-width="2" stroke-linecap="round" stroke-linejoin="round"/>
<path d="M1406.7 655C1406.7 655 1411.5 698.7 1371.7 686.7C1371.7 686.7 1384.3 654.5 1406.7 655Z" stroke="#494949" stroke-width="2" stroke-linecap="round" stroke-linejoin="round"/>
<path d="M1357.8 630.6C1357.8 630.6 1389.3 647.6 1366.1 673.4C1366.1 673.4 1344 655 1357.8 630.6Z" stroke="#494949" stroke-width="2" stroke-linecap="round" stroke-linejoin="round"/>
<path d="M1319 669.7C1319 669.7 1353.3 666.3 1353.3 698C1353.3 698 1319 699.3 1319 669.7Z" stroke="#494949" stroke-width="2" stroke-linecap="round" stroke-linejoin="round"/>
<path d="M1344.7 763.7C1344.2 753.1 1344.2 739.4 1350.7 725C1365.7 691.6 1370.7 663.5 1362.9 643.7" stroke="#494949" stroke-width="2" stroke-linecap="round" stroke-linejoin="round"/>
<path d="M1330.3 678.2C1330.3 678.2 1350.8 686.4 1357.8 707.5" stroke="#494949" stroke-width="2" stroke-linecap="round" stroke-linejoin="round"/>
<path d="M1395.8 672.5C1395.8 672.5 1384 688.6 1363.9 686.9" stroke="#494949" stroke-width="2" stroke-linecap="round" stroke-linejoin="round"/>
<path d="M1395.8 720.3C1395.8 720.3 1363 729.8 1349.9 726.7" stroke="#494949" stroke-width="2" stroke-linecap="round" stroke-linejoin="round"/>
<path d="M1315.2 731.3C1315.2 731.3 1329.9 747.4 1344.7 747.1" stroke="#494949" stroke-width="2" stroke-linecap="round" stroke-linejoin="round"/>
<path d="M1383.7 763.7H1312.4C1311.4 763.7 1310.6 764.5 1310.6 765.5V770.9C1310.6 771.9 1311.4 772.6 1312.4 772.6H1314.4L1320.8 828.1H1375.3L1381.7 772.6H1383.7C1384.7 772.6 1385.5 771.9 1385.5 770.9V765.5C1385.5 764.5 1384.7 763.7 1383.7 763.7Z" stroke="#494949" stroke-width="2" stroke-linecap="round" stroke-linejoin="round"/>
<path d="M1319 772.6H1360.5" stroke="#494949" stroke-width="2" stroke-linecap="round" stroke-linejoin="round"/>
<path d="M1368.4 772.6H1374.6" stroke="#494949" stroke-width="2" stroke-linecap="round" stroke-linejoin="round"/>
<path d="M590.3 829.3H1429.3" stroke="#494949" stroke-width="2" stroke-linecap="round" stroke-linejoin="round"/>
<path d="M338.9 518.8V1074.7C338.9 1077.3 336.7 1079.5 334.1 1079.5H4.8C2.1 1079.5 0 1077.3 0 1074.7V518.8C0 516.2 2.1 514 4.8 514H108.9C111.7 514 114 516.3 114 519.1V530.8C114 533.6 116.3 535.9 119.1 535.9H219.8C222.6 535.9 224.9 533.6 224.9 530.8V519.1C224.9 516.3 227.2 514 230 514H334.1C336.7 514 338.9 516.2 338.9 518.8Z" fill="#1D1D1F" stroke="#494949" stroke-width="2" stroke-linecap="round" stroke-linejoin="round"/>
<path d="M338.9 619.9H0V568.8H338.9V619.9Z" fill="#1D1D1F" stroke="#494949" stroke-width="2" stroke-linecap="round" stroke-linejoin="round"/>
<path d="M44.3 722.2H182.2" stroke="#494949" stroke-width="6" stroke-linecap="round" stroke-linejoin="round"/>
<path d="M78.4001 746.1H294.6" stroke="#494949" stroke-width="6" stroke-linecap="round" stroke-linejoin="round"/>
<path d="M44.3 764H294.6" stroke="#494949" stroke-width="6" stroke-linecap="round" stroke-linejoin="round"/>
<path d="M44.3 781.9H294.6" stroke="#494949" stroke-width="6" stroke-linecap="round" stroke-linejoin="round"/>
<path d="M44.3 799.8H294.6" stroke="#494949" stroke-width="6" stroke-linecap="round" stroke-linejoin="round"/>
<path d="M44.3 817.6H294.6" stroke="#494949" stroke-width="6" stroke-linecap="round" stroke-linejoin="round"/>
<path d="M300.7 588.1H313.5" stroke="#494949" stroke-width="2" stroke-linecap="round" stroke-linejoin="round"/>
<path d="M300.7 594H313.5" stroke="#494949" stroke-width="2" stroke-linecap="round" stroke-linejoin="round"/>
<path d="M300.7 599.9H313.5" stroke="#494949" stroke-width="2" stroke-linecap="round" stroke-linejoin="round"/>
<path d="M35.5002 594H24.7002" stroke="#494949" stroke-width="2" stroke-linecap="round" stroke-linejoin="round"/>
<path d="M29.7001 600.5L23.1001 594L29.7001 587.4" stroke="#494949" stroke-width="2" stroke-linecap="round" stroke-linejoin="round"/>
<path d="M265.8 599.9H281.9V588.1H265.8V599.9Z" stroke="#494949" stroke-width="2" stroke-linecap="round" stroke-linejoin="round"/>
<path d="M265.8 588.1L273.8 594L281.9 588.1" stroke="#494949" stroke-width="2" stroke-linecap="round" stroke-linejoin="round"/>
<path d="M245 602.1H234.2L232.7 588.1H246.4L245 602.1Z" stroke="#494949" stroke-width="2" stroke-linecap="round" stroke-linejoin="round"/>
<path d="M236.9 588.1V585.8H242.3V588.1" stroke="#494949" stroke-width="2" stroke-linecap="round" stroke-linejoin="round"/>
<path d="M86 662.9H223.9" stroke="#494949" stroke-width="6" stroke-linecap="round" stroke-linejoin="round"/>
<path d="M40.8 662.9C40.8 672.3 48.5 680 57.9 680C67.3 680 74.9 672.3 74.9 662.9C74.9 653.5 67.3 645.9 57.9 645.9C48.5 645.9 40.8 653.5 40.8 662.9Z" fill="#27272A" stroke="#494949" stroke-width="2" stroke-linecap="round" stroke-linejoin="round"/>
<path d="M64.8 673.6C63.8 673.6 60.8 671.3 61.8 669.4C62.9 667.6 64.8 664.5 64.8 664.5C66.1 662.8 66.3 658.9 66.3 658.9C66.7 656 65 651.1 57.9 651.1C50.7 651.1 49 656 49.5 658.9C49.5 658.9 49.7 662.8 50.9 664.5C50.9 664.5 52.9 667.6 53.9 669.4C54.9 671.3 51.9 673.6 50.9 673.6C49.9 673.6 46 675.1 46 675.1C46 675.1 52.9 680 57.9 680C62.9 680 69.7 675.1 69.7 675.1C69.7 675.1 65.9 673.6 64.8 673.6Z" fill="#494949"/>
<path d="M338.9 518.8V568.8H0V518.8C0 516.2 2.1 514 4.8 514H108.9C111.7 514 114 516.3 114 519.1V530.8C114 533.6 116.3 535.9 119.1 535.9H219.8C222.6 535.9 224.9 533.6 224.9 530.8V519.1C224.9 516.3 227.2 514 230 514H334.1C336.7 514 338.9 516.1 338.9 518.8Z" fill="#27272A" stroke="#494949" stroke-width="2" stroke-linecap="round" stroke-linejoin="round"/>
</g>
<defs>
<clipPath id="clip0_196_7010">
<rect width="1429" height="831" fill="white"/>
</clipPath>
</defs>
</svg>
