<svg width="28" height="28" viewBox="0 0 28 28" fill="none" xmlns="http://www.w3.org/2000/svg">
<path d="M15.4 24.5H12.6V26.6H15.4V24.5Z" fill="#000C2C"/>
<path d="M17.4385 1.3999H10.5616C7.43984 1.3999 4.90002 3.86772 4.90002 6.90098V13.5577C4.90002 16.0009 6.58853 18.1759 9.00625 18.8472L10.4063 19.2359C11.8524 19.6374 12.8625 20.9385 12.8625 22.3999H15.1375C15.1375 20.9385 16.1476 19.6374 17.5938 19.2359L18.9938 18.8472C21.4115 18.1759 23.1 16.0009 23.1 13.5577V6.90098C23.1 3.86772 20.5602 1.3999 17.4385 1.3999ZM20.825 13.5577C20.825 15.0192 19.8149 16.3203 18.3688 16.7217L16.9687 17.1104C15.755 17.4475 14.725 18.1635 14 19.1023C13.2752 18.1634 12.2452 17.4475 11.0313 17.1104L9.63127 16.7217C8.18513 16.3203 7.17502 15.0192 7.17502 13.5577V6.90098C7.17502 5.08644 8.69427 3.61041 10.5616 3.61041H17.4385C19.3058 3.61041 20.825 5.08659 20.825 6.90098V13.5577Z" fill="#000C2C"/>
<path d="M15.4 9.7998H12.6V11.8998H15.4V9.7998Z" fill="#000C2C"/>
</svg>
