<svg width="40" height="40" viewBox="0 0 40 40" fill="none" xmlns="http://www.w3.org/2000/svg">
<path d="M8.75 30.8334H31.25C31.5815 30.8334 31.8995 30.7066 32.1339 30.4809C32.3683 30.2551 32.5 29.949 32.5 29.6297V15.1853C32.5 14.866 32.3683 14.5599 32.1339 14.3341C31.8995 14.1084 31.5815 13.9816 31.25 13.9816H26.25V10.3705C26.25 10.0512 26.1183 9.74504 25.8839 9.5193C25.6495 9.29357 25.3315 9.16675 25 9.16675H15C14.6685 9.16675 14.3505 9.29357 14.1161 9.5193C13.8817 9.74504 13.75 10.0512 13.75 10.3705V13.9816H8.75C8.41848 13.9816 8.10054 14.1084 7.86612 14.3341C7.6317 14.5599 7.5 14.866 7.5 15.1853V29.6297C7.5 29.949 7.6317 30.2551 7.86612 30.4809C8.10054 30.7066 8.41848 30.8334 8.75 30.8334ZM10 28.426V21.2038H12.5V23.6112H15V21.2038H25V23.6112H27.5V21.2038H30V28.426H10ZM16.25 11.5742H23.75V13.9816H16.25V11.5742ZM30 16.389V18.7964H10V16.389H30Z" fill="#000C2C"/>
</svg>
