<svg width="65" height="64" viewBox="0 0 65 64" fill="none" xmlns="http://www.w3.org/2000/svg">
<g clip-path="url(#clip0_53_4118)">
<path d="M32.5 11.309C35.634 11.309 38.1746 8.77739 38.1746 5.6545C38.1746 2.53161 35.634 0 32.5 0C29.366 0 26.8254 2.53161 26.8254 5.6545C26.8254 8.77739 29.366 11.309 32.5 11.309Z" fill="#FFB727"/>
<path d="M9.94563 48.9829C13.0796 48.9829 15.6203 46.4512 15.6203 43.3282C15.6203 40.9327 14.1246 38.8866 12.0136 38.0627V34.625H30.625V37.9911C28.4126 38.7629 26.8254 40.8602 26.8254 43.3282C26.8254 46.4512 29.366 48.9829 32.5 48.9829C35.634 48.9829 38.1746 46.4512 38.1746 43.3282C38.1746 40.8602 36.5874 38.7629 34.375 37.9911V34.625H52.9863V38.0627C50.8754 38.8866 49.3796 40.9327 49.3796 43.3282C49.3796 46.4512 51.9202 48.9829 55.0542 48.9829C58.1882 48.9829 60.7289 46.4512 60.7289 43.3282C60.7289 40.7889 59.049 38.6406 56.7361 37.9264V32.75C56.7361 31.7145 55.8966 30.875 54.8611 30.875H34.375V26.3262H40.0173C41.0822 26.3262 41.9456 25.4629 41.9456 24.3979V18.4187C41.9456 16.2864 40.217 14.5576 38.0845 14.5576H34.375V18.2297C34.375 19.2394 33.5991 20.1081 32.5906 20.1556C31.514 20.2062 30.625 19.3482 30.625 18.2826V14.5576H26.9154C24.783 14.5576 23.0544 16.2862 23.0544 18.4186V24.3979C23.0544 25.4629 23.9177 26.3262 24.9827 26.3262H30.625V30.875H10.1388C9.10325 30.875 8.26375 31.7145 8.26375 32.75V37.9264C5.951 38.6406 4.27113 40.7889 4.27113 43.3282C4.271 46.4512 6.81163 48.9829 9.94563 48.9829Z" fill="white"/>
<path d="M15.5302 52.2313H11.8206V55.9034C11.8206 56.9131 11.0448 57.7818 10.0363 57.8293C8.9595 57.8801 8.07062 57.0221 8.07062 55.9564V52.2314H4.361C2.22863 52.2313 0.5 53.9599 0.5 56.0924V62.0717C0.5 63.1366 1.36337 63.9999 2.42838 63.9999H17.4631C18.5281 63.9999 19.3915 63.1366 19.3915 62.0716V56.0924C19.3914 53.9601 17.6628 52.2313 15.5302 52.2313Z" fill="#FFB727"/>
<path d="M38.0846 52.2313H34.375V55.9034C34.375 56.9131 33.5991 57.7818 32.5906 57.8293C31.514 57.8799 30.625 57.0219 30.625 55.9564V52.2314H26.9154C24.783 52.2314 23.0544 53.9601 23.0544 56.0924V62.0717C23.0544 63.1367 23.9178 64.0001 24.9828 64.0001H40.0174C41.0824 64.0001 41.9458 63.1367 41.9458 62.0717V56.0924C41.9456 53.9601 40.217 52.2313 38.0846 52.2313Z" fill="#FFB727"/>
<path d="M60.6389 52.2313H56.9293V55.9034C56.9293 56.9131 56.1534 57.7818 55.145 57.8293C54.0683 57.8801 53.1793 57.0221 53.1793 55.9564V52.2314H49.4696C47.3373 52.2314 45.6086 53.9601 45.6086 56.0924V62.0717C45.6086 63.1367 46.472 64.0001 47.537 64.0001H62.5718C63.6368 64.0001 64.5001 63.1367 64.5001 62.0717V56.0924C64.5 53.9601 62.7714 52.2313 60.6389 52.2313Z" fill="#FFB727"/>
</g>
<defs>
<clipPath id="clip0_53_4118">
<rect width="64" height="64" fill="white" transform="translate(0.5)"/>
</clipPath>
</defs>
</svg>
