<svg width="241" height="64" viewBox="0 0 241 64" fill="none" xmlns="http://www.w3.org/2000/svg">
<path d="M23.4667 29.3727L19.937 32.5727L0 0C12.1745 5.83041 24.3744 11.6608 36.5652 17.4912L31.4182 22.197L23.4667 29.3727Z" fill="#000C2C"/>
<path d="M35.1309 57.3582C46.6397 38.2537 58.1485 19.1045 69.7123 0C53.0274 10.8789 36.6597 21.7579 19.9747 32.6368C25.1509 40.8623 30.0098 49.1326 35.1309 57.3582Z" fill="#FFB727"/>
<path fill-rule="evenodd" clip-rule="evenodd" d="M85.35 0.822816C85.5916 1.543 89.4438 14.9477 94.8675 33.9431C97.9424 44.7115 99.4693 47.612 103.036 49.4584C104.692 50.3157 109.894 50.3848 112.009 49.5775C114.474 48.6362 116.557 45.821 118.252 41.1408C118.945 39.2271 130.102 0.757889 130.102 0.281852C130.102 -0.0715098 121.731 -0.0987382 121.511 0.254025C121.382 0.459879 114.302 25.6575 113.469 28.8734C112.806 31.4343 110.719 38.6206 110.3 39.786C109.487 42.0501 108.259 42.9016 106.676 42.3008C105.552 41.8739 104.908 39.9365 100.017 22.2908C97.2037 12.1409 95.1524 4.80734 94.2213 1.57083L93.7692 0H89.4214H85.0736L85.35 0.822816ZM142.747 14.3535C137.291 15.492 134.768 17.8811 133.238 23.3593C132.8 24.9235 132.699 26.4845 132.694 31.7158C132.69 37.5243 132.756 38.3812 133.379 40.5424C135.337 47.3374 139.103 49.5048 149.607 49.883C153.615 50.0272 158.926 49.734 162.545 49.1688L163.69 48.9902L163.604 46.0367L163.518 43.0833L154.446 43.0096C145.444 42.9366 145.362 42.9304 143.861 42.188C141.975 41.2551 141.125 39.8081 140.899 37.1503C140.744 35.3221 140.762 35.2602 141.393 35.4164C145.018 36.3128 155.777 36.4181 158.831 35.5869C162.317 34.6382 163.826 32.6745 164.301 28.4715C164.874 23.3892 163.747 18.7838 161.461 16.871C158.15 14.0998 149.525 12.9395 142.747 14.3535ZM180.294 14.3439C173.052 15.8561 170.528 19.5525 169.854 29.6277C169.58 33.731 170.143 39.5143 171.104 42.4699C172.354 46.3129 174.313 48.2081 178.32 49.4504C180.198 50.0323 181.087 50.1086 185.745 50.0871C189.896 50.0679 191.323 49.9554 192.361 49.5661C193.088 49.2933 193.803 49.0698 193.949 49.0698C194.324 49.0698 194.273 52.2838 193.875 53.7039C193.43 55.2903 191.893 56.6777 190.077 57.1322C189.095 57.3781 186.593 57.4679 182.419 57.4062L176.219 57.3153V60.2987V63.282L178.941 63.633C182.837 64.1357 190.364 64.1189 193.098 63.6013C198.539 62.5714 200.996 60.0201 202.3 54.0491C202.765 51.9191 202.832 49.8468 202.832 37.5503C202.832 23.648 202.823 23.4622 202.125 21.2622C201.519 19.3529 201.171 18.7967 199.677 17.3497C197.777 15.5111 195.769 14.6749 191.794 14.0681C188.737 13.6016 183.215 13.7338 180.294 14.3439ZM217.347 14.542C216.682 14.6051 215.287 14.7359 214.248 14.8325L212.358 15.0079L212.357 18.0511L212.357 21.094L219.602 21.0043C227.405 20.9073 228.672 21.0653 230.181 22.3211C231.198 23.1672 232.014 25.3924 232.014 27.3145C232.014 28.383 231.953 28.4742 231.334 28.3225C228.837 27.7107 223.575 27.4692 220.142 27.8097C213.326 28.485 210.889 30.1558 209.75 34.9338C209.166 37.3843 209.336 42.1013 210.097 44.5817C210.813 46.9155 212.754 48.7299 215.383 49.524C217.122 50.0488 218.233 50.117 225.059 50.117C233.642 50.117 235.124 49.874 237.283 48.1138C239.659 46.1758 240.179 43.6069 240.179 33.8231C240.179 23.3973 239.376 19.8014 236.451 17.1337C234.132 15.0192 232.301 14.6027 224.908 14.5082C221.415 14.4636 218.013 14.4789 217.347 14.542ZM153.688 20.7015C156.305 21.299 156.974 22.5529 156.774 26.4797C156.676 28.4036 156.488 28.8488 155.546 29.4C154.783 29.8458 153.823 29.9206 148.865 29.9206C141.548 29.9206 141.352 29.8476 140.867 26.9285C140.771 26.3526 140.809 25.162 140.951 24.2827C141.271 22.3058 142.194 21.3121 144.21 20.7763C146.073 20.2808 151.653 20.2368 153.688 20.7015ZM191.589 21.7209C194.347 22.6505 194.827 23.9816 195.033 31.267C195.255 39.1316 194.764 41.078 192.25 42.3122C191.259 42.7993 190.422 42.8843 186.676 42.8774C181.955 42.8687 180.998 42.6644 179.63 41.3727C178.117 39.9446 177.752 38.1619 177.744 32.1646C177.739 27.7786 177.837 26.4962 178.272 25.2563C178.923 23.4018 180.096 22.2337 181.852 21.6918C183.774 21.0988 189.797 21.1168 191.589 21.7209ZM230.171 34.201C231.945 34.8159 232.441 35.8233 232.422 38.7687C232.409 40.8374 232.291 41.4828 231.805 42.1324C230.7 43.6096 229.867 43.8037 224.597 43.8106C220.277 43.8163 219.637 43.7514 218.706 43.2137C217.519 42.5279 216.955 41.1387 216.917 38.8124C216.878 36.3975 217.832 34.8428 219.767 34.172C221.029 33.7346 228.889 33.7564 230.171 34.201Z" fill="#000C2C"/>
</svg>
