<svg width="40" height="40" viewBox="0 0 40 40" fill="none" xmlns="http://www.w3.org/2000/svg">
<g clip-path="url(#clip0_55_5449)">
<path d="M29.1783 23.8451L29.1633 23.9701C25.4983 22.1435 25.115 21.9001 24.6417 22.6101C24.3133 23.1018 23.3567 24.2168 23.0683 24.5468C22.7767 24.8718 22.4867 24.8968 21.9917 24.6718C21.4917 24.4218 19.8867 23.8968 17.9867 22.1968C16.5067 20.8718 15.5133 19.2468 15.22 18.7468C14.7317 17.9035 15.7533 17.7835 16.6833 16.0235C16.85 15.6735 16.765 15.3985 16.6417 15.1501C16.5167 14.9001 15.5217 12.4501 15.105 11.4735C14.705 10.5001 14.2933 10.6235 13.985 10.6235C13.025 10.5401 12.3233 10.5535 11.705 11.1968C9.01498 14.1535 9.69332 17.2035 11.995 20.4468C16.5183 26.3668 18.9283 27.4568 23.335 28.9701C24.525 29.3484 25.61 29.2951 26.4683 29.1718C27.425 29.0201 29.4133 27.9701 29.8283 26.7951C30.2533 25.6201 30.2533 24.6451 30.1283 24.4201C30.005 24.1951 29.6783 24.0701 29.1783 23.8451Z" fill="white"/>
<path d="M34.2 5.74808C21.385 -6.64026 0.176667 2.34474 0.168333 19.8214C0.168333 23.3147 1.08333 26.7214 2.82667 29.7297L0 39.9998L10.5583 37.2464C23.7333 44.3631 39.9933 34.9131 40 19.8314C40 14.5381 37.9333 9.55641 34.175 5.81308L34.2 5.74808ZM36.67 19.7764C36.66 32.4981 22.695 40.4431 11.65 33.9498L11.05 33.5931L4.8 35.2181L6.475 29.1431L6.07667 28.5181C-0.796667 17.5764 7.1 3.27641 20.12 3.27641C24.5433 3.27641 28.695 5.00141 31.8217 8.12641C34.9467 11.2247 36.67 15.3764 36.67 19.7764Z" fill="white"/>
</g>
<defs>
<clipPath id="clip0_55_5449">
<rect width="40" height="40" fill="white"/>
</clipPath>
</defs>
</svg>
