<svg width="40" height="40" viewBox="0 0 40 40" fill="none" xmlns="http://www.w3.org/2000/svg">
<g clip-path="url(#clip0_55_5541)">
<path d="M38.584 10.9352C38.3591 10.1261 37.9301 9.38903 37.3387 8.79513C36.7472 8.20122 36.0131 7.7706 35.2075 7.54488C32.1843 6.73098 20.0166 6.73098 20.0166 6.73098C20.0166 6.73098 7.87947 6.71518 4.82575 7.54488C4.0203 7.77074 3.28646 8.20142 2.69513 8.79531C2.10381 9.38921 1.67499 10.1262 1.45012 10.9352C0.877102 14.0439 0.594648 17.1995 0.606433 20.3611C0.596897 23.5103 0.879342 26.6538 1.45012 29.7506C1.67485 30.5598 2.10361 31.297 2.69494 31.891C3.28627 32.4851 4.02019 32.9159 4.82575 33.1418C7.84616 33.9566 20.0166 33.9566 20.0166 33.9566C20.0166 33.9566 32.1519 33.9566 35.2075 33.1418C36.0132 32.916 36.7473 32.4853 37.3388 31.8912C37.9303 31.2971 38.3592 30.5599 38.584 29.7506C39.1431 26.6524 39.4137 23.5086 39.3926 20.3601C39.4159 17.2 39.1452 14.0447 38.584 10.9352ZM16.1341 26.1921V14.5132L26.261 20.3665L16.1341 26.1921Z" fill="#D1D5DB"/>
</g>
<defs>
<clipPath id="clip0_55_5541">
<rect width="40" height="28" fill="white" transform="translate(0 6)"/>
</clipPath>
</defs>
</svg>
